<?xml version="1.0" encoding="utf-8" standalone="no"?>
<!DOCTYPE svg PUBLIC "-//W3C//DTD SVG 1.1//EN"
  "http://www.w3.org/Graphics/SVG/1.1/DTD/svg11.dtd">
<svg xmlns:xlink="http://www.w3.org/1999/xlink" width="416.16pt" height="369.216pt" viewBox="0 0 416.16 369.216" xmlns="http://www.w3.org/2000/svg" version="1.1">
 <metadata>
  <rdf:RDF xmlns:dc="http://purl.org/dc/elements/1.1/" xmlns:cc="http://creativecommons.org/ns#" xmlns:rdf="http://www.w3.org/1999/02/22-rdf-syntax-ns#">
   <cc:Work>
    <dc:type rdf:resource="http://purl.org/dc/dcmitype/StillImage"/>
    <dc:date>2026-07-16T14:42:36.182061</dc:date>
    <dc:format>image/svg+xml</dc:format>
    <dc:creator>
     <cc:Agent>
      <dc:title>Matplotlib v3.11.0, https://matplotlib.org/</dc:title>
     </cc:Agent>
    </dc:creator>
   </cc:Work>
  </rdf:RDF>
 </metadata>
 <defs>
  <style type="text/css">*{stroke-linejoin: round; stroke-linecap: butt}</style>
 </defs>
 <g id="figure_1">
  <g id="patch_1">
   <path d="M 0 369.216 
L 416.16 369.216 
L 416.16 0 
L 0 0 
z
" style="fill: #ffffff"/>
  </g>
  <g id="axes_1">
   <g id="patch_2">
    <path d="M 81.92736 78.872832 
L 334.23264 78.872832 
Q 341.46432 78.872832 341.46432 72.486144 
L 341.46432 53.680896 
Q 341.46432 47.294208 334.23264 47.294208 
L 81.92736 47.294208 
Q 74.69568 47.294208 74.69568 53.680896 
L 74.69568 72.486144 
Q 74.69568 78.872832 81.92736 78.872832 
z
" clip-path="url(#p3376474194)" style="fill: #dceaf3"/>
   </g>
   <g id="patch_3">
    <path d="M 208.08 76.613046 
Q 208.08 80.822227 208.08 83.913375 
" clip-path="url(#p3376474194)" style="fill: none; stroke: #666666; stroke-linecap: round"/>
    <path d="M 210.48 79.113375 
L 208.08 83.913375 
L 205.68 79.113375 
z
" clip-path="url(#p3376474194)" style="fill: #666666; stroke: #666666; stroke-linecap: round"/>
   </g>
   <g id="patch_4">
    <path d="M 37.73376 114.354432 
L 378.42624 114.354432 
Q 385.65792 114.354432 385.65792 107.967744 
L 385.65792 89.162496 
Q 385.65792 82.775808 378.42624 82.775808 
L 37.73376 82.775808 
Q 30.50208 82.775808 30.50208 89.162496 
L 30.50208 107.967744 
Q 30.50208 114.354432 37.73376 114.354432 
z
" clip-path="url(#p3376474194)" style="fill: #f2f2f2; stroke: #c8c8c8; stroke-width: 0.8; stroke-linejoin: miter"/>
   </g>
   <g id="patch_5">
    <path d="M 33.71616 195.962112 
L 137.37024 195.962112 
Q 144.60192 195.962112 144.60192 189.575424 
L 144.60192 126.418176 
Q 144.60192 120.031488 137.37024 120.031488 
L 33.71616 120.031488 
Q 26.48448 120.031488 26.48448 126.418176 
L 26.48448 189.575424 
Q 26.48448 195.962112 33.71616 195.962112 
z
" clip-path="url(#p3376474194)" style="fill: #e1f3ee; stroke: #b8b8b8; stroke-width: 0.8; stroke-linejoin: miter"/>
   </g>
   <g id="patch_6">
    <path d="M 156.25296 195.962112 
L 259.90704 195.962112 
Q 267.13872 195.962112 267.13872 189.575424 
L 267.13872 126.418176 
Q 267.13872 120.031488 259.90704 120.031488 
L 156.25296 120.031488 
Q 149.02128 120.031488 149.02128 126.418176 
L 149.02128 189.575424 
Q 149.02128 195.962112 156.25296 195.962112 
z
" clip-path="url(#p3376474194)" style="fill: #fff0db; stroke: #b8b8b8; stroke-width: 0.8; stroke-linejoin: miter"/>
   </g>
   <g id="patch_7">
    <path d="M 278.78976 195.962112 
L 382.44384 195.962112 
Q 389.67552 195.962112 389.67552 189.575424 
L 389.67552 126.418176 
Q 389.67552 120.031488 382.44384 120.031488 
L 278.78976 120.031488 
Q 271.55808 120.031488 271.55808 126.418176 
L 271.55808 189.575424 
Q 271.55808 195.962112 278.78976 195.962112 
z
" clip-path="url(#p3376474194)" style="fill: #e8e2f3; stroke: #b8b8b8; stroke-width: 0.8; stroke-linejoin: miter"/>
   </g>
   <g id="patch_8">
    <path d="M 91.97136 277.569792 
L 195.62544 277.569792 
Q 202.85712 277.569792 202.85712 271.183104 
L 202.85712 215.122176 
Q 202.85712 208.735488 195.62544 208.735488 
L 91.97136 208.735488 
Q 84.73968 208.735488 84.73968 215.122176 
L 84.73968 271.183104 
Q 84.73968 277.569792 91.97136 277.569792 
z
" clip-path="url(#p3376474194)" style="fill: #f8e1e3; stroke: #b8b8b8; stroke-width: 0.8; stroke-linejoin: miter"/>
   </g>
   <g id="patch_9">
    <path d="M 220.53456 277.569792 
L 324.18864 277.569792 
Q 331.42032 277.569792 331.42032 271.183104 
L 331.42032 215.122176 
Q 331.42032 208.735488 324.18864 208.735488 
L 220.53456 208.735488 
Q 213.30288 208.735488 213.30288 215.122176 
L 213.30288 271.183104 
Q 213.30288 277.569792 220.53456 277.569792 
z
" clip-path="url(#p3376474194)" style="fill: #e5edf8; stroke: #b8b8b8; stroke-width: 0.8; stroke-linejoin: miter"/>
   </g>
   <g id="patch_10">
    <path d="M 208.08 112.094646 
Q 208.08 116.303827 208.08 119.730385 
" clip-path="url(#p3376474194)" style="fill: none; stroke: #999999; stroke-width: 0.7; stroke-linecap: round"/>
    <path d="M 209.88 116.130385 
L 208.08 119.730385 
L 206.28 116.130385 
z
" clip-path="url(#p3376474194)" style="fill: #999999; stroke: #999999; stroke-width: 0.7; stroke-linecap: round"/>
   </g>
   <g id="patch_11">
    <path d="M 37.73376 323.695872 
L 378.42624 323.695872 
Q 385.65792 323.695872 385.65792 317.309184 
L 385.65792 298.503936 
Q 385.65792 292.117248 378.42624 292.117248 
L 37.73376 292.117248 
Q 30.50208 292.117248 30.50208 298.503936 
L 30.50208 317.309184 
Q 30.50208 323.695872 37.73376 323.695872 
z
" clip-path="url(#p3376474194)" style="fill: #f2f2f2; stroke: #c8c8c8; stroke-width: 0.8; stroke-linejoin: miter"/>
   </g>
   <g id="patch_12">
    <path d="M 208.08 275.313687 
Q 208.08 284.845543 208.08 293.594776 
" clip-path="url(#p3376474194)" style="fill: none; stroke: #999999; stroke-width: 0.7; stroke-linecap: round"/>
    <path d="M 209.88 289.994776 
L 208.08 293.594776 
L 206.28 289.994776 
z
" clip-path="url(#p3376474194)" style="fill: #999999; stroke: #999999; stroke-width: 0.7; stroke-linecap: round"/>
   </g>
   <g id="patch_13">
    <path d="M 97.99776 357.403392 
L 318.16224 357.403392 
Q 325.39392 357.403392 325.39392 351.016704 
L 325.39392 335.759616 
Q 325.39392 329.372928 318.16224 329.372928 
L 97.99776 329.372928 
Q 90.76608 329.372928 90.76608 335.759616 
L 90.76608 351.016704 
Q 90.76608 357.403392 97.99776 357.403392 
z
" clip-path="url(#p3376474194)" style="fill: #dceaf3"/>
   </g>
   <g id="patch_14">
    <path d="M 208.08 321.437385 
Q 208.08 326.535306 208.08 330.515194 
" clip-path="url(#p3376474194)" style="fill: none; stroke: #666666; stroke-linecap: round"/>
    <path d="M 210.08 326.515194 
L 208.08 330.515194 
L 206.08 326.515194 
z
" clip-path="url(#p3376474194)" style="fill: #666666; stroke: #666666; stroke-linecap: round"/>
   </g>
   <g id="text_1">
    <!-- Newick tree(s)  +  taxon/trait tables  +  reference trees -->
    <g transform="translate(83.572031 65.421762) scale(0.09 -0.09)">
     <defs>
      <path id="DejaVuSans-31" d="M 628 4666 
L 1478 4666 
L 3547 763 
L 3547 4666 
L 4159 4666 
L 4159 0 
L 3309 0 
L 1241 3903 
L 1241 0 
L 628 0 
L 628 4666 
z
" transform="scale(0.015625)"/>
      <path id="DejaVuSans-48" d="M 3597 1894 
L 3597 1613 
L 953 1613 
Q 991 1019 1311 708 
Q 1631 397 2203 397 
Q 2534 397 2845 478 
Q 3156 559 3463 722 
L 3463 178 
Q 3153 47 2828 -22 
Q 2503 -91 2169 -91 
Q 1331 -91 842 396 
Q 353 884 353 1716 
Q 353 2575 817 3079 
Q 1281 3584 2069 3584 
Q 2775 3584 3186 3129 
Q 3597 2675 3597 1894 
z
M 3022 2063 
Q 3016 2534 2758 2815 
Q 2500 3097 2075 3097 
Q 1594 3097 1305 2825 
Q 1016 2553 972 2059 
L 3022 2063 
z
" transform="scale(0.015625)"/>
      <path id="DejaVuSans-5a" d="M 269 3500 
L 844 3500 
L 1563 769 
L 2278 3500 
L 2956 3500 
L 3675 769 
L 4391 3500 
L 4966 3500 
L 4050 0 
L 3372 0 
L 2619 2869 
L 1863 0 
L 1184 0 
L 269 3500 
z
" transform="scale(0.015625)"/>
      <path id="DejaVuSans-4c" d="M 603 3500 
L 1178 3500 
L 1178 0 
L 603 0 
L 603 3500 
z
M 603 4863 
L 1178 4863 
L 1178 4134 
L 603 4134 
L 603 4863 
z
" transform="scale(0.015625)"/>
      <path id="DejaVuSans-46" d="M 3122 3366 
L 3122 2828 
Q 2878 2963 2633 3030 
Q 2388 3097 2138 3097 
Q 1578 3097 1268 2742 
Q 959 2388 959 1747 
Q 959 1106 1268 751 
Q 1578 397 2138 397 
Q 2388 397 2633 464 
Q 2878 531 3122 666 
L 3122 134 
Q 2881 22 2623 -34 
Q 2366 -91 2075 -91 
Q 1284 -91 818 406 
Q 353 903 353 1747 
Q 353 2603 823 3093 
Q 1294 3584 2113 3584 
Q 2378 3584 2631 3529 
Q 2884 3475 3122 3366 
z
" transform="scale(0.015625)"/>
      <path id="DejaVuSans-4e" d="M 581 4863 
L 1159 4863 
L 1159 1991 
L 2875 3500 
L 3609 3500 
L 1753 1863 
L 3688 0 
L 2938 0 
L 1159 1709 
L 1159 0 
L 581 0 
L 581 4863 
z
" transform="scale(0.015625)"/>
      <path id="DejaVuSans-3" transform="scale(0.015625)"/>
      <path id="DejaVuSans-57" d="M 1172 4494 
L 1172 3500 
L 2356 3500 
L 2356 3053 
L 1172 3053 
L 1172 1153 
Q 1172 725 1289 603 
Q 1406 481 1766 481 
L 2356 481 
L 2356 0 
L 1766 0 
Q 1100 0 847 248 
Q 594 497 594 1153 
L 594 3053 
L 172 3053 
L 172 3500 
L 594 3500 
L 594 4494 
L 1172 4494 
z
" transform="scale(0.015625)"/>
      <path id="DejaVuSans-55" d="M 2631 2963 
Q 2534 3019 2420 3045 
Q 2306 3072 2169 3072 
Q 1681 3072 1420 2755 
Q 1159 2438 1159 1844 
L 1159 0 
L 581 0 
L 581 3500 
L 1159 3500 
L 1159 2956 
Q 1341 3275 1631 3429 
Q 1922 3584 2338 3584 
Q 2397 3584 2469 3576 
Q 2541 3569 2628 3553 
L 2631 2963 
z
" transform="scale(0.015625)"/>
      <path id="DejaVuSans-b" d="M 1984 4856 
Q 1566 4138 1362 3434 
Q 1159 2731 1159 2009 
Q 1159 1288 1364 580 
Q 1569 -128 1984 -844 
L 1484 -844 
Q 1016 -109 783 600 
Q 550 1309 550 2009 
Q 550 2706 781 3412 
Q 1013 4119 1484 4856 
L 1984 4856 
z
" transform="scale(0.015625)"/>
      <path id="DejaVuSans-56" d="M 2834 3397 
L 2834 2853 
Q 2591 2978 2328 3040 
Q 2066 3103 1784 3103 
Q 1356 3103 1142 2972 
Q 928 2841 928 2578 
Q 928 2378 1081 2264 
Q 1234 2150 1697 2047 
L 1894 2003 
Q 2506 1872 2764 1633 
Q 3022 1394 3022 966 
Q 3022 478 2636 193 
Q 2250 -91 1575 -91 
Q 1294 -91 989 -36 
Q 684 19 347 128 
L 347 722 
Q 666 556 975 473 
Q 1284 391 1588 391 
Q 1994 391 2212 530 
Q 2431 669 2431 922 
Q 2431 1156 2273 1281 
Q 2116 1406 1581 1522 
L 1381 1569 
Q 847 1681 609 1914 
Q 372 2147 372 2553 
Q 372 3047 722 3315 
Q 1072 3584 1716 3584 
Q 2034 3584 2315 3537 
Q 2597 3491 2834 3397 
z
" transform="scale(0.015625)"/>
      <path id="DejaVuSans-c" d="M 513 4856 
L 1013 4856 
Q 1481 4119 1714 3412 
Q 1947 2706 1947 2009 
Q 1947 1309 1714 600 
Q 1481 -109 1013 -844 
L 513 -844 
Q 928 -128 1133 580 
Q 1338 1288 1338 2009 
Q 1338 2731 1133 3434 
Q 928 4138 513 4856 
z
" transform="scale(0.015625)"/>
      <path id="DejaVuSans-e" d="M 2944 4013 
L 2944 2272 
L 4684 2272 
L 4684 1741 
L 2944 1741 
L 2944 0 
L 2419 0 
L 2419 1741 
L 678 1741 
L 678 2272 
L 2419 2272 
L 2419 4013 
L 2944 4013 
z
" transform="scale(0.015625)"/>
      <path id="DejaVuSans-44" d="M 2194 1759 
Q 1497 1759 1228 1600 
Q 959 1441 959 1056 
Q 959 750 1161 570 
Q 1363 391 1709 391 
Q 2188 391 2477 730 
Q 2766 1069 2766 1631 
L 2766 1759 
L 2194 1759 
z
M 3341 1997 
L 3341 0 
L 2766 0 
L 2766 531 
Q 2569 213 2275 61 
Q 1981 -91 1556 -91 
Q 1019 -91 701 211 
Q 384 513 384 1019 
Q 384 1609 779 1909 
Q 1175 2209 1959 2209 
L 2766 2209 
L 2766 2266 
Q 2766 2663 2505 2880 
Q 2244 3097 1772 3097 
Q 1472 3097 1187 3025 
Q 903 2953 641 2809 
L 641 3341 
Q 956 3463 1253 3523 
Q 1550 3584 1831 3584 
Q 2591 3584 2966 3190 
Q 3341 2797 3341 1997 
z
" transform="scale(0.015625)"/>
      <path id="DejaVuSans-5b" d="M 3513 3500 
L 2247 1797 
L 3578 0 
L 2900 0 
L 1881 1375 
L 863 0 
L 184 0 
L 1544 1831 
L 300 3500 
L 978 3500 
L 1906 2253 
L 2834 3500 
L 3513 3500 
z
" transform="scale(0.015625)"/>
      <path id="DejaVuSans-52" d="M 1959 3097 
Q 1497 3097 1228 2736 
Q 959 2375 959 1747 
Q 959 1119 1226 758 
Q 1494 397 1959 397 
Q 2419 397 2687 759 
Q 2956 1122 2956 1747 
Q 2956 2369 2687 2733 
Q 2419 3097 1959 3097 
z
M 1959 3584 
Q 2709 3584 3137 3096 
Q 3566 2609 3566 1747 
Q 3566 888 3137 398 
Q 2709 -91 1959 -91 
Q 1206 -91 779 398 
Q 353 888 353 1747 
Q 353 2609 779 3096 
Q 1206 3584 1959 3584 
z
" transform="scale(0.015625)"/>
      <path id="DejaVuSans-51" d="M 3513 2113 
L 3513 0 
L 2938 0 
L 2938 2094 
Q 2938 2591 2744 2837 
Q 2550 3084 2163 3084 
Q 1697 3084 1428 2787 
Q 1159 2491 1159 1978 
L 1159 0 
L 581 0 
L 581 3500 
L 1159 3500 
L 1159 2956 
Q 1366 3272 1645 3428 
Q 1925 3584 2291 3584 
Q 2894 3584 3203 3211 
Q 3513 2838 3513 2113 
z
" transform="scale(0.015625)"/>
      <path id="DejaVuSans-12" d="M 1625 4666 
L 2156 4666 
L 531 -594 
L 0 -594 
L 1625 4666 
z
" transform="scale(0.015625)"/>
      <path id="DejaVuSans-45" d="M 3116 1747 
Q 3116 2381 2855 2742 
Q 2594 3103 2138 3103 
Q 1681 3103 1420 2742 
Q 1159 2381 1159 1747 
Q 1159 1113 1420 752 
Q 1681 391 2138 391 
Q 2594 391 2855 752 
Q 3116 1113 3116 1747 
z
M 1159 2969 
Q 1341 3281 1617 3432 
Q 1894 3584 2278 3584 
Q 2916 3584 3314 3078 
Q 3713 2572 3713 1747 
Q 3713 922 3314 415 
Q 2916 -91 2278 -91 
Q 1894 -91 1617 61 
Q 1341 213 1159 525 
L 1159 0 
L 581 0 
L 581 4863 
L 1159 4863 
L 1159 2969 
z
" transform="scale(0.015625)"/>
      <path id="DejaVuSans-4f" d="M 603 4863 
L 1178 4863 
L 1178 0 
L 603 0 
L 603 4863 
z
" transform="scale(0.015625)"/>
      <path id="DejaVuSans-49" d="M 2375 4863 
L 2375 4384 
L 1825 4384 
Q 1516 4384 1395 4259 
Q 1275 4134 1275 3809 
L 1275 3500 
L 2222 3500 
L 2222 3053 
L 1275 3053 
L 1275 0 
L 697 0 
L 697 3053 
L 147 3053 
L 147 3500 
L 697 3500 
L 697 3744 
Q 697 4328 969 4595 
Q 1241 4863 1831 4863 
L 2375 4863 
z
" transform="scale(0.015625)"/>
     </defs>
     <use xlink:href="#DejaVuSans-31"/>
     <use xlink:href="#DejaVuSans-48" transform="translate(74.8125 0)"/>
     <use xlink:href="#DejaVuSans-5a" transform="translate(136.34375 0)"/>
     <use xlink:href="#DejaVuSans-4c" transform="translate(218.125 0)"/>
     <use xlink:href="#DejaVuSans-46" transform="translate(245.90625 0)"/>
     <use xlink:href="#DejaVuSans-4e" transform="translate(300.890625 0)"/>
     <use xlink:href="#DejaVuSans-3" transform="translate(358.796875 0)"/>
     <use xlink:href="#DejaVuSans-57" transform="translate(390.578125 0)"/>
     <use xlink:href="#DejaVuSans-55" transform="translate(429.78125 0)"/>
     <use xlink:href="#DejaVuSans-48" transform="translate(468.6875 0)"/>
     <use xlink:href="#DejaVuSans-48" transform="translate(530.21875 0)"/>
     <use xlink:href="#DejaVuSans-b" transform="translate(591.75 0)"/>
     <use xlink:href="#DejaVuSans-56" transform="translate(630.765625 0)"/>
     <use xlink:href="#DejaVuSans-c" transform="translate(682.859375 0)"/>
     <use xlink:href="#DejaVuSans-3" transform="translate(721.875 0)"/>
     <use xlink:href="#DejaVuSans-3" transform="translate(753.65625 0)"/>
     <use xlink:href="#DejaVuSans-e" transform="translate(785.4375 0)"/>
     <use xlink:href="#DejaVuSans-3" transform="translate(869.234375 0)"/>
     <use xlink:href="#DejaVuSans-3" transform="translate(901.015625 0)"/>
     <use xlink:href="#DejaVuSans-57" transform="translate(932.796875 0)"/>
     <use xlink:href="#DejaVuSans-44" transform="translate(972 0)"/>
     <use xlink:href="#DejaVuSans-5b" transform="translate(1033.28125 0)"/>
     <use xlink:href="#DejaVuSans-52" transform="translate(1089.390625 0)"/>
     <use xlink:href="#DejaVuSans-51" transform="translate(1150.578125 0)"/>
     <use xlink:href="#DejaVuSans-12" transform="translate(1213.953125 0)"/>
     <use xlink:href="#DejaVuSans-57" transform="translate(1247.640625 0)"/>
     <use xlink:href="#DejaVuSans-55" transform="translate(1286.84375 0)"/>
     <use xlink:href="#DejaVuSans-44" transform="translate(1327.953125 0)"/>
     <use xlink:href="#DejaVuSans-4c" transform="translate(1389.234375 0)"/>
     <use xlink:href="#DejaVuSans-57" transform="translate(1417.015625 0)"/>
     <use xlink:href="#DejaVuSans-3" transform="translate(1456.21875 0)"/>
     <use xlink:href="#DejaVuSans-57" transform="translate(1488 0)"/>
     <use xlink:href="#DejaVuSans-44" transform="translate(1527.203125 0)"/>
     <use xlink:href="#DejaVuSans-45" transform="translate(1588.484375 0)"/>
     <use xlink:href="#DejaVuSans-4f" transform="translate(1651.96875 0)"/>
     <use xlink:href="#DejaVuSans-48" transform="translate(1679.75 0)"/>
     <use xlink:href="#DejaVuSans-56" transform="translate(1741.28125 0)"/>
     <use xlink:href="#DejaVuSans-3" transform="translate(1793.375 0)"/>
     <use xlink:href="#DejaVuSans-3" transform="translate(1825.15625 0)"/>
     <use xlink:href="#DejaVuSans-e" transform="translate(1856.9375 0)"/>
     <use xlink:href="#DejaVuSans-3" transform="translate(1940.734375 0)"/>
     <use xlink:href="#DejaVuSans-3" transform="translate(1972.515625 0)"/>
     <use xlink:href="#DejaVuSans-55" transform="translate(2004.296875 0)"/>
     <use xlink:href="#DejaVuSans-48" transform="translate(2043.203125 0)"/>
     <use xlink:href="#DejaVuSans-49" transform="translate(2104.734375 0)"/>
     <use xlink:href="#DejaVuSans-48" transform="translate(2139.9375 0)"/>
     <use xlink:href="#DejaVuSans-55" transform="translate(2201.46875 0)"/>
     <use xlink:href="#DejaVuSans-48" transform="translate(2240.375 0)"/>
     <use xlink:href="#DejaVuSans-51" transform="translate(2301.90625 0)"/>
     <use xlink:href="#DejaVuSans-46" transform="translate(2365.28125 0)"/>
     <use xlink:href="#DejaVuSans-48" transform="translate(2420.265625 0)"/>
     <use xlink:href="#DejaVuSans-3" transform="translate(2481.796875 0)"/>
     <use xlink:href="#DejaVuSans-57" transform="translate(2513.578125 0)"/>
     <use xlink:href="#DejaVuSans-55" transform="translate(2552.78125 0)"/>
     <use xlink:href="#DejaVuSans-48" transform="translate(2591.6875 0)"/>
     <use xlink:href="#DejaVuSans-48" transform="translate(2653.21875 0)"/>
     <use xlink:href="#DejaVuSans-56" transform="translate(2714.75 0)"/>
    </g>
   </g>
   <g id="text_2">
    <!-- 30 stdin defaults  ·  28 stdout defaults  ·  597 tests -->
    <g style="fill: #666666" transform="translate(112.882148 41.081975) scale(0.075 -0.075)">
     <defs>
      <path id="DejaVuSans-16" d="M 2597 2516 
Q 3050 2419 3304 2112 
Q 3559 1806 3559 1356 
Q 3559 666 3084 287 
Q 2609 -91 1734 -91 
Q 1441 -91 1130 -33 
Q 819 25 488 141 
L 488 750 
Q 750 597 1062 519 
Q 1375 441 1716 441 
Q 2309 441 2620 675 
Q 2931 909 2931 1356 
Q 2931 1769 2642 2001 
Q 2353 2234 1838 2234 
L 1294 2234 
L 1294 2753 
L 1863 2753 
Q 2328 2753 2575 2939 
Q 2822 3125 2822 3475 
Q 2822 3834 2567 4026 
Q 2313 4219 1838 4219 
Q 1578 4219 1281 4162 
Q 984 4106 628 3988 
L 628 4550 
Q 988 4650 1302 4700 
Q 1616 4750 1894 4750 
Q 2613 4750 3031 4423 
Q 3450 4097 3450 3541 
Q 3450 3153 3228 2886 
Q 3006 2619 2597 2516 
z
" transform="scale(0.015625)"/>
      <path id="DejaVuSans-13" d="M 2034 4250 
Q 1547 4250 1301 3770 
Q 1056 3291 1056 2328 
Q 1056 1369 1301 889 
Q 1547 409 2034 409 
Q 2525 409 2770 889 
Q 3016 1369 3016 2328 
Q 3016 3291 2770 3770 
Q 2525 4250 2034 4250 
z
M 2034 4750 
Q 2819 4750 3233 4129 
Q 3647 3509 3647 2328 
Q 3647 1150 3233 529 
Q 2819 -91 2034 -91 
Q 1250 -91 836 529 
Q 422 1150 422 2328 
Q 422 3509 836 4129 
Q 1250 4750 2034 4750 
z
" transform="scale(0.015625)"/>
      <path id="DejaVuSans-47" d="M 2906 2969 
L 2906 4863 
L 3481 4863 
L 3481 0 
L 2906 0 
L 2906 525 
Q 2725 213 2448 61 
Q 2172 -91 1784 -91 
Q 1150 -91 751 415 
Q 353 922 353 1747 
Q 353 2572 751 3078 
Q 1150 3584 1784 3584 
Q 2172 3584 2448 3432 
Q 2725 3281 2906 2969 
z
M 947 1747 
Q 947 1113 1208 752 
Q 1469 391 1925 391 
Q 2381 391 2643 752 
Q 2906 1113 2906 1747 
Q 2906 2381 2643 2742 
Q 2381 3103 1925 3103 
Q 1469 3103 1208 2742 
Q 947 2381 947 1747 
z
" transform="scale(0.015625)"/>
      <path id="DejaVuSans-58" d="M 544 1381 
L 544 3500 
L 1119 3500 
L 1119 1403 
Q 1119 906 1312 657 
Q 1506 409 1894 409 
Q 2359 409 2629 706 
Q 2900 1003 2900 1516 
L 2900 3500 
L 3475 3500 
L 3475 0 
L 2900 0 
L 2900 538 
Q 2691 219 2414 64 
Q 2138 -91 1772 -91 
Q 1169 -91 856 284 
Q 544 659 544 1381 
z
M 1991 3584 
L 1991 3584 
z
" transform="scale(0.015625)"/>
      <path id="DejaVuSans-79" d="M 684 2619 
L 1344 2619 
L 1344 1825 
L 684 1825 
L 684 2619 
z
" transform="scale(0.015625)"/>
      <path id="DejaVuSans-15" d="M 1228 531 
L 3431 531 
L 3431 0 
L 469 0 
L 469 531 
Q 828 903 1448 1529 
Q 2069 2156 2228 2338 
Q 2531 2678 2651 2914 
Q 2772 3150 2772 3378 
Q 2772 3750 2511 3984 
Q 2250 4219 1831 4219 
Q 1534 4219 1204 4116 
Q 875 4013 500 3803 
L 500 4441 
Q 881 4594 1212 4672 
Q 1544 4750 1819 4750 
Q 2544 4750 2975 4387 
Q 3406 4025 3406 3419 
Q 3406 3131 3298 2873 
Q 3191 2616 2906 2266 
Q 2828 2175 2409 1742 
Q 1991 1309 1228 531 
z
" transform="scale(0.015625)"/>
      <path id="DejaVuSans-1b" d="M 2034 2216 
Q 1584 2216 1326 1975 
Q 1069 1734 1069 1313 
Q 1069 891 1326 650 
Q 1584 409 2034 409 
Q 2484 409 2743 651 
Q 3003 894 3003 1313 
Q 3003 1734 2745 1975 
Q 2488 2216 2034 2216 
z
M 1403 2484 
Q 997 2584 770 2862 
Q 544 3141 544 3541 
Q 544 4100 942 4425 
Q 1341 4750 2034 4750 
Q 2731 4750 3128 4425 
Q 3525 4100 3525 3541 
Q 3525 3141 3298 2862 
Q 3072 2584 2669 2484 
Q 3125 2378 3379 2068 
Q 3634 1759 3634 1313 
Q 3634 634 3220 271 
Q 2806 -91 2034 -91 
Q 1263 -91 848 271 
Q 434 634 434 1313 
Q 434 1759 690 2068 
Q 947 2378 1403 2484 
z
M 1172 3481 
Q 1172 3119 1398 2916 
Q 1625 2713 2034 2713 
Q 2441 2713 2670 2916 
Q 2900 3119 2900 3481 
Q 2900 3844 2670 4047 
Q 2441 4250 2034 4250 
Q 1625 4250 1398 4047 
Q 1172 3844 1172 3481 
z
" transform="scale(0.015625)"/>
      <path id="DejaVuSans-18" d="M 691 4666 
L 3169 4666 
L 3169 4134 
L 1269 4134 
L 1269 2991 
Q 1406 3038 1543 3061 
Q 1681 3084 1819 3084 
Q 2600 3084 3056 2656 
Q 3513 2228 3513 1497 
Q 3513 744 3044 326 
Q 2575 -91 1722 -91 
Q 1428 -91 1123 -41 
Q 819 9 494 109 
L 494 744 
Q 775 591 1075 516 
Q 1375 441 1709 441 
Q 2250 441 2565 725 
Q 2881 1009 2881 1497 
Q 2881 1984 2565 2268 
Q 2250 2553 1709 2553 
Q 1456 2553 1204 2497 
Q 953 2441 691 2322 
L 691 4666 
z
" transform="scale(0.015625)"/>
      <path id="DejaVuSans-1c" d="M 703 97 
L 703 672 
Q 941 559 1184 500 
Q 1428 441 1663 441 
Q 2288 441 2617 861 
Q 2947 1281 2994 2138 
Q 2813 1869 2534 1725 
Q 2256 1581 1919 1581 
Q 1219 1581 811 2004 
Q 403 2428 403 3163 
Q 403 3881 828 4315 
Q 1253 4750 1959 4750 
Q 2769 4750 3195 4129 
Q 3622 3509 3622 2328 
Q 3622 1225 3098 567 
Q 2575 -91 1691 -91 
Q 1453 -91 1209 -44 
Q 966 3 703 97 
z
M 1959 2075 
Q 2384 2075 2632 2365 
Q 2881 2656 2881 3163 
Q 2881 3666 2632 3958 
Q 2384 4250 1959 4250 
Q 1534 4250 1286 3958 
Q 1038 3666 1038 3163 
Q 1038 2656 1286 2365 
Q 1534 2075 1959 2075 
z
" transform="scale(0.015625)"/>
      <path id="DejaVuSans-1a" d="M 525 4666 
L 3525 4666 
L 3525 4397 
L 1831 0 
L 1172 0 
L 2766 4134 
L 525 4134 
L 525 4666 
z
" transform="scale(0.015625)"/>
     </defs>
     <use xlink:href="#DejaVuSans-16"/>
     <use xlink:href="#DejaVuSans-13" transform="translate(63.625 0)"/>
     <use xlink:href="#DejaVuSans-3" transform="translate(127.25 0)"/>
     <use xlink:href="#DejaVuSans-56" transform="translate(159.03125 0)"/>
     <use xlink:href="#DejaVuSans-57" transform="translate(211.125 0)"/>
     <use xlink:href="#DejaVuSans-47" transform="translate(250.328125 0)"/>
     <use xlink:href="#DejaVuSans-4c" transform="translate(313.8125 0)"/>
     <use xlink:href="#DejaVuSans-51" transform="translate(341.59375 0)"/>
     <use xlink:href="#DejaVuSans-3" transform="translate(404.96875 0)"/>
     <use xlink:href="#DejaVuSans-47" transform="translate(436.75 0)"/>
     <use xlink:href="#DejaVuSans-48" transform="translate(500.234375 0)"/>
     <use xlink:href="#DejaVuSans-49" transform="translate(561.765625 0)"/>
     <use xlink:href="#DejaVuSans-44" transform="translate(596.96875 0)"/>
     <use xlink:href="#DejaVuSans-58" transform="translate(658.25 0)"/>
     <use xlink:href="#DejaVuSans-4f" transform="translate(721.625 0)"/>
     <use xlink:href="#DejaVuSans-57" transform="translate(749.40625 0)"/>
     <use xlink:href="#DejaVuSans-56" transform="translate(788.609375 0)"/>
     <use xlink:href="#DejaVuSans-3" transform="translate(840.703125 0)"/>
     <use xlink:href="#DejaVuSans-3" transform="translate(872.484375 0)"/>
     <use xlink:href="#DejaVuSans-79" transform="translate(904.265625 0)"/>
     <use xlink:href="#DejaVuSans-3" transform="translate(936.046875 0)"/>
     <use xlink:href="#DejaVuSans-3" transform="translate(967.828125 0)"/>
     <use xlink:href="#DejaVuSans-15" transform="translate(999.609375 0)"/>
     <use xlink:href="#DejaVuSans-1b" transform="translate(1063.234375 0)"/>
     <use xlink:href="#DejaVuSans-3" transform="translate(1126.859375 0)"/>
     <use xlink:href="#DejaVuSans-56" transform="translate(1158.640625 0)"/>
     <use xlink:href="#DejaVuSans-57" transform="translate(1210.734375 0)"/>
     <use xlink:href="#DejaVuSans-47" transform="translate(1249.9375 0)"/>
     <use xlink:href="#DejaVuSans-52" transform="translate(1313.421875 0)"/>
     <use xlink:href="#DejaVuSans-58" transform="translate(1374.609375 0)"/>
     <use xlink:href="#DejaVuSans-57" transform="translate(1437.984375 0)"/>
     <use xlink:href="#DejaVuSans-3" transform="translate(1477.1875 0)"/>
     <use xlink:href="#DejaVuSans-47" transform="translate(1508.96875 0)"/>
     <use xlink:href="#DejaVuSans-48" transform="translate(1572.453125 0)"/>
     <use xlink:href="#DejaVuSans-49" transform="translate(1633.984375 0)"/>
     <use xlink:href="#DejaVuSans-44" transform="translate(1669.1875 0)"/>
     <use xlink:href="#DejaVuSans-58" transform="translate(1730.46875 0)"/>
     <use xlink:href="#DejaVuSans-4f" transform="translate(1793.84375 0)"/>
     <use xlink:href="#DejaVuSans-57" transform="translate(1821.625 0)"/>
     <use xlink:href="#DejaVuSans-56" transform="translate(1860.828125 0)"/>
     <use xlink:href="#DejaVuSans-3" transform="translate(1912.921875 0)"/>
     <use xlink:href="#DejaVuSans-3" transform="translate(1944.703125 0)"/>
     <use xlink:href="#DejaVuSans-79" transform="translate(1976.484375 0)"/>
     <use xlink:href="#DejaVuSans-3" transform="translate(2008.265625 0)"/>
     <use xlink:href="#DejaVuSans-3" transform="translate(2040.046875 0)"/>
     <use xlink:href="#DejaVuSans-18" transform="translate(2071.828125 0)"/>
     <use xlink:href="#DejaVuSans-1c" transform="translate(2135.453125 0)"/>
     <use xlink:href="#DejaVuSans-1a" transform="translate(2199.078125 0)"/>
     <use xlink:href="#DejaVuSans-3" transform="translate(2262.703125 0)"/>
     <use xlink:href="#DejaVuSans-57" transform="translate(2294.484375 0)"/>
     <use xlink:href="#DejaVuSans-48" transform="translate(2333.6875 0)"/>
     <use xlink:href="#DejaVuSans-56" transform="translate(2395.21875 0)"/>
     <use xlink:href="#DejaVuSans-57" transform="translate(2447.3125 0)"/>
     <use xlink:href="#DejaVuSans-56" transform="translate(2486.515625 0)"/>
    </g>
   </g>
   <g id="text_3">
    <!-- Shared inputs: stdin or path · explicit/automatic Newick formats · quoted-name control -->
    <g transform="translate(34.229375 100.643557) scale(0.08 -0.08)">
     <defs>
      <path id="DejaVuSans-36" d="M 3425 4513 
L 3425 3897 
Q 3066 4069 2747 4153 
Q 2428 4238 2131 4238 
Q 1616 4238 1336 4038 
Q 1056 3838 1056 3469 
Q 1056 3159 1242 3001 
Q 1428 2844 1947 2747 
L 2328 2669 
Q 3034 2534 3370 2195 
Q 3706 1856 3706 1288 
Q 3706 609 3251 259 
Q 2797 -91 1919 -91 
Q 1588 -91 1214 -16 
Q 841 59 441 206 
L 441 856 
Q 825 641 1194 531 
Q 1563 422 1919 422 
Q 2459 422 2753 634 
Q 3047 847 3047 1241 
Q 3047 1584 2836 1778 
Q 2625 1972 2144 2069 
L 1759 2144 
Q 1053 2284 737 2584 
Q 422 2884 422 3419 
Q 422 4038 858 4394 
Q 1294 4750 2059 4750 
Q 2388 4750 2728 4690 
Q 3069 4631 3425 4513 
z
" transform="scale(0.015625)"/>
      <path id="DejaVuSans-4b" d="M 3513 2113 
L 3513 0 
L 2938 0 
L 2938 2094 
Q 2938 2591 2744 2837 
Q 2550 3084 2163 3084 
Q 1697 3084 1428 2787 
Q 1159 2491 1159 1978 
L 1159 0 
L 581 0 
L 581 4863 
L 1159 4863 
L 1159 2956 
Q 1366 3272 1645 3428 
Q 1925 3584 2291 3584 
Q 2894 3584 3203 3211 
Q 3513 2838 3513 2113 
z
" transform="scale(0.015625)"/>
      <path id="DejaVuSans-53" d="M 1159 525 
L 1159 -1331 
L 581 -1331 
L 581 3500 
L 1159 3500 
L 1159 2969 
Q 1341 3281 1617 3432 
Q 1894 3584 2278 3584 
Q 2916 3584 3314 3078 
Q 3713 2572 3713 1747 
Q 3713 922 3314 415 
Q 2916 -91 2278 -91 
Q 1894 -91 1617 61 
Q 1341 213 1159 525 
z
M 3116 1747 
Q 3116 2381 2855 2742 
Q 2594 3103 2138 3103 
Q 1681 3103 1420 2742 
Q 1159 2381 1159 1747 
Q 1159 1113 1420 752 
Q 1681 391 2138 391 
Q 2594 391 2855 752 
Q 3116 1113 3116 1747 
z
" transform="scale(0.015625)"/>
      <path id="DejaVuSans-1d" d="M 750 794 
L 1409 794 
L 1409 0 
L 750 0 
L 750 794 
z
M 750 3309 
L 1409 3309 
L 1409 2516 
L 750 2516 
L 750 3309 
z
" transform="scale(0.015625)"/>
      <path id="DejaVuSans-50" d="M 3328 2828 
Q 3544 3216 3844 3400 
Q 4144 3584 4550 3584 
Q 5097 3584 5394 3201 
Q 5691 2819 5691 2113 
L 5691 0 
L 5113 0 
L 5113 2094 
Q 5113 2597 4934 2840 
Q 4756 3084 4391 3084 
Q 3944 3084 3684 2787 
Q 3425 2491 3425 1978 
L 3425 0 
L 2847 0 
L 2847 2094 
Q 2847 2600 2669 2842 
Q 2491 3084 2119 3084 
Q 1678 3084 1418 2786 
Q 1159 2488 1159 1978 
L 1159 0 
L 581 0 
L 581 3500 
L 1159 3500 
L 1159 2956 
Q 1356 3278 1631 3431 
Q 1906 3584 2284 3584 
Q 2666 3584 2933 3390 
Q 3200 3197 3328 2828 
z
" transform="scale(0.015625)"/>
      <path id="DejaVuSans-54" d="M 947 1747 
Q 947 1113 1208 752 
Q 1469 391 1925 391 
Q 2381 391 2643 752 
Q 2906 1113 2906 1747 
Q 2906 2381 2643 2742 
Q 2381 3103 1925 3103 
Q 1469 3103 1208 2742 
Q 947 2381 947 1747 
z
M 2906 525 
Q 2725 213 2448 61 
Q 2172 -91 1784 -91 
Q 1150 -91 751 415 
Q 353 922 353 1747 
Q 353 2572 751 3078 
Q 1150 3584 1784 3584 
Q 2172 3584 2448 3432 
Q 2725 3281 2906 2969 
L 2906 3500 
L 3481 3500 
L 3481 -1331 
L 2906 -1331 
L 2906 525 
z
" transform="scale(0.015625)"/>
      <path id="DejaVuSans-10" d="M 313 2009 
L 1997 2009 
L 1997 1497 
L 313 1497 
L 313 2009 
z
" transform="scale(0.015625)"/>
     </defs>
     <use xlink:href="#DejaVuSans-36"/>
     <use xlink:href="#DejaVuSans-4b" transform="translate(63.484375 0)"/>
     <use xlink:href="#DejaVuSans-44" transform="translate(126.859375 0)"/>
     <use xlink:href="#DejaVuSans-55" transform="translate(188.140625 0)"/>
     <use xlink:href="#DejaVuSans-48" transform="translate(227.046875 0)"/>
     <use xlink:href="#DejaVuSans-47" transform="translate(288.578125 0)"/>
     <use xlink:href="#DejaVuSans-3" transform="translate(352.0625 0)"/>
     <use xlink:href="#DejaVuSans-4c" transform="translate(383.84375 0)"/>
     <use xlink:href="#DejaVuSans-51" transform="translate(411.625 0)"/>
     <use xlink:href="#DejaVuSans-53" transform="translate(475 0)"/>
     <use xlink:href="#DejaVuSans-58" transform="translate(538.484375 0)"/>
     <use xlink:href="#DejaVuSans-57" transform="translate(601.859375 0)"/>
     <use xlink:href="#DejaVuSans-56" transform="translate(641.0625 0)"/>
     <use xlink:href="#DejaVuSans-1d" transform="translate(693.15625 0)"/>
     <use xlink:href="#DejaVuSans-3" transform="translate(726.84375 0)"/>
     <use xlink:href="#DejaVuSans-56" transform="translate(758.625 0)"/>
     <use xlink:href="#DejaVuSans-57" transform="translate(810.71875 0)"/>
     <use xlink:href="#DejaVuSans-47" transform="translate(849.921875 0)"/>
     <use xlink:href="#DejaVuSans-4c" transform="translate(913.40625 0)"/>
     <use xlink:href="#DejaVuSans-51" transform="translate(941.1875 0)"/>
     <use xlink:href="#DejaVuSans-3" transform="translate(1004.5625 0)"/>
     <use xlink:href="#DejaVuSans-52" transform="translate(1036.34375 0)"/>
     <use xlink:href="#DejaVuSans-55" transform="translate(1097.53125 0)"/>
     <use xlink:href="#DejaVuSans-3" transform="translate(1138.640625 0)"/>
     <use xlink:href="#DejaVuSans-53" transform="translate(1170.421875 0)"/>
     <use xlink:href="#DejaVuSans-44" transform="translate(1233.90625 0)"/>
     <use xlink:href="#DejaVuSans-57" transform="translate(1295.1875 0)"/>
     <use xlink:href="#DejaVuSans-4b" transform="translate(1334.390625 0)"/>
     <use xlink:href="#DejaVuSans-3" transform="translate(1397.765625 0)"/>
     <use xlink:href="#DejaVuSans-79" transform="translate(1429.546875 0)"/>
     <use xlink:href="#DejaVuSans-3" transform="translate(1461.328125 0)"/>
     <use xlink:href="#DejaVuSans-48" transform="translate(1493.109375 0)"/>
     <use xlink:href="#DejaVuSans-5b" transform="translate(1552.890625 0)"/>
     <use xlink:href="#DejaVuSans-53" transform="translate(1612.078125 0)"/>
     <use xlink:href="#DejaVuSans-4f" transform="translate(1675.5625 0)"/>
     <use xlink:href="#DejaVuSans-4c" transform="translate(1703.34375 0)"/>
     <use xlink:href="#DejaVuSans-46" transform="translate(1731.125 0)"/>
     <use xlink:href="#DejaVuSans-4c" transform="translate(1786.109375 0)"/>
     <use xlink:href="#DejaVuSans-57" transform="translate(1813.890625 0)"/>
     <use xlink:href="#DejaVuSans-12" transform="translate(1853.09375 0)"/>
     <use xlink:href="#DejaVuSans-44" transform="translate(1886.78125 0)"/>
     <use xlink:href="#DejaVuSans-58" transform="translate(1948.0625 0)"/>
     <use xlink:href="#DejaVuSans-57" transform="translate(2011.4375 0)"/>
     <use xlink:href="#DejaVuSans-52" transform="translate(2050.640625 0)"/>
     <use xlink:href="#DejaVuSans-50" transform="translate(2111.828125 0)"/>
     <use xlink:href="#DejaVuSans-44" transform="translate(2209.234375 0)"/>
     <use xlink:href="#DejaVuSans-57" transform="translate(2270.515625 0)"/>
     <use xlink:href="#DejaVuSans-4c" transform="translate(2309.71875 0)"/>
     <use xlink:href="#DejaVuSans-46" transform="translate(2337.5 0)"/>
     <use xlink:href="#DejaVuSans-3" transform="translate(2392.484375 0)"/>
     <use xlink:href="#DejaVuSans-31" transform="translate(2424.265625 0)"/>
     <use xlink:href="#DejaVuSans-48" transform="translate(2499.078125 0)"/>
     <use xlink:href="#DejaVuSans-5a" transform="translate(2560.609375 0)"/>
     <use xlink:href="#DejaVuSans-4c" transform="translate(2642.390625 0)"/>
     <use xlink:href="#DejaVuSans-46" transform="translate(2670.171875 0)"/>
     <use xlink:href="#DejaVuSans-4e" transform="translate(2725.15625 0)"/>
     <use xlink:href="#DejaVuSans-3" transform="translate(2783.0625 0)"/>
     <use xlink:href="#DejaVuSans-49" transform="translate(2814.84375 0)"/>
     <use xlink:href="#DejaVuSans-52" transform="translate(2850.046875 0)"/>
     <use xlink:href="#DejaVuSans-55" transform="translate(2911.234375 0)"/>
     <use xlink:href="#DejaVuSans-50" transform="translate(2950.59375 0)"/>
     <use xlink:href="#DejaVuSans-44" transform="translate(3048 0)"/>
     <use xlink:href="#DejaVuSans-57" transform="translate(3109.28125 0)"/>
     <use xlink:href="#DejaVuSans-56" transform="translate(3148.484375 0)"/>
     <use xlink:href="#DejaVuSans-3" transform="translate(3200.578125 0)"/>
     <use xlink:href="#DejaVuSans-79" transform="translate(3232.359375 0)"/>
     <use xlink:href="#DejaVuSans-3" transform="translate(3264.140625 0)"/>
     <use xlink:href="#DejaVuSans-54" transform="translate(3295.921875 0)"/>
     <use xlink:href="#DejaVuSans-58" transform="translate(3359.40625 0)"/>
     <use xlink:href="#DejaVuSans-52" transform="translate(3422.78125 0)"/>
     <use xlink:href="#DejaVuSans-57" transform="translate(3483.96875 0)"/>
     <use xlink:href="#DejaVuSans-48" transform="translate(3523.171875 0)"/>
     <use xlink:href="#DejaVuSans-47" transform="translate(3584.703125 0)"/>
     <use xlink:href="#DejaVuSans-10" transform="translate(3648.1875 0)"/>
     <use xlink:href="#DejaVuSans-51" transform="translate(3684.265625 0)"/>
     <use xlink:href="#DejaVuSans-44" transform="translate(3747.640625 0)"/>
     <use xlink:href="#DejaVuSans-50" transform="translate(3808.921875 0)"/>
     <use xlink:href="#DejaVuSans-48" transform="translate(3906.328125 0)"/>
     <use xlink:href="#DejaVuSans-3" transform="translate(3967.859375 0)"/>
     <use xlink:href="#DejaVuSans-46" transform="translate(3999.640625 0)"/>
     <use xlink:href="#DejaVuSans-52" transform="translate(4054.625 0)"/>
     <use xlink:href="#DejaVuSans-51" transform="translate(4115.8125 0)"/>
     <use xlink:href="#DejaVuSans-57" transform="translate(4179.1875 0)"/>
     <use xlink:href="#DejaVuSans-55" transform="translate(4218.390625 0)"/>
     <use xlink:href="#DejaVuSans-52" transform="translate(4257.296875 0)"/>
     <use xlink:href="#DejaVuSans-4f" transform="translate(4318.484375 0)"/>
    </g>
   </g>
   <g id="text_4">
    <!-- Inspect &amp; normalize  (7) -->
    <g transform="translate(40.426013 141.941527) scale(0.075 -0.075)">
     <defs>
      <path id="DejaVuSans-2c" d="M 628 4666 
L 1259 4666 
L 1259 0 
L 628 0 
L 628 4666 
z
" transform="scale(0.015625)"/>
      <path id="DejaVuSans-9" d="M 1556 2509 
Q 1272 2256 1139 2004 
Q 1006 1753 1006 1478 
Q 1006 1022 1337 719 
Q 1669 416 2169 416 
Q 2466 416 2725 514 
Q 2984 613 3213 813 
L 1556 2509 
z
M 1997 2859 
L 3584 1234 
Q 3769 1513 3872 1830 
Q 3975 2147 3994 2503 
L 4575 2503 
Q 4538 2091 4375 1687 
Q 4213 1284 3922 891 
L 4794 0 
L 4006 0 
L 3559 459 
Q 3234 181 2878 45 
Q 2522 -91 2113 -91 
Q 1359 -91 881 339 
Q 403 769 403 1441 
Q 403 1841 612 2192 
Q 822 2544 1241 2853 
Q 1091 3050 1012 3245 
Q 934 3441 934 3628 
Q 934 4134 1281 4442 
Q 1628 4750 2203 4750 
Q 2463 4750 2720 4694 
Q 2978 4638 3244 4525 
L 3244 3956 
Q 2972 4103 2725 4179 
Q 2478 4256 2266 4256 
Q 1938 4256 1733 4082 
Q 1528 3909 1528 3634 
Q 1528 3475 1620 3314 
Q 1713 3153 1997 2859 
z
" transform="scale(0.015625)"/>
      <path id="DejaVuSans-5d" d="M 353 3500 
L 3084 3500 
L 3084 2975 
L 922 459 
L 3084 459 
L 3084 0 
L 275 0 
L 275 525 
L 2438 3041 
L 353 3041 
L 353 3500 
z
" transform="scale(0.015625)"/>
     </defs>
     <use xlink:href="#DejaVuSans-2c"/>
     <use xlink:href="#DejaVuSans-51" transform="translate(29.5 0)"/>
     <use xlink:href="#DejaVuSans-56" transform="translate(92.875 0)"/>
     <use xlink:href="#DejaVuSans-53" transform="translate(144.96875 0)"/>
     <use xlink:href="#DejaVuSans-48" transform="translate(208.453125 0)"/>
     <use xlink:href="#DejaVuSans-46" transform="translate(269.984375 0)"/>
     <use xlink:href="#DejaVuSans-57" transform="translate(324.96875 0)"/>
     <use xlink:href="#DejaVuSans-3" transform="translate(364.171875 0)"/>
     <use xlink:href="#DejaVuSans-9" transform="translate(395.953125 0)"/>
     <use xlink:href="#DejaVuSans-3" transform="translate(473.9375 0)"/>
     <use xlink:href="#DejaVuSans-51" transform="translate(505.71875 0)"/>
     <use xlink:href="#DejaVuSans-52" transform="translate(569.09375 0)"/>
     <use xlink:href="#DejaVuSans-55" transform="translate(630.28125 0)"/>
     <use xlink:href="#DejaVuSans-50" transform="translate(669.640625 0)"/>
     <use xlink:href="#DejaVuSans-44" transform="translate(767.046875 0)"/>
     <use xlink:href="#DejaVuSans-4f" transform="translate(828.328125 0)"/>
     <use xlink:href="#DejaVuSans-4c" transform="translate(856.109375 0)"/>
     <use xlink:href="#DejaVuSans-5d" transform="translate(883.890625 0)"/>
     <use xlink:href="#DejaVuSans-48" transform="translate(936.375 0)"/>
     <use xlink:href="#DejaVuSans-3" transform="translate(997.90625 0)"/>
     <use xlink:href="#DejaVuSans-3" transform="translate(1029.6875 0)"/>
     <use xlink:href="#DejaVuSans-b" transform="translate(1061.46875 0)"/>
     <use xlink:href="#DejaVuSans-1a" transform="translate(1100.484375 0)"/>
     <use xlink:href="#DejaVuSans-c" transform="translate(1164.109375 0)"/>
    </g>
    <!--  -->
    <g transform="translate(85.5432 150.942991) scale(0.075 -0.075)"/>
    <!-- validate · info · sanitize -->
    <g transform="translate(41.844567 159.945042) scale(0.075 -0.075)">
     <defs>
      <path id="DejaVuSans-59" d="M 191 3500 
L 800 3500 
L 1894 563 
L 2988 3500 
L 3597 3500 
L 2284 0 
L 1503 0 
L 191 3500 
z
" transform="scale(0.015625)"/>
     </defs>
     <use xlink:href="#DejaVuSans-59"/>
     <use xlink:href="#DejaVuSans-44" transform="translate(59.1875 0)"/>
     <use xlink:href="#DejaVuSans-4f" transform="translate(120.46875 0)"/>
     <use xlink:href="#DejaVuSans-4c" transform="translate(148.25 0)"/>
     <use xlink:href="#DejaVuSans-47" transform="translate(176.03125 0)"/>
     <use xlink:href="#DejaVuSans-44" transform="translate(239.515625 0)"/>
     <use xlink:href="#DejaVuSans-57" transform="translate(300.796875 0)"/>
     <use xlink:href="#DejaVuSans-48" transform="translate(340 0)"/>
     <use xlink:href="#DejaVuSans-3" transform="translate(401.53125 0)"/>
     <use xlink:href="#DejaVuSans-79" transform="translate(433.3125 0)"/>
     <use xlink:href="#DejaVuSans-3" transform="translate(465.09375 0)"/>
     <use xlink:href="#DejaVuSans-4c" transform="translate(496.875 0)"/>
     <use xlink:href="#DejaVuSans-51" transform="translate(524.65625 0)"/>
     <use xlink:href="#DejaVuSans-49" transform="translate(588.03125 0)"/>
     <use xlink:href="#DejaVuSans-52" transform="translate(623.234375 0)"/>
     <use xlink:href="#DejaVuSans-3" transform="translate(684.421875 0)"/>
     <use xlink:href="#DejaVuSans-79" transform="translate(716.203125 0)"/>
     <use xlink:href="#DejaVuSans-3" transform="translate(747.984375 0)"/>
     <use xlink:href="#DejaVuSans-56" transform="translate(779.765625 0)"/>
     <use xlink:href="#DejaVuSans-44" transform="translate(831.859375 0)"/>
     <use xlink:href="#DejaVuSans-51" transform="translate(893.140625 0)"/>
     <use xlink:href="#DejaVuSans-4c" transform="translate(956.515625 0)"/>
     <use xlink:href="#DejaVuSans-57" transform="translate(984.296875 0)"/>
     <use xlink:href="#DejaVuSans-4c" transform="translate(1023.5 0)"/>
     <use xlink:href="#DejaVuSans-5d" transform="translate(1051.28125 0)"/>
     <use xlink:href="#DejaVuSans-48" transform="translate(1103.765625 0)"/>
    </g>
    <!-- nwk2table · table2nwk -->
    <g transform="translate(42.970153 168.947093) scale(0.075 -0.075)">
     <use xlink:href="#DejaVuSans-51"/>
     <use xlink:href="#DejaVuSans-5a" transform="translate(63.375 0)"/>
     <use xlink:href="#DejaVuSans-4e" transform="translate(145.15625 0)"/>
     <use xlink:href="#DejaVuSans-15" transform="translate(203.0625 0)"/>
     <use xlink:href="#DejaVuSans-57" transform="translate(266.6875 0)"/>
     <use xlink:href="#DejaVuSans-44" transform="translate(305.890625 0)"/>
     <use xlink:href="#DejaVuSans-45" transform="translate(367.171875 0)"/>
     <use xlink:href="#DejaVuSans-4f" transform="translate(430.65625 0)"/>
     <use xlink:href="#DejaVuSans-48" transform="translate(458.4375 0)"/>
     <use xlink:href="#DejaVuSans-3" transform="translate(519.96875 0)"/>
     <use xlink:href="#DejaVuSans-79" transform="translate(551.75 0)"/>
     <use xlink:href="#DejaVuSans-3" transform="translate(583.53125 0)"/>
     <use xlink:href="#DejaVuSans-57" transform="translate(615.3125 0)"/>
     <use xlink:href="#DejaVuSans-44" transform="translate(654.515625 0)"/>
     <use xlink:href="#DejaVuSans-45" transform="translate(715.796875 0)"/>
     <use xlink:href="#DejaVuSans-4f" transform="translate(779.28125 0)"/>
     <use xlink:href="#DejaVuSans-48" transform="translate(807.0625 0)"/>
     <use xlink:href="#DejaVuSans-15" transform="translate(868.59375 0)"/>
     <use xlink:href="#DejaVuSans-51" transform="translate(932.21875 0)"/>
     <use xlink:href="#DejaVuSans-5a" transform="translate(995.59375 0)"/>
     <use xlink:href="#DejaVuSans-4e" transform="translate(1077.375 0)"/>
    </g>
    <!-- nhx2nwk · printlabel -->
    <g transform="translate(47.113903 177.949144) scale(0.075 -0.075)">
     <use xlink:href="#DejaVuSans-51"/>
     <use xlink:href="#DejaVuSans-4b" transform="translate(63.375 0)"/>
     <use xlink:href="#DejaVuSans-5b" transform="translate(126.75 0)"/>
     <use xlink:href="#DejaVuSans-15" transform="translate(185.9375 0)"/>
     <use xlink:href="#DejaVuSans-51" transform="translate(249.5625 0)"/>
     <use xlink:href="#DejaVuSans-5a" transform="translate(312.9375 0)"/>
     <use xlink:href="#DejaVuSans-4e" transform="translate(394.71875 0)"/>
     <use xlink:href="#DejaVuSans-3" transform="translate(452.625 0)"/>
     <use xlink:href="#DejaVuSans-79" transform="translate(484.40625 0)"/>
     <use xlink:href="#DejaVuSans-3" transform="translate(516.1875 0)"/>
     <use xlink:href="#DejaVuSans-53" transform="translate(547.96875 0)"/>
     <use xlink:href="#DejaVuSans-55" transform="translate(611.453125 0)"/>
     <use xlink:href="#DejaVuSans-4c" transform="translate(652.5625 0)"/>
     <use xlink:href="#DejaVuSans-51" transform="translate(680.34375 0)"/>
     <use xlink:href="#DejaVuSans-57" transform="translate(743.71875 0)"/>
     <use xlink:href="#DejaVuSans-4f" transform="translate(782.921875 0)"/>
     <use xlink:href="#DejaVuSans-44" transform="translate(810.703125 0)"/>
     <use xlink:href="#DejaVuSans-45" transform="translate(871.984375 0)"/>
     <use xlink:href="#DejaVuSans-48" transform="translate(935.46875 0)"/>
     <use xlink:href="#DejaVuSans-4f" transform="translate(997 0)"/>
    </g>
   </g>
   <g id="text_5">
    <!-- Transform  (12) -->
    <g transform="translate(179.346211 137.440501) scale(0.075 -0.075)">
     <defs>
      <path id="DejaVuSans-37" d="M -19 4666 
L 3928 4666 
L 3928 4134 
L 2272 4134 
L 2272 0 
L 1638 0 
L 1638 4134 
L -19 4134 
L -19 4666 
z
" transform="scale(0.015625)"/>
      <path id="DejaVuSans-14" d="M 794 531 
L 1825 531 
L 1825 4091 
L 703 3866 
L 703 4441 
L 1819 4666 
L 2450 4666 
L 2450 531 
L 3481 531 
L 3481 0 
L 794 0 
L 794 531 
z
" transform="scale(0.015625)"/>
     </defs>
     <use xlink:href="#DejaVuSans-37"/>
     <use xlink:href="#DejaVuSans-55" transform="translate(46.375 0)"/>
     <use xlink:href="#DejaVuSans-44" transform="translate(87.484375 0)"/>
     <use xlink:href="#DejaVuSans-51" transform="translate(148.765625 0)"/>
     <use xlink:href="#DejaVuSans-56" transform="translate(212.140625 0)"/>
     <use xlink:href="#DejaVuSans-49" transform="translate(264.234375 0)"/>
     <use xlink:href="#DejaVuSans-52" transform="translate(299.4375 0)"/>
     <use xlink:href="#DejaVuSans-55" transform="translate(360.625 0)"/>
     <use xlink:href="#DejaVuSans-50" transform="translate(399.984375 0)"/>
     <use xlink:href="#DejaVuSans-3" transform="translate(497.390625 0)"/>
     <use xlink:href="#DejaVuSans-3" transform="translate(529.171875 0)"/>
     <use xlink:href="#DejaVuSans-b" transform="translate(560.953125 0)"/>
     <use xlink:href="#DejaVuSans-14" transform="translate(599.96875 0)"/>
     <use xlink:href="#DejaVuSans-15" transform="translate(663.59375 0)"/>
     <use xlink:href="#DejaVuSans-c" transform="translate(727.21875 0)"/>
    </g>
    <!--  -->
    <g transform="translate(208.08 146.441966) scale(0.075 -0.075)"/>
    <!-- collapse · drop · intersection -->
    <g transform="translate(154.791328 155.444017) scale(0.075 -0.075)">
     <use xlink:href="#DejaVuSans-46"/>
     <use xlink:href="#DejaVuSans-52" transform="translate(54.984375 0)"/>
     <use xlink:href="#DejaVuSans-4f" transform="translate(116.171875 0)"/>
     <use xlink:href="#DejaVuSans-4f" transform="translate(143.953125 0)"/>
     <use xlink:href="#DejaVuSans-44" transform="translate(171.734375 0)"/>
     <use xlink:href="#DejaVuSans-53" transform="translate(233.015625 0)"/>
     <use xlink:href="#DejaVuSans-56" transform="translate(296.5 0)"/>
     <use xlink:href="#DejaVuSans-48" transform="translate(348.59375 0)"/>
     <use xlink:href="#DejaVuSans-3" transform="translate(410.125 0)"/>
     <use xlink:href="#DejaVuSans-79" transform="translate(441.90625 0)"/>
     <use xlink:href="#DejaVuSans-3" transform="translate(473.6875 0)"/>
     <use xlink:href="#DejaVuSans-47" transform="translate(505.46875 0)"/>
     <use xlink:href="#DejaVuSans-55" transform="translate(568.953125 0)"/>
     <use xlink:href="#DejaVuSans-52" transform="translate(607.859375 0)"/>
     <use xlink:href="#DejaVuSans-53" transform="translate(669.046875 0)"/>
     <use xlink:href="#DejaVuSans-3" transform="translate(732.53125 0)"/>
     <use xlink:href="#DejaVuSans-79" transform="translate(764.3125 0)"/>
     <use xlink:href="#DejaVuSans-3" transform="translate(796.09375 0)"/>
     <use xlink:href="#DejaVuSans-4c" transform="translate(827.875 0)"/>
     <use xlink:href="#DejaVuSans-51" transform="translate(855.65625 0)"/>
     <use xlink:href="#DejaVuSans-57" transform="translate(919.03125 0)"/>
     <use xlink:href="#DejaVuSans-48" transform="translate(958.234375 0)"/>
     <use xlink:href="#DejaVuSans-55" transform="translate(1019.765625 0)"/>
     <use xlink:href="#DejaVuSans-56" transform="translate(1060.875 0)"/>
     <use xlink:href="#DejaVuSans-48" transform="translate(1112.96875 0)"/>
     <use xlink:href="#DejaVuSans-46" transform="translate(1174.5 0)"/>
     <use xlink:href="#DejaVuSans-57" transform="translate(1229.484375 0)"/>
     <use xlink:href="#DejaVuSans-4c" transform="translate(1268.6875 0)"/>
     <use xlink:href="#DejaVuSans-52" transform="translate(1296.46875 0)"/>
     <use xlink:href="#DejaVuSans-51" transform="translate(1357.65625 0)"/>
    </g>
    <!-- label · mark · prune · rename -->
    <g transform="translate(153.23625 164.446068) scale(0.075 -0.075)">
     <use xlink:href="#DejaVuSans-4f"/>
     <use xlink:href="#DejaVuSans-44" transform="translate(27.78125 0)"/>
     <use xlink:href="#DejaVuSans-45" transform="translate(89.0625 0)"/>
     <use xlink:href="#DejaVuSans-48" transform="translate(152.546875 0)"/>
     <use xlink:href="#DejaVuSans-4f" transform="translate(214.078125 0)"/>
     <use xlink:href="#DejaVuSans-3" transform="translate(241.859375 0)"/>
     <use xlink:href="#DejaVuSans-79" transform="translate(273.640625 0)"/>
     <use xlink:href="#DejaVuSans-3" transform="translate(305.421875 0)"/>
     <use xlink:href="#DejaVuSans-50" transform="translate(337.203125 0)"/>
     <use xlink:href="#DejaVuSans-44" transform="translate(434.609375 0)"/>
     <use xlink:href="#DejaVuSans-55" transform="translate(495.890625 0)"/>
     <use xlink:href="#DejaVuSans-4e" transform="translate(537 0)"/>
     <use xlink:href="#DejaVuSans-3" transform="translate(594.90625 0)"/>
     <use xlink:href="#DejaVuSans-79" transform="translate(626.6875 0)"/>
     <use xlink:href="#DejaVuSans-3" transform="translate(658.46875 0)"/>
     <use xlink:href="#DejaVuSans-53" transform="translate(690.25 0)"/>
     <use xlink:href="#DejaVuSans-55" transform="translate(753.734375 0)"/>
     <use xlink:href="#DejaVuSans-58" transform="translate(794.84375 0)"/>
     <use xlink:href="#DejaVuSans-51" transform="translate(858.21875 0)"/>
     <use xlink:href="#DejaVuSans-48" transform="translate(921.59375 0)"/>
     <use xlink:href="#DejaVuSans-3" transform="translate(983.125 0)"/>
     <use xlink:href="#DejaVuSans-79" transform="translate(1014.90625 0)"/>
     <use xlink:href="#DejaVuSans-3" transform="translate(1046.6875 0)"/>
     <use xlink:href="#DejaVuSans-55" transform="translate(1078.46875 0)"/>
     <use xlink:href="#DejaVuSans-48" transform="translate(1117.375 0)"/>
     <use xlink:href="#DejaVuSans-51" transform="translate(1178.90625 0)"/>
     <use xlink:href="#DejaVuSans-44" transform="translate(1242.28125 0)"/>
     <use xlink:href="#DejaVuSans-50" transform="translate(1303.5625 0)"/>
     <use xlink:href="#DejaVuSans-48" transform="translate(1400.96875 0)"/>
    </g>
    <!-- rescale · root · shuffle -->
    <g transform="translate(167.342109 173.448118) scale(0.075 -0.075)">
     <defs>
      <path id="DejaVuSans-13b2" d="M 2375 4863 
L 2375 4384 
L 1825 4384 
Q 1516 4384 1394 4259 
Q 1275 4134 1275 3809 
L 1275 3500 
L 2853 3500 
L 2853 3744 
Q 2853 4328 3125 4595 
Q 3397 4863 3988 4863 
L 5588 4863 
L 5588 0 
L 5009 0 
L 5009 4384 
L 3981 4384 
Q 3672 4384 3551 4259 
Q 3431 4134 3431 3809 
L 3431 3500 
L 4378 3500 
L 4378 3053 
L 3431 3053 
L 3431 0 
L 2853 0 
L 2853 3053 
L 1275 3053 
L 1275 0 
L 697 0 
L 697 3053 
L 147 3053 
L 147 3500 
L 697 3500 
L 697 3744 
Q 697 4328 969 4595 
Q 1241 4863 1831 4863 
L 2375 4863 
z
" transform="scale(0.015625)"/>
     </defs>
     <use xlink:href="#DejaVuSans-55"/>
     <use xlink:href="#DejaVuSans-48" transform="translate(38.90625 0)"/>
     <use xlink:href="#DejaVuSans-56" transform="translate(100.4375 0)"/>
     <use xlink:href="#DejaVuSans-46" transform="translate(152.53125 0)"/>
     <use xlink:href="#DejaVuSans-44" transform="translate(207.515625 0)"/>
     <use xlink:href="#DejaVuSans-4f" transform="translate(268.796875 0)"/>
     <use xlink:href="#DejaVuSans-48" transform="translate(296.578125 0)"/>
     <use xlink:href="#DejaVuSans-3" transform="translate(358.109375 0)"/>
     <use xlink:href="#DejaVuSans-79" transform="translate(389.890625 0)"/>
     <use xlink:href="#DejaVuSans-3" transform="translate(421.671875 0)"/>
     <use xlink:href="#DejaVuSans-55" transform="translate(453.453125 0)"/>
     <use xlink:href="#DejaVuSans-52" transform="translate(492.359375 0)"/>
     <use xlink:href="#DejaVuSans-52" transform="translate(553.546875 0)"/>
     <use xlink:href="#DejaVuSans-57" transform="translate(614.734375 0)"/>
     <use xlink:href="#DejaVuSans-3" transform="translate(653.9375 0)"/>
     <use xlink:href="#DejaVuSans-79" transform="translate(685.71875 0)"/>
     <use xlink:href="#DejaVuSans-3" transform="translate(717.5 0)"/>
     <use xlink:href="#DejaVuSans-56" transform="translate(749.28125 0)"/>
     <use xlink:href="#DejaVuSans-4b" transform="translate(801.375 0)"/>
     <use xlink:href="#DejaVuSans-58" transform="translate(864.75 0)"/>
     <use xlink:href="#DejaVuSans-13b2" transform="translate(928.125 0)"/>
     <use xlink:href="#DejaVuSans-48" transform="translate(1024.8125 0)"/>
    </g>
    <!-- subtree · transfer -->
    <g transform="translate(175.440938 182.450169) scale(0.075 -0.075)">
     <use xlink:href="#DejaVuSans-56"/>
     <use xlink:href="#DejaVuSans-58" transform="translate(52.09375 0)"/>
     <use xlink:href="#DejaVuSans-45" transform="translate(115.46875 0)"/>
     <use xlink:href="#DejaVuSans-57" transform="translate(178.953125 0)"/>
     <use xlink:href="#DejaVuSans-55" transform="translate(218.15625 0)"/>
     <use xlink:href="#DejaVuSans-48" transform="translate(257.0625 0)"/>
     <use xlink:href="#DejaVuSans-48" transform="translate(318.59375 0)"/>
     <use xlink:href="#DejaVuSans-3" transform="translate(380.125 0)"/>
     <use xlink:href="#DejaVuSans-79" transform="translate(411.90625 0)"/>
     <use xlink:href="#DejaVuSans-3" transform="translate(443.6875 0)"/>
     <use xlink:href="#DejaVuSans-57" transform="translate(475.46875 0)"/>
     <use xlink:href="#DejaVuSans-55" transform="translate(514.671875 0)"/>
     <use xlink:href="#DejaVuSans-44" transform="translate(555.78125 0)"/>
     <use xlink:href="#DejaVuSans-51" transform="translate(617.0625 0)"/>
     <use xlink:href="#DejaVuSans-56" transform="translate(680.4375 0)"/>
     <use xlink:href="#DejaVuSans-49" transform="translate(732.53125 0)"/>
     <use xlink:href="#DejaVuSans-48" transform="translate(767.734375 0)"/>
     <use xlink:href="#DejaVuSans-55" transform="translate(829.265625 0)"/>
    </g>
   </g>
   <g id="text_6">
    <!-- Summarize tree sets  (3) -->
    <g transform="translate(284.089261 141.94182) scale(0.075 -0.075)">
     <use xlink:href="#DejaVuSans-36"/>
     <use xlink:href="#DejaVuSans-58" transform="translate(63.484375 0)"/>
     <use xlink:href="#DejaVuSans-50" transform="translate(126.859375 0)"/>
     <use xlink:href="#DejaVuSans-50" transform="translate(224.265625 0)"/>
     <use xlink:href="#DejaVuSans-44" transform="translate(321.671875 0)"/>
     <use xlink:href="#DejaVuSans-55" transform="translate(382.953125 0)"/>
     <use xlink:href="#DejaVuSans-4c" transform="translate(424.0625 0)"/>
     <use xlink:href="#DejaVuSans-5d" transform="translate(451.84375 0)"/>
     <use xlink:href="#DejaVuSans-48" transform="translate(504.328125 0)"/>
     <use xlink:href="#DejaVuSans-3" transform="translate(565.859375 0)"/>
     <use xlink:href="#DejaVuSans-57" transform="translate(597.640625 0)"/>
     <use xlink:href="#DejaVuSans-55" transform="translate(636.84375 0)"/>
     <use xlink:href="#DejaVuSans-48" transform="translate(675.75 0)"/>
     <use xlink:href="#DejaVuSans-48" transform="translate(737.28125 0)"/>
     <use xlink:href="#DejaVuSans-3" transform="translate(798.8125 0)"/>
     <use xlink:href="#DejaVuSans-56" transform="translate(830.59375 0)"/>
     <use xlink:href="#DejaVuSans-48" transform="translate(882.6875 0)"/>
     <use xlink:href="#DejaVuSans-57" transform="translate(944.21875 0)"/>
     <use xlink:href="#DejaVuSans-56" transform="translate(983.421875 0)"/>
     <use xlink:href="#DejaVuSans-3" transform="translate(1035.515625 0)"/>
     <use xlink:href="#DejaVuSans-3" transform="translate(1067.296875 0)"/>
     <use xlink:href="#DejaVuSans-b" transform="translate(1099.078125 0)"/>
     <use xlink:href="#DejaVuSans-16" transform="translate(1138.09375 0)"/>
     <use xlink:href="#DejaVuSans-c" transform="translate(1201.71875 0)"/>
    </g>
    <!--  -->
    <g transform="translate(330.6168 150.943284) scale(0.075 -0.075)"/>
    <!-- dist -->
    <g transform="translate(323.770706 159.945335) scale(0.075 -0.075)">
     <use xlink:href="#DejaVuSans-47"/>
     <use xlink:href="#DejaVuSans-4c" transform="translate(63.484375 0)"/>
     <use xlink:href="#DejaVuSans-56" transform="translate(91.265625 0)"/>
     <use xlink:href="#DejaVuSans-57" transform="translate(143.359375 0)"/>
    </g>
    <!-- cladefreq -->
    <g transform="translate(313.059769 168.947386) scale(0.075 -0.075)">
     <use xlink:href="#DejaVuSans-46"/>
     <use xlink:href="#DejaVuSans-4f" transform="translate(54.984375 0)"/>
     <use xlink:href="#DejaVuSans-44" transform="translate(82.765625 0)"/>
     <use xlink:href="#DejaVuSans-47" transform="translate(144.046875 0)"/>
     <use xlink:href="#DejaVuSans-48" transform="translate(207.53125 0)"/>
     <use xlink:href="#DejaVuSans-49" transform="translate(269.0625 0)"/>
     <use xlink:href="#DejaVuSans-55" transform="translate(304.265625 0)"/>
     <use xlink:href="#DejaVuSans-48" transform="translate(343.171875 0)"/>
     <use xlink:href="#DejaVuSans-54" transform="translate(404.703125 0)"/>
    </g>
    <!-- consensus -->
    <g transform="translate(310.962698 177.948851) scale(0.075 -0.075)">
     <use xlink:href="#DejaVuSans-46"/>
     <use xlink:href="#DejaVuSans-52" transform="translate(54.984375 0)"/>
     <use xlink:href="#DejaVuSans-51" transform="translate(116.171875 0)"/>
     <use xlink:href="#DejaVuSans-56" transform="translate(179.546875 0)"/>
     <use xlink:href="#DejaVuSans-48" transform="translate(231.640625 0)"/>
     <use xlink:href="#DejaVuSans-51" transform="translate(293.171875 0)"/>
     <use xlink:href="#DejaVuSans-56" transform="translate(356.546875 0)"/>
     <use xlink:href="#DejaVuSans-58" transform="translate(408.640625 0)"/>
     <use xlink:href="#DejaVuSans-56" transform="translate(472.015625 0)"/>
    </g>
   </g>
   <g id="text_7">
    <!-- Use taxonomy &amp; traits  (4) -->
    <g transform="translate(94.112072 231.598392) scale(0.075 -0.075)">
     <defs>
      <path id="DejaVuSans-38" d="M 556 4666 
L 1191 4666 
L 1191 1831 
Q 1191 1081 1462 751 
Q 1734 422 2344 422 
Q 2950 422 3222 751 
Q 3494 1081 3494 1831 
L 3494 4666 
L 4128 4666 
L 4128 1753 
Q 4128 841 3676 375 
Q 3225 -91 2344 -91 
Q 1459 -91 1007 375 
Q 556 841 556 1753 
L 556 4666 
z
" transform="scale(0.015625)"/>
      <path id="DejaVuSans-5c" d="M 2059 -325 
Q 1816 -950 1584 -1140 
Q 1353 -1331 966 -1331 
L 506 -1331 
L 506 -850 
L 844 -850 
Q 1081 -850 1212 -737 
Q 1344 -625 1503 -206 
L 1606 56 
L 191 3500 
L 800 3500 
L 1894 763 
L 2988 3500 
L 3597 3500 
L 2059 -325 
z
" transform="scale(0.015625)"/>
      <path id="DejaVuSans-17" d="M 2419 4116 
L 825 1625 
L 2419 1625 
L 2419 4116 
z
M 2253 4666 
L 3047 4666 
L 3047 1625 
L 3713 1625 
L 3713 1100 
L 3047 1100 
L 3047 0 
L 2419 0 
L 2419 1100 
L 313 1100 
L 313 1709 
L 2253 4666 
z
" transform="scale(0.015625)"/>
     </defs>
     <use xlink:href="#DejaVuSans-38"/>
     <use xlink:href="#DejaVuSans-56" transform="translate(73.1875 0)"/>
     <use xlink:href="#DejaVuSans-48" transform="translate(125.28125 0)"/>
     <use xlink:href="#DejaVuSans-3" transform="translate(186.8125 0)"/>
     <use xlink:href="#DejaVuSans-57" transform="translate(218.59375 0)"/>
     <use xlink:href="#DejaVuSans-44" transform="translate(257.796875 0)"/>
     <use xlink:href="#DejaVuSans-5b" transform="translate(319.078125 0)"/>
     <use xlink:href="#DejaVuSans-52" transform="translate(375.1875 0)"/>
     <use xlink:href="#DejaVuSans-51" transform="translate(436.375 0)"/>
     <use xlink:href="#DejaVuSans-52" transform="translate(499.75 0)"/>
     <use xlink:href="#DejaVuSans-50" transform="translate(560.9375 0)"/>
     <use xlink:href="#DejaVuSans-5c" transform="translate(658.34375 0)"/>
     <use xlink:href="#DejaVuSans-3" transform="translate(717.53125 0)"/>
     <use xlink:href="#DejaVuSans-9" transform="translate(749.3125 0)"/>
     <use xlink:href="#DejaVuSans-3" transform="translate(827.296875 0)"/>
     <use xlink:href="#DejaVuSans-57" transform="translate(859.078125 0)"/>
     <use xlink:href="#DejaVuSans-55" transform="translate(898.28125 0)"/>
     <use xlink:href="#DejaVuSans-44" transform="translate(939.390625 0)"/>
     <use xlink:href="#DejaVuSans-4c" transform="translate(1000.671875 0)"/>
     <use xlink:href="#DejaVuSans-57" transform="translate(1028.453125 0)"/>
     <use xlink:href="#DejaVuSans-56" transform="translate(1067.65625 0)"/>
     <use xlink:href="#DejaVuSans-3" transform="translate(1119.75 0)"/>
     <use xlink:href="#DejaVuSans-3" transform="translate(1151.53125 0)"/>
     <use xlink:href="#DejaVuSans-b" transform="translate(1183.3125 0)"/>
     <use xlink:href="#DejaVuSans-17" transform="translate(1222.328125 0)"/>
     <use xlink:href="#DejaVuSans-c" transform="translate(1285.953125 0)"/>
    </g>
    <!--  -->
    <g transform="translate(143.7984 240.599857) scale(0.075 -0.075)"/>
    <!-- constrain · monophyly -->
    <g transform="translate(101.951916 249.601908) scale(0.075 -0.075)">
     <use xlink:href="#DejaVuSans-46"/>
     <use xlink:href="#DejaVuSans-52" transform="translate(54.984375 0)"/>
     <use xlink:href="#DejaVuSans-51" transform="translate(116.171875 0)"/>
     <use xlink:href="#DejaVuSans-56" transform="translate(179.546875 0)"/>
     <use xlink:href="#DejaVuSans-57" transform="translate(231.640625 0)"/>
     <use xlink:href="#DejaVuSans-55" transform="translate(270.84375 0)"/>
     <use xlink:href="#DejaVuSans-44" transform="translate(311.953125 0)"/>
     <use xlink:href="#DejaVuSans-4c" transform="translate(373.234375 0)"/>
     <use xlink:href="#DejaVuSans-51" transform="translate(401.015625 0)"/>
     <use xlink:href="#DejaVuSans-3" transform="translate(464.390625 0)"/>
     <use xlink:href="#DejaVuSans-79" transform="translate(496.171875 0)"/>
     <use xlink:href="#DejaVuSans-3" transform="translate(527.953125 0)"/>
     <use xlink:href="#DejaVuSans-50" transform="translate(559.734375 0)"/>
     <use xlink:href="#DejaVuSans-52" transform="translate(657.140625 0)"/>
     <use xlink:href="#DejaVuSans-51" transform="translate(718.328125 0)"/>
     <use xlink:href="#DejaVuSans-52" transform="translate(781.703125 0)"/>
     <use xlink:href="#DejaVuSans-53" transform="translate(842.890625 0)"/>
     <use xlink:href="#DejaVuSans-4b" transform="translate(906.375 0)"/>
     <use xlink:href="#DejaVuSans-5c" transform="translate(969.75 0)"/>
     <use xlink:href="#DejaVuSans-4f" transform="translate(1028.9375 0)"/>
     <use xlink:href="#DejaVuSans-5c" transform="translate(1056.71875 0)"/>
    </g>
    <!-- sample · skim -->
    <g transform="translate(117.769298 258.603958) scale(0.075 -0.075)">
     <use xlink:href="#DejaVuSans-56"/>
     <use xlink:href="#DejaVuSans-44" transform="translate(52.09375 0)"/>
     <use xlink:href="#DejaVuSans-50" transform="translate(113.375 0)"/>
     <use xlink:href="#DejaVuSans-53" transform="translate(210.78125 0)"/>
     <use xlink:href="#DejaVuSans-4f" transform="translate(274.265625 0)"/>
     <use xlink:href="#DejaVuSans-48" transform="translate(302.046875 0)"/>
     <use xlink:href="#DejaVuSans-3" transform="translate(363.578125 0)"/>
     <use xlink:href="#DejaVuSans-79" transform="translate(395.359375 0)"/>
     <use xlink:href="#DejaVuSans-3" transform="translate(427.140625 0)"/>
     <use xlink:href="#DejaVuSans-56" transform="translate(458.921875 0)"/>
     <use xlink:href="#DejaVuSans-4e" transform="translate(511.015625 0)"/>
     <use xlink:href="#DejaVuSans-4c" transform="translate(568.921875 0)"/>
     <use xlink:href="#DejaVuSans-50" transform="translate(596.703125 0)"/>
    </g>
   </g>
   <g id="text_8">
    <!-- Analyze &amp; present  (4) -->
    <g transform="translate(230.326444 231.598685) scale(0.075 -0.075)">
     <defs>
      <path id="DejaVuSans-24" d="M 2188 4044 
L 1331 1722 
L 3047 1722 
L 2188 4044 
z
M 1831 4666 
L 2547 4666 
L 4325 0 
L 3669 0 
L 3244 1197 
L 1141 1197 
L 716 0 
L 50 0 
L 1831 4666 
z
" transform="scale(0.015625)"/>
     </defs>
     <use xlink:href="#DejaVuSans-24"/>
     <use xlink:href="#DejaVuSans-51" transform="translate(68.40625 0)"/>
     <use xlink:href="#DejaVuSans-44" transform="translate(131.78125 0)"/>
     <use xlink:href="#DejaVuSans-4f" transform="translate(193.0625 0)"/>
     <use xlink:href="#DejaVuSans-5c" transform="translate(220.84375 0)"/>
     <use xlink:href="#DejaVuSans-5d" transform="translate(280.03125 0)"/>
     <use xlink:href="#DejaVuSans-48" transform="translate(332.515625 0)"/>
     <use xlink:href="#DejaVuSans-3" transform="translate(394.046875 0)"/>
     <use xlink:href="#DejaVuSans-9" transform="translate(425.828125 0)"/>
     <use xlink:href="#DejaVuSans-3" transform="translate(503.8125 0)"/>
     <use xlink:href="#DejaVuSans-53" transform="translate(535.59375 0)"/>
     <use xlink:href="#DejaVuSans-55" transform="translate(599.078125 0)"/>
     <use xlink:href="#DejaVuSans-48" transform="translate(637.984375 0)"/>
     <use xlink:href="#DejaVuSans-56" transform="translate(699.515625 0)"/>
     <use xlink:href="#DejaVuSans-48" transform="translate(751.609375 0)"/>
     <use xlink:href="#DejaVuSans-51" transform="translate(813.140625 0)"/>
     <use xlink:href="#DejaVuSans-57" transform="translate(876.515625 0)"/>
     <use xlink:href="#DejaVuSans-3" transform="translate(915.71875 0)"/>
     <use xlink:href="#DejaVuSans-3" transform="translate(947.5 0)"/>
     <use xlink:href="#DejaVuSans-b" transform="translate(979.28125 0)"/>
     <use xlink:href="#DejaVuSans-17" transform="translate(1018.296875 0)"/>
     <use xlink:href="#DejaVuSans-c" transform="translate(1081.921875 0)"/>
    </g>
    <!--  -->
    <g transform="translate(272.3616 240.60015) scale(0.075 -0.075)"/>
    <!-- asr · mcmctree -->
    <g transform="translate(244.019803 249.601615) scale(0.075 -0.075)">
     <use xlink:href="#DejaVuSans-44"/>
     <use xlink:href="#DejaVuSans-56" transform="translate(61.28125 0)"/>
     <use xlink:href="#DejaVuSans-55" transform="translate(113.375 0)"/>
     <use xlink:href="#DejaVuSans-3" transform="translate(154.484375 0)"/>
     <use xlink:href="#DejaVuSans-79" transform="translate(186.265625 0)"/>
     <use xlink:href="#DejaVuSans-3" transform="translate(218.046875 0)"/>
     <use xlink:href="#DejaVuSans-50" transform="translate(249.828125 0)"/>
     <use xlink:href="#DejaVuSans-46" transform="translate(347.234375 0)"/>
     <use xlink:href="#DejaVuSans-50" transform="translate(402.21875 0)"/>
     <use xlink:href="#DejaVuSans-46" transform="translate(499.625 0)"/>
     <use xlink:href="#DejaVuSans-57" transform="translate(554.609375 0)"/>
     <use xlink:href="#DejaVuSans-55" transform="translate(593.8125 0)"/>
     <use xlink:href="#DejaVuSans-48" transform="translate(632.71875 0)"/>
     <use xlink:href="#DejaVuSans-48" transform="translate(694.25 0)"/>
    </g>
    <!-- draw · image -->
    <g transform="translate(247.818436 258.603665) scale(0.075 -0.075)">
     <defs>
      <path id="DejaVuSans-4a" d="M 2906 1791 
Q 2906 2416 2648 2759 
Q 2391 3103 1925 3103 
Q 1463 3103 1205 2759 
Q 947 2416 947 1791 
Q 947 1169 1205 825 
Q 1463 481 1925 481 
Q 2391 481 2648 825 
Q 2906 1169 2906 1791 
z
M 3481 434 
Q 3481 -459 3084 -895 
Q 2688 -1331 1869 -1331 
Q 1566 -1331 1297 -1286 
Q 1028 -1241 775 -1147 
L 775 -588 
Q 1028 -725 1275 -790 
Q 1522 -856 1778 -856 
Q 2344 -856 2625 -561 
Q 2906 -266 2906 331 
L 2906 616 
Q 2728 306 2450 153 
Q 2172 0 1784 0 
Q 1141 0 747 490 
Q 353 981 353 1791 
Q 353 2603 747 3093 
Q 1141 3584 1784 3584 
Q 2172 3584 2450 3431 
Q 2728 3278 2906 2969 
L 2906 3500 
L 3481 3500 
L 3481 434 
z
" transform="scale(0.015625)"/>
     </defs>
     <use xlink:href="#DejaVuSans-47"/>
     <use xlink:href="#DejaVuSans-55" transform="translate(63.484375 0)"/>
     <use xlink:href="#DejaVuSans-44" transform="translate(104.59375 0)"/>
     <use xlink:href="#DejaVuSans-5a" transform="translate(165.875 0)"/>
     <use xlink:href="#DejaVuSans-3" transform="translate(247.65625 0)"/>
     <use xlink:href="#DejaVuSans-79" transform="translate(279.4375 0)"/>
     <use xlink:href="#DejaVuSans-3" transform="translate(311.21875 0)"/>
     <use xlink:href="#DejaVuSans-4c" transform="translate(343 0)"/>
     <use xlink:href="#DejaVuSans-50" transform="translate(370.78125 0)"/>
     <use xlink:href="#DejaVuSans-44" transform="translate(468.1875 0)"/>
     <use xlink:href="#DejaVuSans-4a" transform="translate(529.46875 0)"/>
     <use xlink:href="#DejaVuSans-48" transform="translate(592.953125 0)"/>
    </g>
   </g>
   <g id="text_9">
    <!-- Shared outputs: stdout or path · documented table fields · explicit stochastic seeds -->
    <g transform="translate(47.595758 309.907056) scale(0.077 -0.077)">
     <defs>
      <path id="DejaVuSans-13af" d="M 3431 3500 
L 3431 0 
L 2853 0 
L 2853 3053 
L 1275 3053 
L 1275 0 
L 697 0 
L 697 3053 
L 147 3053 
L 147 3500 
L 697 3500 
L 697 3744 
Q 697 4316 967 4589 
Q 1238 4863 1797 4863 
L 2375 4863 
L 2375 4384 
L 1825 4384 
Q 1516 4384 1395 4259 
Q 1275 4134 1275 3809 
L 1275 3500 
L 3431 3500 
z
M 2853 4856 
L 3431 4856 
L 3431 4128 
L 2853 4128 
L 2853 4856 
z
" transform="scale(0.015625)"/>
     </defs>
     <use xlink:href="#DejaVuSans-36"/>
     <use xlink:href="#DejaVuSans-4b" transform="translate(63.484375 0)"/>
     <use xlink:href="#DejaVuSans-44" transform="translate(126.859375 0)"/>
     <use xlink:href="#DejaVuSans-55" transform="translate(188.140625 0)"/>
     <use xlink:href="#DejaVuSans-48" transform="translate(227.046875 0)"/>
     <use xlink:href="#DejaVuSans-47" transform="translate(288.578125 0)"/>
     <use xlink:href="#DejaVuSans-3" transform="translate(352.0625 0)"/>
     <use xlink:href="#DejaVuSans-52" transform="translate(383.84375 0)"/>
     <use xlink:href="#DejaVuSans-58" transform="translate(445.03125 0)"/>
     <use xlink:href="#DejaVuSans-57" transform="translate(508.40625 0)"/>
     <use xlink:href="#DejaVuSans-53" transform="translate(547.609375 0)"/>
     <use xlink:href="#DejaVuSans-58" transform="translate(611.09375 0)"/>
     <use xlink:href="#DejaVuSans-57" transform="translate(674.46875 0)"/>
     <use xlink:href="#DejaVuSans-56" transform="translate(713.671875 0)"/>
     <use xlink:href="#DejaVuSans-1d" transform="translate(765.765625 0)"/>
     <use xlink:href="#DejaVuSans-3" transform="translate(799.453125 0)"/>
     <use xlink:href="#DejaVuSans-56" transform="translate(831.234375 0)"/>
     <use xlink:href="#DejaVuSans-57" transform="translate(883.328125 0)"/>
     <use xlink:href="#DejaVuSans-47" transform="translate(922.53125 0)"/>
     <use xlink:href="#DejaVuSans-52" transform="translate(986.015625 0)"/>
     <use xlink:href="#DejaVuSans-58" transform="translate(1047.203125 0)"/>
     <use xlink:href="#DejaVuSans-57" transform="translate(1110.578125 0)"/>
     <use xlink:href="#DejaVuSans-3" transform="translate(1149.78125 0)"/>
     <use xlink:href="#DejaVuSans-52" transform="translate(1181.5625 0)"/>
     <use xlink:href="#DejaVuSans-55" transform="translate(1242.75 0)"/>
     <use xlink:href="#DejaVuSans-3" transform="translate(1283.859375 0)"/>
     <use xlink:href="#DejaVuSans-53" transform="translate(1315.640625 0)"/>
     <use xlink:href="#DejaVuSans-44" transform="translate(1379.125 0)"/>
     <use xlink:href="#DejaVuSans-57" transform="translate(1440.40625 0)"/>
     <use xlink:href="#DejaVuSans-4b" transform="translate(1479.609375 0)"/>
     <use xlink:href="#DejaVuSans-3" transform="translate(1542.984375 0)"/>
     <use xlink:href="#DejaVuSans-79" transform="translate(1574.765625 0)"/>
     <use xlink:href="#DejaVuSans-3" transform="translate(1606.546875 0)"/>
     <use xlink:href="#DejaVuSans-47" transform="translate(1638.328125 0)"/>
     <use xlink:href="#DejaVuSans-52" transform="translate(1701.8125 0)"/>
     <use xlink:href="#DejaVuSans-46" transform="translate(1763 0)"/>
     <use xlink:href="#DejaVuSans-58" transform="translate(1817.984375 0)"/>
     <use xlink:href="#DejaVuSans-50" transform="translate(1881.359375 0)"/>
     <use xlink:href="#DejaVuSans-48" transform="translate(1978.765625 0)"/>
     <use xlink:href="#DejaVuSans-51" transform="translate(2040.296875 0)"/>
     <use xlink:href="#DejaVuSans-57" transform="translate(2103.671875 0)"/>
     <use xlink:href="#DejaVuSans-48" transform="translate(2142.875 0)"/>
     <use xlink:href="#DejaVuSans-47" transform="translate(2204.40625 0)"/>
     <use xlink:href="#DejaVuSans-3" transform="translate(2267.890625 0)"/>
     <use xlink:href="#DejaVuSans-57" transform="translate(2299.671875 0)"/>
     <use xlink:href="#DejaVuSans-44" transform="translate(2338.875 0)"/>
     <use xlink:href="#DejaVuSans-45" transform="translate(2400.15625 0)"/>
     <use xlink:href="#DejaVuSans-4f" transform="translate(2463.640625 0)"/>
     <use xlink:href="#DejaVuSans-48" transform="translate(2491.421875 0)"/>
     <use xlink:href="#DejaVuSans-3" transform="translate(2552.953125 0)"/>
     <use xlink:href="#DejaVuSans-13af" transform="translate(2584.734375 0)"/>
     <use xlink:href="#DejaVuSans-48" transform="translate(2647.71875 0)"/>
     <use xlink:href="#DejaVuSans-4f" transform="translate(2709.25 0)"/>
     <use xlink:href="#DejaVuSans-47" transform="translate(2737.03125 0)"/>
     <use xlink:href="#DejaVuSans-56" transform="translate(2800.515625 0)"/>
     <use xlink:href="#DejaVuSans-3" transform="translate(2852.609375 0)"/>
     <use xlink:href="#DejaVuSans-79" transform="translate(2884.390625 0)"/>
     <use xlink:href="#DejaVuSans-3" transform="translate(2916.171875 0)"/>
     <use xlink:href="#DejaVuSans-48" transform="translate(2947.953125 0)"/>
     <use xlink:href="#DejaVuSans-5b" transform="translate(3007.734375 0)"/>
     <use xlink:href="#DejaVuSans-53" transform="translate(3066.921875 0)"/>
     <use xlink:href="#DejaVuSans-4f" transform="translate(3130.40625 0)"/>
     <use xlink:href="#DejaVuSans-4c" transform="translate(3158.1875 0)"/>
     <use xlink:href="#DejaVuSans-46" transform="translate(3185.96875 0)"/>
     <use xlink:href="#DejaVuSans-4c" transform="translate(3240.953125 0)"/>
     <use xlink:href="#DejaVuSans-57" transform="translate(3268.734375 0)"/>
     <use xlink:href="#DejaVuSans-3" transform="translate(3307.9375 0)"/>
     <use xlink:href="#DejaVuSans-56" transform="translate(3339.71875 0)"/>
     <use xlink:href="#DejaVuSans-57" transform="translate(3391.8125 0)"/>
     <use xlink:href="#DejaVuSans-52" transform="translate(3431.015625 0)"/>
     <use xlink:href="#DejaVuSans-46" transform="translate(3492.203125 0)"/>
     <use xlink:href="#DejaVuSans-4b" transform="translate(3547.1875 0)"/>
     <use xlink:href="#DejaVuSans-44" transform="translate(3610.5625 0)"/>
     <use xlink:href="#DejaVuSans-56" transform="translate(3671.84375 0)"/>
     <use xlink:href="#DejaVuSans-57" transform="translate(3723.9375 0)"/>
     <use xlink:href="#DejaVuSans-4c" transform="translate(3763.140625 0)"/>
     <use xlink:href="#DejaVuSans-46" transform="translate(3790.921875 0)"/>
     <use xlink:href="#DejaVuSans-3" transform="translate(3845.90625 0)"/>
     <use xlink:href="#DejaVuSans-56" transform="translate(3877.6875 0)"/>
     <use xlink:href="#DejaVuSans-48" transform="translate(3929.78125 0)"/>
     <use xlink:href="#DejaVuSans-48" transform="translate(3991.3125 0)"/>
     <use xlink:href="#DejaVuSans-47" transform="translate(4052.84375 0)"/>
     <use xlink:href="#DejaVuSans-56" transform="translate(4116.328125 0)"/>
    </g>
   </g>
   <g id="text_10">
    <!-- Newick · TSV · annotated trees · figures · image/attribution manifests -->
    <g transform="translate(60.673398 345.5965) scale(0.085 -0.085)">
     <defs>
      <path id="DejaVuSans-39" d="M 1831 0 
L 50 4666 
L 709 4666 
L 2188 738 
L 3669 4666 
L 4325 4666 
L 2547 0 
L 1831 0 
z
" transform="scale(0.015625)"/>
     </defs>
     <use xlink:href="#DejaVuSans-31"/>
     <use xlink:href="#DejaVuSans-48" transform="translate(74.8125 0)"/>
     <use xlink:href="#DejaVuSans-5a" transform="translate(136.34375 0)"/>
     <use xlink:href="#DejaVuSans-4c" transform="translate(218.125 0)"/>
     <use xlink:href="#DejaVuSans-46" transform="translate(245.90625 0)"/>
     <use xlink:href="#DejaVuSans-4e" transform="translate(300.890625 0)"/>
     <use xlink:href="#DejaVuSans-3" transform="translate(358.796875 0)"/>
     <use xlink:href="#DejaVuSans-79" transform="translate(390.578125 0)"/>
     <use xlink:href="#DejaVuSans-3" transform="translate(422.359375 0)"/>
     <use xlink:href="#DejaVuSans-37" transform="translate(454.140625 0)"/>
     <use xlink:href="#DejaVuSans-36" transform="translate(515.21875 0)"/>
     <use xlink:href="#DejaVuSans-39" transform="translate(578.703125 0)"/>
     <use xlink:href="#DejaVuSans-3" transform="translate(647.109375 0)"/>
     <use xlink:href="#DejaVuSans-79" transform="translate(678.890625 0)"/>
     <use xlink:href="#DejaVuSans-3" transform="translate(710.671875 0)"/>
     <use xlink:href="#DejaVuSans-44" transform="translate(742.453125 0)"/>
     <use xlink:href="#DejaVuSans-51" transform="translate(803.734375 0)"/>
     <use xlink:href="#DejaVuSans-51" transform="translate(867.109375 0)"/>
     <use xlink:href="#DejaVuSans-52" transform="translate(930.484375 0)"/>
     <use xlink:href="#DejaVuSans-57" transform="translate(991.671875 0)"/>
     <use xlink:href="#DejaVuSans-44" transform="translate(1030.875 0)"/>
     <use xlink:href="#DejaVuSans-57" transform="translate(1092.15625 0)"/>
     <use xlink:href="#DejaVuSans-48" transform="translate(1131.359375 0)"/>
     <use xlink:href="#DejaVuSans-47" transform="translate(1192.890625 0)"/>
     <use xlink:href="#DejaVuSans-3" transform="translate(1256.375 0)"/>
     <use xlink:href="#DejaVuSans-57" transform="translate(1288.15625 0)"/>
     <use xlink:href="#DejaVuSans-55" transform="translate(1327.359375 0)"/>
     <use xlink:href="#DejaVuSans-48" transform="translate(1366.265625 0)"/>
     <use xlink:href="#DejaVuSans-48" transform="translate(1427.796875 0)"/>
     <use xlink:href="#DejaVuSans-56" transform="translate(1489.328125 0)"/>
     <use xlink:href="#DejaVuSans-3" transform="translate(1541.421875 0)"/>
     <use xlink:href="#DejaVuSans-79" transform="translate(1573.203125 0)"/>
     <use xlink:href="#DejaVuSans-3" transform="translate(1604.984375 0)"/>
     <use xlink:href="#DejaVuSans-13af" transform="translate(1636.765625 0)"/>
     <use xlink:href="#DejaVuSans-4a" transform="translate(1699.75 0)"/>
     <use xlink:href="#DejaVuSans-58" transform="translate(1763.234375 0)"/>
     <use xlink:href="#DejaVuSans-55" transform="translate(1826.609375 0)"/>
     <use xlink:href="#DejaVuSans-48" transform="translate(1865.515625 0)"/>
     <use xlink:href="#DejaVuSans-56" transform="translate(1927.046875 0)"/>
     <use xlink:href="#DejaVuSans-3" transform="translate(1979.140625 0)"/>
     <use xlink:href="#DejaVuSans-79" transform="translate(2010.921875 0)"/>
     <use xlink:href="#DejaVuSans-3" transform="translate(2042.703125 0)"/>
     <use xlink:href="#DejaVuSans-4c" transform="translate(2074.484375 0)"/>
     <use xlink:href="#DejaVuSans-50" transform="translate(2102.265625 0)"/>
     <use xlink:href="#DejaVuSans-44" transform="translate(2199.671875 0)"/>
     <use xlink:href="#DejaVuSans-4a" transform="translate(2260.953125 0)"/>
     <use xlink:href="#DejaVuSans-48" transform="translate(2324.4375 0)"/>
     <use xlink:href="#DejaVuSans-12" transform="translate(2385.96875 0)"/>
     <use xlink:href="#DejaVuSans-44" transform="translate(2419.65625 0)"/>
     <use xlink:href="#DejaVuSans-57" transform="translate(2480.9375 0)"/>
     <use xlink:href="#DejaVuSans-57" transform="translate(2520.140625 0)"/>
     <use xlink:href="#DejaVuSans-55" transform="translate(2559.34375 0)"/>
     <use xlink:href="#DejaVuSans-4c" transform="translate(2600.453125 0)"/>
     <use xlink:href="#DejaVuSans-45" transform="translate(2628.234375 0)"/>
     <use xlink:href="#DejaVuSans-58" transform="translate(2691.71875 0)"/>
     <use xlink:href="#DejaVuSans-57" transform="translate(2755.09375 0)"/>
     <use xlink:href="#DejaVuSans-4c" transform="translate(2794.296875 0)"/>
     <use xlink:href="#DejaVuSans-52" transform="translate(2822.078125 0)"/>
     <use xlink:href="#DejaVuSans-51" transform="translate(2883.265625 0)"/>
     <use xlink:href="#DejaVuSans-3" transform="translate(2946.640625 0)"/>
     <use xlink:href="#DejaVuSans-50" transform="translate(2978.421875 0)"/>
     <use xlink:href="#DejaVuSans-44" transform="translate(3075.828125 0)"/>
     <use xlink:href="#DejaVuSans-51" transform="translate(3137.109375 0)"/>
     <use xlink:href="#DejaVuSans-4c" transform="translate(3200.484375 0)"/>
     <use xlink:href="#DejaVuSans-49" transform="translate(3228.265625 0)"/>
     <use xlink:href="#DejaVuSans-48" transform="translate(3263.46875 0)"/>
     <use xlink:href="#DejaVuSans-56" transform="translate(3325 0)"/>
     <use xlink:href="#DejaVuSans-57" transform="translate(3377.09375 0)"/>
     <use xlink:href="#DejaVuSans-56" transform="translate(3416.296875 0)"/>
    </g>
   </g>
  </g>
 </g>
 <defs>
  <clipPath id="p3376474194">
   <rect x="7.2" y="7.2" width="401.76" height="354.816"/>
  </clipPath>
 </defs>
</svg>
