<?xml version="1.0" encoding="utf-8" standalone="no"?>
<!DOCTYPE svg PUBLIC "-//W3C//DTD SVG 1.1//EN"
  "http://www.w3.org/Graphics/SVG/1.1/DTD/svg11.dtd">
<svg xmlns:xlink="http://www.w3.org/1999/xlink" width="416.16pt" height="369.216pt" viewBox="0 0 416.16 369.216" xmlns="http://www.w3.org/2000/svg" version="1.1">
 <metadata>
  <rdf:RDF xmlns:dc="http://purl.org/dc/elements/1.1/" xmlns:cc="http://creativecommons.org/ns#" xmlns:rdf="http://www.w3.org/1999/02/22-rdf-syntax-ns#">
   <cc:Work>
    <dc:type rdf:resource="http://purl.org/dc/dcmitype/StillImage"/>
    <dc:date>2026-07-17T15:22:57.051156</dc:date>
    <dc:format>image/svg+xml</dc:format>
    <dc:creator>
     <cc:Agent>
      <dc:title>Matplotlib v3.9.3, https://matplotlib.org/</dc:title>
     </cc:Agent>
    </dc:creator>
   </cc:Work>
  </rdf:RDF>
 </metadata>
 <defs>
  <style type="text/css">*{stroke-linejoin: round; stroke-linecap: butt}</style>
 </defs>
 <g id="figure_1">
  <g id="patch_1">
   <path d="M 0 369.216 
L 416.16 369.216 
L 416.16 0 
L 0 0 
z
" style="fill: #ffffff"/>
  </g>
  <g id="axes_1">
   <g id="patch_2">
    <path d="M 81.92736 78.872832 
L 334.23264 78.872832 
Q 341.46432 78.872832 341.46432 72.486144 
L 341.46432 53.680896 
Q 341.46432 47.294208 334.23264 47.294208 
L 81.92736 47.294208 
Q 74.69568 47.294208 74.69568 53.680896 
L 74.69568 72.486144 
Q 74.69568 78.872832 81.92736 78.872832 
z
" clip-path="url(#pe3f9fcf8c7)" style="fill: #dceaf3"/>
   </g>
   <g id="patch_3">
    <path d="M 208.08 76.613046 
Q 208.08 80.822227 208.08 83.913375 
" clip-path="url(#pe3f9fcf8c7)" style="fill: none; stroke: #666666; stroke-linecap: round"/>
    <path d="M 210.48 79.113375 
L 208.08 83.913375 
L 205.68 79.113375 
z
" clip-path="url(#pe3f9fcf8c7)" style="fill: #666666; stroke: #666666; stroke-linecap: round"/>
   </g>
   <g id="patch_4">
    <path d="M 37.73376 114.354432 
L 378.42624 114.354432 
Q 385.65792 114.354432 385.65792 107.967744 
L 385.65792 89.162496 
Q 385.65792 82.775808 378.42624 82.775808 
L 37.73376 82.775808 
Q 30.50208 82.775808 30.50208 89.162496 
L 30.50208 107.967744 
Q 30.50208 114.354432 37.73376 114.354432 
z
" clip-path="url(#pe3f9fcf8c7)" style="fill: #f2f2f2; stroke: #c8c8c8; stroke-width: 0.8; stroke-linejoin: miter"/>
   </g>
   <g id="patch_5">
    <path d="M 33.71616 195.962112 
L 137.37024 195.962112 
Q 144.60192 195.962112 144.60192 189.575424 
L 144.60192 126.418176 
Q 144.60192 120.031488 137.37024 120.031488 
L 33.71616 120.031488 
Q 26.48448 120.031488 26.48448 126.418176 
L 26.48448 189.575424 
Q 26.48448 195.962112 33.71616 195.962112 
z
" clip-path="url(#pe3f9fcf8c7)" style="fill: #e1f3ee; stroke: #b8b8b8; stroke-width: 0.8; stroke-linejoin: miter"/>
   </g>
   <g id="patch_6">
    <path d="M 156.25296 195.962112 
L 259.90704 195.962112 
Q 267.13872 195.962112 267.13872 189.575424 
L 267.13872 126.418176 
Q 267.13872 120.031488 259.90704 120.031488 
L 156.25296 120.031488 
Q 149.02128 120.031488 149.02128 126.418176 
L 149.02128 189.575424 
Q 149.02128 195.962112 156.25296 195.962112 
z
" clip-path="url(#pe3f9fcf8c7)" style="fill: #fff0db; stroke: #b8b8b8; stroke-width: 0.8; stroke-linejoin: miter"/>
   </g>
   <g id="patch_7">
    <path d="M 278.78976 195.962112 
L 382.44384 195.962112 
Q 389.67552 195.962112 389.67552 189.575424 
L 389.67552 126.418176 
Q 389.67552 120.031488 382.44384 120.031488 
L 278.78976 120.031488 
Q 271.55808 120.031488 271.55808 126.418176 
L 271.55808 189.575424 
Q 271.55808 195.962112 278.78976 195.962112 
z
" clip-path="url(#pe3f9fcf8c7)" style="fill: #e8e2f3; stroke: #b8b8b8; stroke-width: 0.8; stroke-linejoin: miter"/>
   </g>
   <g id="patch_8">
    <path d="M 91.97136 277.569792 
L 195.62544 277.569792 
Q 202.85712 277.569792 202.85712 271.183104 
L 202.85712 215.122176 
Q 202.85712 208.735488 195.62544 208.735488 
L 91.97136 208.735488 
Q 84.73968 208.735488 84.73968 215.122176 
L 84.73968 271.183104 
Q 84.73968 277.569792 91.97136 277.569792 
z
" clip-path="url(#pe3f9fcf8c7)" style="fill: #f8e1e3; stroke: #b8b8b8; stroke-width: 0.8; stroke-linejoin: miter"/>
   </g>
   <g id="patch_9">
    <path d="M 220.53456 277.569792 
L 324.18864 277.569792 
Q 331.42032 277.569792 331.42032 271.183104 
L 331.42032 215.122176 
Q 331.42032 208.735488 324.18864 208.735488 
L 220.53456 208.735488 
Q 213.30288 208.735488 213.30288 215.122176 
L 213.30288 271.183104 
Q 213.30288 277.569792 220.53456 277.569792 
z
" clip-path="url(#pe3f9fcf8c7)" style="fill: #e5edf8; stroke: #b8b8b8; stroke-width: 0.8; stroke-linejoin: miter"/>
   </g>
   <g id="patch_10">
    <path d="M 208.08 112.094646 
Q 208.08 116.303827 208.08 119.730385 
" clip-path="url(#pe3f9fcf8c7)" style="fill: none; stroke: #999999; stroke-width: 0.7; stroke-linecap: round"/>
    <path d="M 209.88 116.130385 
L 208.08 119.730385 
L 206.28 116.130385 
z
" clip-path="url(#pe3f9fcf8c7)" style="fill: #999999; stroke: #999999; stroke-width: 0.7; stroke-linecap: round"/>
   </g>
   <g id="patch_11">
    <path d="M 37.73376 323.695872 
L 378.42624 323.695872 
Q 385.65792 323.695872 385.65792 317.309184 
L 385.65792 298.503936 
Q 385.65792 292.117248 378.42624 292.117248 
L 37.73376 292.117248 
Q 30.50208 292.117248 30.50208 298.503936 
L 30.50208 317.309184 
Q 30.50208 323.695872 37.73376 323.695872 
z
" clip-path="url(#pe3f9fcf8c7)" style="fill: #f2f2f2; stroke: #c8c8c8; stroke-width: 0.8; stroke-linejoin: miter"/>
   </g>
   <g id="patch_12">
    <path d="M 208.08 275.313687 
Q 208.08 284.845543 208.08 293.594776 
" clip-path="url(#pe3f9fcf8c7)" style="fill: none; stroke: #999999; stroke-width: 0.7; stroke-linecap: round"/>
    <path d="M 209.88 289.994776 
L 208.08 293.594776 
L 206.28 289.994776 
z
" clip-path="url(#pe3f9fcf8c7)" style="fill: #999999; stroke: #999999; stroke-width: 0.7; stroke-linecap: round"/>
   </g>
   <g id="patch_13">
    <path d="M 53.80416 357.403392 
L 362.35584 357.403392 
Q 369.58752 357.403392 369.58752 351.016704 
L 369.58752 335.759616 
Q 369.58752 329.372928 362.35584 329.372928 
L 53.80416 329.372928 
Q 46.57248 329.372928 46.57248 335.759616 
L 46.57248 351.016704 
Q 46.57248 357.403392 53.80416 357.403392 
z
" clip-path="url(#pe3f9fcf8c7)" style="fill: #dceaf3"/>
   </g>
   <g id="patch_14">
    <path d="M 208.08 321.437385 
Q 208.08 326.535306 208.08 330.515194 
" clip-path="url(#pe3f9fcf8c7)" style="fill: none; stroke: #666666; stroke-linecap: round"/>
    <path d="M 210.08 326.515194 
L 208.08 330.515194 
L 206.08 326.515194 
z
" clip-path="url(#pe3f9fcf8c7)" style="fill: #666666; stroke: #666666; stroke-linecap: round"/>
   </g>
   <g id="text_1">
    <!-- Newick tree(s)  +  taxon/trait tables  +  reference trees -->
    <g transform="translate(83.582578 65.566957) scale(0.09 -0.09)">
     <defs>
      <path id="DejaVuSans-4e" d="M 628 4666 
L 1478 4666 
L 3547 763 
L 3547 4666 
L 4159 4666 
L 4159 0 
L 3309 0 
L 1241 3903 
L 1241 0 
L 628 0 
L 628 4666 
z
" transform="scale(0.015625)"/>
      <path id="DejaVuSans-65" d="M 3597 1894 
L 3597 1613 
L 953 1613 
Q 991 1019 1311 708 
Q 1631 397 2203 397 
Q 2534 397 2845 478 
Q 3156 559 3463 722 
L 3463 178 
Q 3153 47 2828 -22 
Q 2503 -91 2169 -91 
Q 1331 -91 842 396 
Q 353 884 353 1716 
Q 353 2575 817 3079 
Q 1281 3584 2069 3584 
Q 2775 3584 3186 3129 
Q 3597 2675 3597 1894 
z
M 3022 2063 
Q 3016 2534 2758 2815 
Q 2500 3097 2075 3097 
Q 1594 3097 1305 2825 
Q 1016 2553 972 2059 
L 3022 2063 
z
" transform="scale(0.015625)"/>
      <path id="DejaVuSans-77" d="M 269 3500 
L 844 3500 
L 1563 769 
L 2278 3500 
L 2956 3500 
L 3675 769 
L 4391 3500 
L 4966 3500 
L 4050 0 
L 3372 0 
L 2619 2869 
L 1863 0 
L 1184 0 
L 269 3500 
z
" transform="scale(0.015625)"/>
      <path id="DejaVuSans-69" d="M 603 3500 
L 1178 3500 
L 1178 0 
L 603 0 
L 603 3500 
z
M 603 4863 
L 1178 4863 
L 1178 4134 
L 603 4134 
L 603 4863 
z
" transform="scale(0.015625)"/>
      <path id="DejaVuSans-63" d="M 3122 3366 
L 3122 2828 
Q 2878 2963 2633 3030 
Q 2388 3097 2138 3097 
Q 1578 3097 1268 2742 
Q 959 2388 959 1747 
Q 959 1106 1268 751 
Q 1578 397 2138 397 
Q 2388 397 2633 464 
Q 2878 531 3122 666 
L 3122 134 
Q 2881 22 2623 -34 
Q 2366 -91 2075 -91 
Q 1284 -91 818 406 
Q 353 903 353 1747 
Q 353 2603 823 3093 
Q 1294 3584 2113 3584 
Q 2378 3584 2631 3529 
Q 2884 3475 3122 3366 
z
" transform="scale(0.015625)"/>
      <path id="DejaVuSans-6b" d="M 581 4863 
L 1159 4863 
L 1159 1991 
L 2875 3500 
L 3609 3500 
L 1753 1863 
L 3688 0 
L 2938 0 
L 1159 1709 
L 1159 0 
L 581 0 
L 581 4863 
z
" transform="scale(0.015625)"/>
      <path id="DejaVuSans-20" transform="scale(0.015625)"/>
      <path id="DejaVuSans-74" d="M 1172 4494 
L 1172 3500 
L 2356 3500 
L 2356 3053 
L 1172 3053 
L 1172 1153 
Q 1172 725 1289 603 
Q 1406 481 1766 481 
L 2356 481 
L 2356 0 
L 1766 0 
Q 1100 0 847 248 
Q 594 497 594 1153 
L 594 3053 
L 172 3053 
L 172 3500 
L 594 3500 
L 594 4494 
L 1172 4494 
z
" transform="scale(0.015625)"/>
      <path id="DejaVuSans-72" d="M 2631 2963 
Q 2534 3019 2420 3045 
Q 2306 3072 2169 3072 
Q 1681 3072 1420 2755 
Q 1159 2438 1159 1844 
L 1159 0 
L 581 0 
L 581 3500 
L 1159 3500 
L 1159 2956 
Q 1341 3275 1631 3429 
Q 1922 3584 2338 3584 
Q 2397 3584 2469 3576 
Q 2541 3569 2628 3553 
L 2631 2963 
z
" transform="scale(0.015625)"/>
      <path id="DejaVuSans-28" d="M 1984 4856 
Q 1566 4138 1362 3434 
Q 1159 2731 1159 2009 
Q 1159 1288 1364 580 
Q 1569 -128 1984 -844 
L 1484 -844 
Q 1016 -109 783 600 
Q 550 1309 550 2009 
Q 550 2706 781 3412 
Q 1013 4119 1484 4856 
L 1984 4856 
z
" transform="scale(0.015625)"/>
      <path id="DejaVuSans-73" d="M 2834 3397 
L 2834 2853 
Q 2591 2978 2328 3040 
Q 2066 3103 1784 3103 
Q 1356 3103 1142 2972 
Q 928 2841 928 2578 
Q 928 2378 1081 2264 
Q 1234 2150 1697 2047 
L 1894 2003 
Q 2506 1872 2764 1633 
Q 3022 1394 3022 966 
Q 3022 478 2636 193 
Q 2250 -91 1575 -91 
Q 1294 -91 989 -36 
Q 684 19 347 128 
L 347 722 
Q 666 556 975 473 
Q 1284 391 1588 391 
Q 1994 391 2212 530 
Q 2431 669 2431 922 
Q 2431 1156 2273 1281 
Q 2116 1406 1581 1522 
L 1381 1569 
Q 847 1681 609 1914 
Q 372 2147 372 2553 
Q 372 3047 722 3315 
Q 1072 3584 1716 3584 
Q 2034 3584 2315 3537 
Q 2597 3491 2834 3397 
z
" transform="scale(0.015625)"/>
      <path id="DejaVuSans-29" d="M 513 4856 
L 1013 4856 
Q 1481 4119 1714 3412 
Q 1947 2706 1947 2009 
Q 1947 1309 1714 600 
Q 1481 -109 1013 -844 
L 513 -844 
Q 928 -128 1133 580 
Q 1338 1288 1338 2009 
Q 1338 2731 1133 3434 
Q 928 4138 513 4856 
z
" transform="scale(0.015625)"/>
      <path id="DejaVuSans-2b" d="M 2944 4013 
L 2944 2272 
L 4684 2272 
L 4684 1741 
L 2944 1741 
L 2944 0 
L 2419 0 
L 2419 1741 
L 678 1741 
L 678 2272 
L 2419 2272 
L 2419 4013 
L 2944 4013 
z
" transform="scale(0.015625)"/>
      <path id="DejaVuSans-61" d="M 2194 1759 
Q 1497 1759 1228 1600 
Q 959 1441 959 1056 
Q 959 750 1161 570 
Q 1363 391 1709 391 
Q 2188 391 2477 730 
Q 2766 1069 2766 1631 
L 2766 1759 
L 2194 1759 
z
M 3341 1997 
L 3341 0 
L 2766 0 
L 2766 531 
Q 2569 213 2275 61 
Q 1981 -91 1556 -91 
Q 1019 -91 701 211 
Q 384 513 384 1019 
Q 384 1609 779 1909 
Q 1175 2209 1959 2209 
L 2766 2209 
L 2766 2266 
Q 2766 2663 2505 2880 
Q 2244 3097 1772 3097 
Q 1472 3097 1187 3025 
Q 903 2953 641 2809 
L 641 3341 
Q 956 3463 1253 3523 
Q 1550 3584 1831 3584 
Q 2591 3584 2966 3190 
Q 3341 2797 3341 1997 
z
" transform="scale(0.015625)"/>
      <path id="DejaVuSans-78" d="M 3513 3500 
L 2247 1797 
L 3578 0 
L 2900 0 
L 1881 1375 
L 863 0 
L 184 0 
L 1544 1831 
L 300 3500 
L 978 3500 
L 1906 2253 
L 2834 3500 
L 3513 3500 
z
" transform="scale(0.015625)"/>
      <path id="DejaVuSans-6f" d="M 1959 3097 
Q 1497 3097 1228 2736 
Q 959 2375 959 1747 
Q 959 1119 1226 758 
Q 1494 397 1959 397 
Q 2419 397 2687 759 
Q 2956 1122 2956 1747 
Q 2956 2369 2687 2733 
Q 2419 3097 1959 3097 
z
M 1959 3584 
Q 2709 3584 3137 3096 
Q 3566 2609 3566 1747 
Q 3566 888 3137 398 
Q 2709 -91 1959 -91 
Q 1206 -91 779 398 
Q 353 888 353 1747 
Q 353 2609 779 3096 
Q 1206 3584 1959 3584 
z
" transform="scale(0.015625)"/>
      <path id="DejaVuSans-6e" d="M 3513 2113 
L 3513 0 
L 2938 0 
L 2938 2094 
Q 2938 2591 2744 2837 
Q 2550 3084 2163 3084 
Q 1697 3084 1428 2787 
Q 1159 2491 1159 1978 
L 1159 0 
L 581 0 
L 581 3500 
L 1159 3500 
L 1159 2956 
Q 1366 3272 1645 3428 
Q 1925 3584 2291 3584 
Q 2894 3584 3203 3211 
Q 3513 2838 3513 2113 
z
" transform="scale(0.015625)"/>
      <path id="DejaVuSans-2f" d="M 1625 4666 
L 2156 4666 
L 531 -594 
L 0 -594 
L 1625 4666 
z
" transform="scale(0.015625)"/>
      <path id="DejaVuSans-62" d="M 3116 1747 
Q 3116 2381 2855 2742 
Q 2594 3103 2138 3103 
Q 1681 3103 1420 2742 
Q 1159 2381 1159 1747 
Q 1159 1113 1420 752 
Q 1681 391 2138 391 
Q 2594 391 2855 752 
Q 3116 1113 3116 1747 
z
M 1159 2969 
Q 1341 3281 1617 3432 
Q 1894 3584 2278 3584 
Q 2916 3584 3314 3078 
Q 3713 2572 3713 1747 
Q 3713 922 3314 415 
Q 2916 -91 2278 -91 
Q 1894 -91 1617 61 
Q 1341 213 1159 525 
L 1159 0 
L 581 0 
L 581 4863 
L 1159 4863 
L 1159 2969 
z
" transform="scale(0.015625)"/>
      <path id="DejaVuSans-6c" d="M 603 4863 
L 1178 4863 
L 1178 0 
L 603 0 
L 603 4863 
z
" transform="scale(0.015625)"/>
      <path id="DejaVuSans-66" d="M 2375 4863 
L 2375 4384 
L 1825 4384 
Q 1516 4384 1395 4259 
Q 1275 4134 1275 3809 
L 1275 3500 
L 2222 3500 
L 2222 3053 
L 1275 3053 
L 1275 0 
L 697 0 
L 697 3053 
L 147 3053 
L 147 3500 
L 697 3500 
L 697 3744 
Q 697 4328 969 4595 
Q 1241 4863 1831 4863 
L 2375 4863 
z
" transform="scale(0.015625)"/>
     </defs>
     <use xlink:href="#DejaVuSans-4e"/>
     <use xlink:href="#DejaVuSans-65" x="74.804688"/>
     <use xlink:href="#DejaVuSans-77" x="136.328125"/>
     <use xlink:href="#DejaVuSans-69" x="218.115234"/>
     <use xlink:href="#DejaVuSans-63" x="245.898438"/>
     <use xlink:href="#DejaVuSans-6b" x="300.878906"/>
     <use xlink:href="#DejaVuSans-20" x="358.789062"/>
     <use xlink:href="#DejaVuSans-74" x="390.576172"/>
     <use xlink:href="#DejaVuSans-72" x="429.785156"/>
     <use xlink:href="#DejaVuSans-65" x="468.648438"/>
     <use xlink:href="#DejaVuSans-65" x="530.171875"/>
     <use xlink:href="#DejaVuSans-28" x="591.695312"/>
     <use xlink:href="#DejaVuSans-73" x="630.708984"/>
     <use xlink:href="#DejaVuSans-29" x="682.808594"/>
     <use xlink:href="#DejaVuSans-20" x="721.822266"/>
     <use xlink:href="#DejaVuSans-20" x="753.609375"/>
     <use xlink:href="#DejaVuSans-2b" x="785.396484"/>
     <use xlink:href="#DejaVuSans-20" x="869.185547"/>
     <use xlink:href="#DejaVuSans-20" x="900.972656"/>
     <use xlink:href="#DejaVuSans-74" x="932.759766"/>
     <use xlink:href="#DejaVuSans-61" x="971.96875"/>
     <use xlink:href="#DejaVuSans-78" x="1033.248047"/>
     <use xlink:href="#DejaVuSans-6f" x="1089.302734"/>
     <use xlink:href="#DejaVuSans-6e" x="1150.484375"/>
     <use xlink:href="#DejaVuSans-2f" x="1213.863281"/>
     <use xlink:href="#DejaVuSans-74" x="1247.554688"/>
     <use xlink:href="#DejaVuSans-72" x="1286.763672"/>
     <use xlink:href="#DejaVuSans-61" x="1327.876953"/>
     <use xlink:href="#DejaVuSans-69" x="1389.15625"/>
     <use xlink:href="#DejaVuSans-74" x="1416.939453"/>
     <use xlink:href="#DejaVuSans-20" x="1456.148438"/>
     <use xlink:href="#DejaVuSans-74" x="1487.935547"/>
     <use xlink:href="#DejaVuSans-61" x="1527.144531"/>
     <use xlink:href="#DejaVuSans-62" x="1588.423828"/>
     <use xlink:href="#DejaVuSans-6c" x="1651.900391"/>
     <use xlink:href="#DejaVuSans-65" x="1679.683594"/>
     <use xlink:href="#DejaVuSans-73" x="1741.207031"/>
     <use xlink:href="#DejaVuSans-20" x="1793.306641"/>
     <use xlink:href="#DejaVuSans-20" x="1825.09375"/>
     <use xlink:href="#DejaVuSans-2b" x="1856.880859"/>
     <use xlink:href="#DejaVuSans-20" x="1940.669922"/>
     <use xlink:href="#DejaVuSans-20" x="1972.457031"/>
     <use xlink:href="#DejaVuSans-72" x="2004.244141"/>
     <use xlink:href="#DejaVuSans-65" x="2043.107422"/>
     <use xlink:href="#DejaVuSans-66" x="2104.630859"/>
     <use xlink:href="#DejaVuSans-65" x="2139.835938"/>
     <use xlink:href="#DejaVuSans-72" x="2201.359375"/>
     <use xlink:href="#DejaVuSans-65" x="2240.222656"/>
     <use xlink:href="#DejaVuSans-6e" x="2301.746094"/>
     <use xlink:href="#DejaVuSans-63" x="2365.125"/>
     <use xlink:href="#DejaVuSans-65" x="2420.105469"/>
     <use xlink:href="#DejaVuSans-20" x="2481.628906"/>
     <use xlink:href="#DejaVuSans-74" x="2513.416016"/>
     <use xlink:href="#DejaVuSans-72" x="2552.625"/>
     <use xlink:href="#DejaVuSans-65" x="2591.488281"/>
     <use xlink:href="#DejaVuSans-65" x="2653.011719"/>
     <use xlink:href="#DejaVuSans-73" x="2714.535156"/>
    </g>
   </g>
   <g id="text_2">
    <!-- 33 stdin defaults  ·  31 stdout defaults  ·  619 tests -->
    <g style="fill: #666666" transform="translate(112.882148 41.202971) scale(0.075 -0.075)">
     <defs>
      <path id="DejaVuSans-33" d="M 2597 2516 
Q 3050 2419 3304 2112 
Q 3559 1806 3559 1356 
Q 3559 666 3084 287 
Q 2609 -91 1734 -91 
Q 1441 -91 1130 -33 
Q 819 25 488 141 
L 488 750 
Q 750 597 1062 519 
Q 1375 441 1716 441 
Q 2309 441 2620 675 
Q 2931 909 2931 1356 
Q 2931 1769 2642 2001 
Q 2353 2234 1838 2234 
L 1294 2234 
L 1294 2753 
L 1863 2753 
Q 2328 2753 2575 2939 
Q 2822 3125 2822 3475 
Q 2822 3834 2567 4026 
Q 2313 4219 1838 4219 
Q 1578 4219 1281 4162 
Q 984 4106 628 3988 
L 628 4550 
Q 988 4650 1302 4700 
Q 1616 4750 1894 4750 
Q 2613 4750 3031 4423 
Q 3450 4097 3450 3541 
Q 3450 3153 3228 2886 
Q 3006 2619 2597 2516 
z
" transform="scale(0.015625)"/>
      <path id="DejaVuSans-64" d="M 2906 2969 
L 2906 4863 
L 3481 4863 
L 3481 0 
L 2906 0 
L 2906 525 
Q 2725 213 2448 61 
Q 2172 -91 1784 -91 
Q 1150 -91 751 415 
Q 353 922 353 1747 
Q 353 2572 751 3078 
Q 1150 3584 1784 3584 
Q 2172 3584 2448 3432 
Q 2725 3281 2906 2969 
z
M 947 1747 
Q 947 1113 1208 752 
Q 1469 391 1925 391 
Q 2381 391 2643 752 
Q 2906 1113 2906 1747 
Q 2906 2381 2643 2742 
Q 2381 3103 1925 3103 
Q 1469 3103 1208 2742 
Q 947 2381 947 1747 
z
" transform="scale(0.015625)"/>
      <path id="DejaVuSans-75" d="M 544 1381 
L 544 3500 
L 1119 3500 
L 1119 1403 
Q 1119 906 1312 657 
Q 1506 409 1894 409 
Q 2359 409 2629 706 
Q 2900 1003 2900 1516 
L 2900 3500 
L 3475 3500 
L 3475 0 
L 2900 0 
L 2900 538 
Q 2691 219 2414 64 
Q 2138 -91 1772 -91 
Q 1169 -91 856 284 
Q 544 659 544 1381 
z
M 1991 3584 
L 1991 3584 
z
" transform="scale(0.015625)"/>
      <path id="DejaVuSans-b7" d="M 684 2619 
L 1344 2619 
L 1344 1825 
L 684 1825 
L 684 2619 
z
" transform="scale(0.015625)"/>
      <path id="DejaVuSans-31" d="M 794 531 
L 1825 531 
L 1825 4091 
L 703 3866 
L 703 4441 
L 1819 4666 
L 2450 4666 
L 2450 531 
L 3481 531 
L 3481 0 
L 794 0 
L 794 531 
z
" transform="scale(0.015625)"/>
      <path id="DejaVuSans-36" d="M 2113 2584 
Q 1688 2584 1439 2293 
Q 1191 2003 1191 1497 
Q 1191 994 1439 701 
Q 1688 409 2113 409 
Q 2538 409 2786 701 
Q 3034 994 3034 1497 
Q 3034 2003 2786 2293 
Q 2538 2584 2113 2584 
z
M 3366 4563 
L 3366 3988 
Q 3128 4100 2886 4159 
Q 2644 4219 2406 4219 
Q 1781 4219 1451 3797 
Q 1122 3375 1075 2522 
Q 1259 2794 1537 2939 
Q 1816 3084 2150 3084 
Q 2853 3084 3261 2657 
Q 3669 2231 3669 1497 
Q 3669 778 3244 343 
Q 2819 -91 2113 -91 
Q 1303 -91 875 529 
Q 447 1150 447 2328 
Q 447 3434 972 4092 
Q 1497 4750 2381 4750 
Q 2619 4750 2861 4703 
Q 3103 4656 3366 4563 
z
" transform="scale(0.015625)"/>
      <path id="DejaVuSans-39" d="M 703 97 
L 703 672 
Q 941 559 1184 500 
Q 1428 441 1663 441 
Q 2288 441 2617 861 
Q 2947 1281 2994 2138 
Q 2813 1869 2534 1725 
Q 2256 1581 1919 1581 
Q 1219 1581 811 2004 
Q 403 2428 403 3163 
Q 403 3881 828 4315 
Q 1253 4750 1959 4750 
Q 2769 4750 3195 4129 
Q 3622 3509 3622 2328 
Q 3622 1225 3098 567 
Q 2575 -91 1691 -91 
Q 1453 -91 1209 -44 
Q 966 3 703 97 
z
M 1959 2075 
Q 2384 2075 2632 2365 
Q 2881 2656 2881 3163 
Q 2881 3666 2632 3958 
Q 2384 4250 1959 4250 
Q 1534 4250 1286 3958 
Q 1038 3666 1038 3163 
Q 1038 2656 1286 2365 
Q 1534 2075 1959 2075 
z
" transform="scale(0.015625)"/>
     </defs>
     <use xlink:href="#DejaVuSans-33"/>
     <use xlink:href="#DejaVuSans-33" x="63.623047"/>
     <use xlink:href="#DejaVuSans-20" x="127.246094"/>
     <use xlink:href="#DejaVuSans-73" x="159.033203"/>
     <use xlink:href="#DejaVuSans-74" x="211.132812"/>
     <use xlink:href="#DejaVuSans-64" x="250.341797"/>
     <use xlink:href="#DejaVuSans-69" x="313.818359"/>
     <use xlink:href="#DejaVuSans-6e" x="341.601562"/>
     <use xlink:href="#DejaVuSans-20" x="404.980469"/>
     <use xlink:href="#DejaVuSans-64" x="436.767578"/>
     <use xlink:href="#DejaVuSans-65" x="500.244141"/>
     <use xlink:href="#DejaVuSans-66" x="561.767578"/>
     <use xlink:href="#DejaVuSans-61" x="596.972656"/>
     <use xlink:href="#DejaVuSans-75" x="658.251953"/>
     <use xlink:href="#DejaVuSans-6c" x="721.630859"/>
     <use xlink:href="#DejaVuSans-74" x="749.414062"/>
     <use xlink:href="#DejaVuSans-73" x="788.623047"/>
     <use xlink:href="#DejaVuSans-20" x="840.722656"/>
     <use xlink:href="#DejaVuSans-20" x="872.509766"/>
     <use xlink:href="#DejaVuSans-b7" x="904.296875"/>
     <use xlink:href="#DejaVuSans-20" x="936.083984"/>
     <use xlink:href="#DejaVuSans-20" x="967.871094"/>
     <use xlink:href="#DejaVuSans-33" x="999.658203"/>
     <use xlink:href="#DejaVuSans-31" x="1063.28125"/>
     <use xlink:href="#DejaVuSans-20" x="1126.904297"/>
     <use xlink:href="#DejaVuSans-73" x="1158.691406"/>
     <use xlink:href="#DejaVuSans-74" x="1210.791016"/>
     <use xlink:href="#DejaVuSans-64" x="1250"/>
     <use xlink:href="#DejaVuSans-6f" x="1313.476562"/>
     <use xlink:href="#DejaVuSans-75" x="1374.658203"/>
     <use xlink:href="#DejaVuSans-74" x="1438.037109"/>
     <use xlink:href="#DejaVuSans-20" x="1477.246094"/>
     <use xlink:href="#DejaVuSans-64" x="1509.033203"/>
     <use xlink:href="#DejaVuSans-65" x="1572.509766"/>
     <use xlink:href="#DejaVuSans-66" x="1634.033203"/>
     <use xlink:href="#DejaVuSans-61" x="1669.238281"/>
     <use xlink:href="#DejaVuSans-75" x="1730.517578"/>
     <use xlink:href="#DejaVuSans-6c" x="1793.896484"/>
     <use xlink:href="#DejaVuSans-74" x="1821.679688"/>
     <use xlink:href="#DejaVuSans-73" x="1860.888672"/>
     <use xlink:href="#DejaVuSans-20" x="1912.988281"/>
     <use xlink:href="#DejaVuSans-20" x="1944.775391"/>
     <use xlink:href="#DejaVuSans-b7" x="1976.5625"/>
     <use xlink:href="#DejaVuSans-20" x="2008.349609"/>
     <use xlink:href="#DejaVuSans-20" x="2040.136719"/>
     <use xlink:href="#DejaVuSans-36" x="2071.923828"/>
     <use xlink:href="#DejaVuSans-31" x="2135.546875"/>
     <use xlink:href="#DejaVuSans-39" x="2199.169922"/>
     <use xlink:href="#DejaVuSans-20" x="2262.792969"/>
     <use xlink:href="#DejaVuSans-74" x="2294.580078"/>
     <use xlink:href="#DejaVuSans-65" x="2333.789062"/>
     <use xlink:href="#DejaVuSans-73" x="2395.3125"/>
     <use xlink:href="#DejaVuSans-74" x="2447.412109"/>
     <use xlink:href="#DejaVuSans-73" x="2486.621094"/>
    </g>
   </g>
   <g id="text_3">
    <!-- Shared inputs: stdin or path · explicit/automatic Newick formats · quoted-name control -->
    <g transform="translate(34.233125 100.77262) scale(0.08 -0.08)">
     <defs>
      <path id="DejaVuSans-53" d="M 3425 4513 
L 3425 3897 
Q 3066 4069 2747 4153 
Q 2428 4238 2131 4238 
Q 1616 4238 1336 4038 
Q 1056 3838 1056 3469 
Q 1056 3159 1242 3001 
Q 1428 2844 1947 2747 
L 2328 2669 
Q 3034 2534 3370 2195 
Q 3706 1856 3706 1288 
Q 3706 609 3251 259 
Q 2797 -91 1919 -91 
Q 1588 -91 1214 -16 
Q 841 59 441 206 
L 441 856 
Q 825 641 1194 531 
Q 1563 422 1919 422 
Q 2459 422 2753 634 
Q 3047 847 3047 1241 
Q 3047 1584 2836 1778 
Q 2625 1972 2144 2069 
L 1759 2144 
Q 1053 2284 737 2584 
Q 422 2884 422 3419 
Q 422 4038 858 4394 
Q 1294 4750 2059 4750 
Q 2388 4750 2728 4690 
Q 3069 4631 3425 4513 
z
" transform="scale(0.015625)"/>
      <path id="DejaVuSans-68" d="M 3513 2113 
L 3513 0 
L 2938 0 
L 2938 2094 
Q 2938 2591 2744 2837 
Q 2550 3084 2163 3084 
Q 1697 3084 1428 2787 
Q 1159 2491 1159 1978 
L 1159 0 
L 581 0 
L 581 4863 
L 1159 4863 
L 1159 2956 
Q 1366 3272 1645 3428 
Q 1925 3584 2291 3584 
Q 2894 3584 3203 3211 
Q 3513 2838 3513 2113 
z
" transform="scale(0.015625)"/>
      <path id="DejaVuSans-70" d="M 1159 525 
L 1159 -1331 
L 581 -1331 
L 581 3500 
L 1159 3500 
L 1159 2969 
Q 1341 3281 1617 3432 
Q 1894 3584 2278 3584 
Q 2916 3584 3314 3078 
Q 3713 2572 3713 1747 
Q 3713 922 3314 415 
Q 2916 -91 2278 -91 
Q 1894 -91 1617 61 
Q 1341 213 1159 525 
z
M 3116 1747 
Q 3116 2381 2855 2742 
Q 2594 3103 2138 3103 
Q 1681 3103 1420 2742 
Q 1159 2381 1159 1747 
Q 1159 1113 1420 752 
Q 1681 391 2138 391 
Q 2594 391 2855 752 
Q 3116 1113 3116 1747 
z
" transform="scale(0.015625)"/>
      <path id="DejaVuSans-3a" d="M 750 794 
L 1409 794 
L 1409 0 
L 750 0 
L 750 794 
z
M 750 3309 
L 1409 3309 
L 1409 2516 
L 750 2516 
L 750 3309 
z
" transform="scale(0.015625)"/>
      <path id="DejaVuSans-6d" d="M 3328 2828 
Q 3544 3216 3844 3400 
Q 4144 3584 4550 3584 
Q 5097 3584 5394 3201 
Q 5691 2819 5691 2113 
L 5691 0 
L 5113 0 
L 5113 2094 
Q 5113 2597 4934 2840 
Q 4756 3084 4391 3084 
Q 3944 3084 3684 2787 
Q 3425 2491 3425 1978 
L 3425 0 
L 2847 0 
L 2847 2094 
Q 2847 2600 2669 2842 
Q 2491 3084 2119 3084 
Q 1678 3084 1418 2786 
Q 1159 2488 1159 1978 
L 1159 0 
L 581 0 
L 581 3500 
L 1159 3500 
L 1159 2956 
Q 1356 3278 1631 3431 
Q 1906 3584 2284 3584 
Q 2666 3584 2933 3390 
Q 3200 3197 3328 2828 
z
" transform="scale(0.015625)"/>
      <path id="DejaVuSans-71" d="M 947 1747 
Q 947 1113 1208 752 
Q 1469 391 1925 391 
Q 2381 391 2643 752 
Q 2906 1113 2906 1747 
Q 2906 2381 2643 2742 
Q 2381 3103 1925 3103 
Q 1469 3103 1208 2742 
Q 947 2381 947 1747 
z
M 2906 525 
Q 2725 213 2448 61 
Q 2172 -91 1784 -91 
Q 1150 -91 751 415 
Q 353 922 353 1747 
Q 353 2572 751 3078 
Q 1150 3584 1784 3584 
Q 2172 3584 2448 3432 
Q 2725 3281 2906 2969 
L 2906 3500 
L 3481 3500 
L 3481 -1331 
L 2906 -1331 
L 2906 525 
z
" transform="scale(0.015625)"/>
      <path id="DejaVuSans-2d" d="M 313 2009 
L 1997 2009 
L 1997 1497 
L 313 1497 
L 313 2009 
z
" transform="scale(0.015625)"/>
     </defs>
     <use xlink:href="#DejaVuSans-53"/>
     <use xlink:href="#DejaVuSans-68" x="63.476562"/>
     <use xlink:href="#DejaVuSans-61" x="126.855469"/>
     <use xlink:href="#DejaVuSans-72" x="188.134766"/>
     <use xlink:href="#DejaVuSans-65" x="226.998047"/>
     <use xlink:href="#DejaVuSans-64" x="288.521484"/>
     <use xlink:href="#DejaVuSans-20" x="351.998047"/>
     <use xlink:href="#DejaVuSans-69" x="383.785156"/>
     <use xlink:href="#DejaVuSans-6e" x="411.568359"/>
     <use xlink:href="#DejaVuSans-70" x="474.947266"/>
     <use xlink:href="#DejaVuSans-75" x="538.423828"/>
     <use xlink:href="#DejaVuSans-74" x="601.802734"/>
     <use xlink:href="#DejaVuSans-73" x="641.011719"/>
     <use xlink:href="#DejaVuSans-3a" x="693.111328"/>
     <use xlink:href="#DejaVuSans-20" x="726.802734"/>
     <use xlink:href="#DejaVuSans-73" x="758.589844"/>
     <use xlink:href="#DejaVuSans-74" x="810.689453"/>
     <use xlink:href="#DejaVuSans-64" x="849.898438"/>
     <use xlink:href="#DejaVuSans-69" x="913.375"/>
     <use xlink:href="#DejaVuSans-6e" x="941.158203"/>
     <use xlink:href="#DejaVuSans-20" x="1004.537109"/>
     <use xlink:href="#DejaVuSans-6f" x="1036.324219"/>
     <use xlink:href="#DejaVuSans-72" x="1097.505859"/>
     <use xlink:href="#DejaVuSans-20" x="1138.619141"/>
     <use xlink:href="#DejaVuSans-70" x="1170.40625"/>
     <use xlink:href="#DejaVuSans-61" x="1233.882812"/>
     <use xlink:href="#DejaVuSans-74" x="1295.162109"/>
     <use xlink:href="#DejaVuSans-68" x="1334.371094"/>
     <use xlink:href="#DejaVuSans-20" x="1397.75"/>
     <use xlink:href="#DejaVuSans-b7" x="1429.537109"/>
     <use xlink:href="#DejaVuSans-20" x="1461.324219"/>
     <use xlink:href="#DejaVuSans-65" x="1493.111328"/>
     <use xlink:href="#DejaVuSans-78" x="1552.884766"/>
     <use xlink:href="#DejaVuSans-70" x="1612.064453"/>
     <use xlink:href="#DejaVuSans-6c" x="1675.541016"/>
     <use xlink:href="#DejaVuSans-69" x="1703.324219"/>
     <use xlink:href="#DejaVuSans-63" x="1731.107422"/>
     <use xlink:href="#DejaVuSans-69" x="1786.087891"/>
     <use xlink:href="#DejaVuSans-74" x="1813.871094"/>
     <use xlink:href="#DejaVuSans-2f" x="1853.080078"/>
     <use xlink:href="#DejaVuSans-61" x="1886.771484"/>
     <use xlink:href="#DejaVuSans-75" x="1948.050781"/>
     <use xlink:href="#DejaVuSans-74" x="2011.429688"/>
     <use xlink:href="#DejaVuSans-6f" x="2050.638672"/>
     <use xlink:href="#DejaVuSans-6d" x="2111.820312"/>
     <use xlink:href="#DejaVuSans-61" x="2209.232422"/>
     <use xlink:href="#DejaVuSans-74" x="2270.511719"/>
     <use xlink:href="#DejaVuSans-69" x="2309.720703"/>
     <use xlink:href="#DejaVuSans-63" x="2337.503906"/>
     <use xlink:href="#DejaVuSans-20" x="2392.484375"/>
     <use xlink:href="#DejaVuSans-4e" x="2424.271484"/>
     <use xlink:href="#DejaVuSans-65" x="2499.076172"/>
     <use xlink:href="#DejaVuSans-77" x="2560.599609"/>
     <use xlink:href="#DejaVuSans-69" x="2642.386719"/>
     <use xlink:href="#DejaVuSans-63" x="2670.169922"/>
     <use xlink:href="#DejaVuSans-6b" x="2725.150391"/>
     <use xlink:href="#DejaVuSans-20" x="2783.060547"/>
     <use xlink:href="#DejaVuSans-66" x="2814.847656"/>
     <use xlink:href="#DejaVuSans-6f" x="2850.052734"/>
     <use xlink:href="#DejaVuSans-72" x="2911.234375"/>
     <use xlink:href="#DejaVuSans-6d" x="2950.597656"/>
     <use xlink:href="#DejaVuSans-61" x="3048.009766"/>
     <use xlink:href="#DejaVuSans-74" x="3109.289062"/>
     <use xlink:href="#DejaVuSans-73" x="3148.498047"/>
     <use xlink:href="#DejaVuSans-20" x="3200.597656"/>
     <use xlink:href="#DejaVuSans-b7" x="3232.384766"/>
     <use xlink:href="#DejaVuSans-20" x="3264.171875"/>
     <use xlink:href="#DejaVuSans-71" x="3295.958984"/>
     <use xlink:href="#DejaVuSans-75" x="3359.435547"/>
     <use xlink:href="#DejaVuSans-6f" x="3422.814453"/>
     <use xlink:href="#DejaVuSans-74" x="3483.996094"/>
     <use xlink:href="#DejaVuSans-65" x="3523.205078"/>
     <use xlink:href="#DejaVuSans-64" x="3584.728516"/>
     <use xlink:href="#DejaVuSans-2d" x="3648.205078"/>
     <use xlink:href="#DejaVuSans-6e" x="3684.289062"/>
     <use xlink:href="#DejaVuSans-61" x="3747.667969"/>
     <use xlink:href="#DejaVuSans-6d" x="3808.947266"/>
     <use xlink:href="#DejaVuSans-65" x="3906.359375"/>
     <use xlink:href="#DejaVuSans-20" x="3967.882812"/>
     <use xlink:href="#DejaVuSans-63" x="3999.669922"/>
     <use xlink:href="#DejaVuSans-6f" x="4054.650391"/>
     <use xlink:href="#DejaVuSans-6e" x="4115.832031"/>
     <use xlink:href="#DejaVuSans-74" x="4179.210938"/>
     <use xlink:href="#DejaVuSans-72" x="4218.419922"/>
     <use xlink:href="#DejaVuSans-6f" x="4257.283203"/>
     <use xlink:href="#DejaVuSans-6c" x="4318.464844"/>
    </g>
   </g>
   <g id="text_4">
    <!-- Inspect &amp; normalize  (7) -->
    <g transform="translate(40.426013 143.269612) scale(0.075 -0.075)">
     <defs>
      <path id="DejaVuSans-49" d="M 628 4666 
L 1259 4666 
L 1259 0 
L 628 0 
L 628 4666 
z
" transform="scale(0.015625)"/>
      <path id="DejaVuSans-26" d="M 1556 2509 
Q 1272 2256 1139 2004 
Q 1006 1753 1006 1478 
Q 1006 1022 1337 719 
Q 1669 416 2169 416 
Q 2466 416 2725 514 
Q 2984 613 3213 813 
L 1556 2509 
z
M 1997 2859 
L 3584 1234 
Q 3769 1513 3872 1830 
Q 3975 2147 3994 2503 
L 4575 2503 
Q 4538 2091 4375 1687 
Q 4213 1284 3922 891 
L 4794 0 
L 4006 0 
L 3559 459 
Q 3234 181 2878 45 
Q 2522 -91 2113 -91 
Q 1359 -91 881 339 
Q 403 769 403 1441 
Q 403 1841 612 2192 
Q 822 2544 1241 2853 
Q 1091 3050 1012 3245 
Q 934 3441 934 3628 
Q 934 4134 1281 4442 
Q 1628 4750 2203 4750 
Q 2463 4750 2720 4694 
Q 2978 4638 3244 4525 
L 3244 3956 
Q 2972 4103 2725 4179 
Q 2478 4256 2266 4256 
Q 1938 4256 1733 4082 
Q 1528 3909 1528 3634 
Q 1528 3475 1620 3314 
Q 1713 3153 1997 2859 
z
" transform="scale(0.015625)"/>
      <path id="DejaVuSans-7a" d="M 353 3500 
L 3084 3500 
L 3084 2975 
L 922 459 
L 3084 459 
L 3084 0 
L 275 0 
L 275 525 
L 2438 3041 
L 353 3041 
L 353 3500 
z
" transform="scale(0.015625)"/>
      <path id="DejaVuSans-37" d="M 525 4666 
L 3525 4666 
L 3525 4397 
L 1831 0 
L 1172 0 
L 2766 4134 
L 525 4134 
L 525 4666 
z
" transform="scale(0.015625)"/>
     </defs>
     <use xlink:href="#DejaVuSans-49"/>
     <use xlink:href="#DejaVuSans-6e" x="29.492188"/>
     <use xlink:href="#DejaVuSans-73" x="92.871094"/>
     <use xlink:href="#DejaVuSans-70" x="144.970703"/>
     <use xlink:href="#DejaVuSans-65" x="208.447266"/>
     <use xlink:href="#DejaVuSans-63" x="269.970703"/>
     <use xlink:href="#DejaVuSans-74" x="324.951172"/>
     <use xlink:href="#DejaVuSans-20" x="364.160156"/>
     <use xlink:href="#DejaVuSans-26" x="395.947266"/>
     <use xlink:href="#DejaVuSans-20" x="473.925781"/>
     <use xlink:href="#DejaVuSans-6e" x="505.712891"/>
     <use xlink:href="#DejaVuSans-6f" x="569.091797"/>
     <use xlink:href="#DejaVuSans-72" x="630.273438"/>
     <use xlink:href="#DejaVuSans-6d" x="669.636719"/>
     <use xlink:href="#DejaVuSans-61" x="767.048828"/>
     <use xlink:href="#DejaVuSans-6c" x="828.328125"/>
     <use xlink:href="#DejaVuSans-69" x="856.111328"/>
     <use xlink:href="#DejaVuSans-7a" x="883.894531"/>
     <use xlink:href="#DejaVuSans-65" x="936.384766"/>
     <use xlink:href="#DejaVuSans-20" x="997.908203"/>
     <use xlink:href="#DejaVuSans-20" x="1029.695312"/>
     <use xlink:href="#DejaVuSans-28" x="1061.482422"/>
     <use xlink:href="#DejaVuSans-37" x="1100.496094"/>
     <use xlink:href="#DejaVuSans-29" x="1164.119141"/>
    </g>
    <!--  -->
    <g transform="translate(85.5432 151.667972) scale(0.075 -0.075)"/>
    <!-- validate · info · sanitize -->
    <g transform="translate(41.844567 160.066331) scale(0.075 -0.075)">
     <defs>
      <path id="DejaVuSans-76" d="M 191 3500 
L 800 3500 
L 1894 563 
L 2988 3500 
L 3597 3500 
L 2284 0 
L 1503 0 
L 191 3500 
z
" transform="scale(0.015625)"/>
     </defs>
     <use xlink:href="#DejaVuSans-76"/>
     <use xlink:href="#DejaVuSans-61" x="59.179688"/>
     <use xlink:href="#DejaVuSans-6c" x="120.458984"/>
     <use xlink:href="#DejaVuSans-69" x="148.242188"/>
     <use xlink:href="#DejaVuSans-64" x="176.025391"/>
     <use xlink:href="#DejaVuSans-61" x="239.501953"/>
     <use xlink:href="#DejaVuSans-74" x="300.78125"/>
     <use xlink:href="#DejaVuSans-65" x="339.990234"/>
     <use xlink:href="#DejaVuSans-20" x="401.513672"/>
     <use xlink:href="#DejaVuSans-b7" x="433.300781"/>
     <use xlink:href="#DejaVuSans-20" x="465.087891"/>
     <use xlink:href="#DejaVuSans-69" x="496.875"/>
     <use xlink:href="#DejaVuSans-6e" x="524.658203"/>
     <use xlink:href="#DejaVuSans-66" x="588.037109"/>
     <use xlink:href="#DejaVuSans-6f" x="623.242188"/>
     <use xlink:href="#DejaVuSans-20" x="684.423828"/>
     <use xlink:href="#DejaVuSans-b7" x="716.210938"/>
     <use xlink:href="#DejaVuSans-20" x="747.998047"/>
     <use xlink:href="#DejaVuSans-73" x="779.785156"/>
     <use xlink:href="#DejaVuSans-61" x="831.884766"/>
     <use xlink:href="#DejaVuSans-6e" x="893.164062"/>
     <use xlink:href="#DejaVuSans-69" x="956.542969"/>
     <use xlink:href="#DejaVuSans-74" x="984.326172"/>
     <use xlink:href="#DejaVuSans-69" x="1023.535156"/>
     <use xlink:href="#DejaVuSans-7a" x="1051.318359"/>
     <use xlink:href="#DejaVuSans-65" x="1103.808594"/>
    </g>
    <!-- nwk2table · table2nwk -->
    <g transform="translate(42.970153 168.464691) scale(0.075 -0.075)">
     <defs>
      <path id="DejaVuSans-32" d="M 1228 531 
L 3431 531 
L 3431 0 
L 469 0 
L 469 531 
Q 828 903 1448 1529 
Q 2069 2156 2228 2338 
Q 2531 2678 2651 2914 
Q 2772 3150 2772 3378 
Q 2772 3750 2511 3984 
Q 2250 4219 1831 4219 
Q 1534 4219 1204 4116 
Q 875 4013 500 3803 
L 500 4441 
Q 881 4594 1212 4672 
Q 1544 4750 1819 4750 
Q 2544 4750 2975 4387 
Q 3406 4025 3406 3419 
Q 3406 3131 3298 2873 
Q 3191 2616 2906 2266 
Q 2828 2175 2409 1742 
Q 1991 1309 1228 531 
z
" transform="scale(0.015625)"/>
     </defs>
     <use xlink:href="#DejaVuSans-6e"/>
     <use xlink:href="#DejaVuSans-77" x="63.378906"/>
     <use xlink:href="#DejaVuSans-6b" x="145.166016"/>
     <use xlink:href="#DejaVuSans-32" x="203.076172"/>
     <use xlink:href="#DejaVuSans-74" x="266.699219"/>
     <use xlink:href="#DejaVuSans-61" x="305.908203"/>
     <use xlink:href="#DejaVuSans-62" x="367.1875"/>
     <use xlink:href="#DejaVuSans-6c" x="430.664062"/>
     <use xlink:href="#DejaVuSans-65" x="458.447266"/>
     <use xlink:href="#DejaVuSans-20" x="519.970703"/>
     <use xlink:href="#DejaVuSans-b7" x="551.757812"/>
     <use xlink:href="#DejaVuSans-20" x="583.544922"/>
     <use xlink:href="#DejaVuSans-74" x="615.332031"/>
     <use xlink:href="#DejaVuSans-61" x="654.541016"/>
     <use xlink:href="#DejaVuSans-62" x="715.820312"/>
     <use xlink:href="#DejaVuSans-6c" x="779.296875"/>
     <use xlink:href="#DejaVuSans-65" x="807.080078"/>
     <use xlink:href="#DejaVuSans-32" x="868.603516"/>
     <use xlink:href="#DejaVuSans-6e" x="932.226562"/>
     <use xlink:href="#DejaVuSans-77" x="995.605469"/>
     <use xlink:href="#DejaVuSans-6b" x="1077.392578"/>
    </g>
    <!-- nhx2nwk · printlabel -->
    <g transform="translate(47.113903 176.86305) scale(0.075 -0.075)">
     <use xlink:href="#DejaVuSans-6e"/>
     <use xlink:href="#DejaVuSans-68" x="63.378906"/>
     <use xlink:href="#DejaVuSans-78" x="126.757812"/>
     <use xlink:href="#DejaVuSans-32" x="185.9375"/>
     <use xlink:href="#DejaVuSans-6e" x="249.560547"/>
     <use xlink:href="#DejaVuSans-77" x="312.939453"/>
     <use xlink:href="#DejaVuSans-6b" x="394.726562"/>
     <use xlink:href="#DejaVuSans-20" x="452.636719"/>
     <use xlink:href="#DejaVuSans-b7" x="484.423828"/>
     <use xlink:href="#DejaVuSans-20" x="516.210938"/>
     <use xlink:href="#DejaVuSans-70" x="547.998047"/>
     <use xlink:href="#DejaVuSans-72" x="611.474609"/>
     <use xlink:href="#DejaVuSans-69" x="652.587891"/>
     <use xlink:href="#DejaVuSans-6e" x="680.371094"/>
     <use xlink:href="#DejaVuSans-74" x="743.75"/>
     <use xlink:href="#DejaVuSans-6c" x="782.958984"/>
     <use xlink:href="#DejaVuSans-61" x="810.742188"/>
     <use xlink:href="#DejaVuSans-62" x="872.021484"/>
     <use xlink:href="#DejaVuSans-65" x="935.498047"/>
     <use xlink:href="#DejaVuSans-6c" x="997.021484"/>
    </g>
   </g>
   <g id="text_5">
    <!-- Transform  (13) -->
    <g transform="translate(179.347969 134.871253) scale(0.075 -0.075)">
     <defs>
      <path id="DejaVuSans-54" d="M -19 4666 
L 3928 4666 
L 3928 4134 
L 2272 4134 
L 2272 0 
L 1638 0 
L 1638 4134 
L -19 4134 
L -19 4666 
z
" transform="scale(0.015625)"/>
     </defs>
     <use xlink:href="#DejaVuSans-54"/>
     <use xlink:href="#DejaVuSans-72" x="46.333984"/>
     <use xlink:href="#DejaVuSans-61" x="87.447266"/>
     <use xlink:href="#DejaVuSans-6e" x="148.726562"/>
     <use xlink:href="#DejaVuSans-73" x="212.105469"/>
     <use xlink:href="#DejaVuSans-66" x="264.205078"/>
     <use xlink:href="#DejaVuSans-6f" x="299.410156"/>
     <use xlink:href="#DejaVuSans-72" x="360.591797"/>
     <use xlink:href="#DejaVuSans-6d" x="399.955078"/>
     <use xlink:href="#DejaVuSans-20" x="497.367188"/>
     <use xlink:href="#DejaVuSans-20" x="529.154297"/>
     <use xlink:href="#DejaVuSans-28" x="560.941406"/>
     <use xlink:href="#DejaVuSans-31" x="599.955078"/>
     <use xlink:href="#DejaVuSans-33" x="663.578125"/>
     <use xlink:href="#DejaVuSans-29" x="727.201172"/>
    </g>
    <!--  -->
    <g transform="translate(208.08 143.269612) scale(0.075 -0.075)"/>
    <!-- collapse · compose · drop -->
    <g transform="translate(160.091133 151.667972) scale(0.075 -0.075)">
     <use xlink:href="#DejaVuSans-63"/>
     <use xlink:href="#DejaVuSans-6f" x="54.980469"/>
     <use xlink:href="#DejaVuSans-6c" x="116.162109"/>
     <use xlink:href="#DejaVuSans-6c" x="143.945312"/>
     <use xlink:href="#DejaVuSans-61" x="171.728516"/>
     <use xlink:href="#DejaVuSans-70" x="233.007812"/>
     <use xlink:href="#DejaVuSans-73" x="296.484375"/>
     <use xlink:href="#DejaVuSans-65" x="348.583984"/>
     <use xlink:href="#DejaVuSans-20" x="410.107422"/>
     <use xlink:href="#DejaVuSans-b7" x="441.894531"/>
     <use xlink:href="#DejaVuSans-20" x="473.681641"/>
     <use xlink:href="#DejaVuSans-63" x="505.46875"/>
     <use xlink:href="#DejaVuSans-6f" x="560.449219"/>
     <use xlink:href="#DejaVuSans-6d" x="621.630859"/>
     <use xlink:href="#DejaVuSans-70" x="719.042969"/>
     <use xlink:href="#DejaVuSans-6f" x="782.519531"/>
     <use xlink:href="#DejaVuSans-73" x="843.701172"/>
     <use xlink:href="#DejaVuSans-65" x="895.800781"/>
     <use xlink:href="#DejaVuSans-20" x="957.324219"/>
     <use xlink:href="#DejaVuSans-b7" x="989.111328"/>
     <use xlink:href="#DejaVuSans-20" x="1020.898438"/>
     <use xlink:href="#DejaVuSans-64" x="1052.685547"/>
     <use xlink:href="#DejaVuSans-72" x="1116.162109"/>
     <use xlink:href="#DejaVuSans-6f" x="1155.025391"/>
     <use xlink:href="#DejaVuSans-70" x="1216.207031"/>
    </g>
    <!-- intersection · label · mark -->
    <g transform="translate(159.952266 160.066331) scale(0.075 -0.075)">
     <use xlink:href="#DejaVuSans-69"/>
     <use xlink:href="#DejaVuSans-6e" x="27.783203"/>
     <use xlink:href="#DejaVuSans-74" x="91.162109"/>
     <use xlink:href="#DejaVuSans-65" x="130.371094"/>
     <use xlink:href="#DejaVuSans-72" x="191.894531"/>
     <use xlink:href="#DejaVuSans-73" x="233.007812"/>
     <use xlink:href="#DejaVuSans-65" x="285.107422"/>
     <use xlink:href="#DejaVuSans-63" x="346.630859"/>
     <use xlink:href="#DejaVuSans-74" x="401.611328"/>
     <use xlink:href="#DejaVuSans-69" x="440.820312"/>
     <use xlink:href="#DejaVuSans-6f" x="468.603516"/>
     <use xlink:href="#DejaVuSans-6e" x="529.785156"/>
     <use xlink:href="#DejaVuSans-20" x="593.164062"/>
     <use xlink:href="#DejaVuSans-b7" x="624.951172"/>
     <use xlink:href="#DejaVuSans-20" x="656.738281"/>
     <use xlink:href="#DejaVuSans-6c" x="688.525391"/>
     <use xlink:href="#DejaVuSans-61" x="716.308594"/>
     <use xlink:href="#DejaVuSans-62" x="777.587891"/>
     <use xlink:href="#DejaVuSans-65" x="841.064453"/>
     <use xlink:href="#DejaVuSans-6c" x="902.587891"/>
     <use xlink:href="#DejaVuSans-20" x="930.371094"/>
     <use xlink:href="#DejaVuSans-b7" x="962.158203"/>
     <use xlink:href="#DejaVuSans-20" x="993.945312"/>
     <use xlink:href="#DejaVuSans-6d" x="1025.732422"/>
     <use xlink:href="#DejaVuSans-61" x="1123.144531"/>
     <use xlink:href="#DejaVuSans-72" x="1184.423828"/>
     <use xlink:href="#DejaVuSans-6b" x="1225.537109"/>
    </g>
    <!-- prune · rename · rescale -->
    <g transform="translate(162.119648 168.464691) scale(0.075 -0.075)">
     <use xlink:href="#DejaVuSans-70"/>
     <use xlink:href="#DejaVuSans-72" x="63.476562"/>
     <use xlink:href="#DejaVuSans-75" x="104.589844"/>
     <use xlink:href="#DejaVuSans-6e" x="167.96875"/>
     <use xlink:href="#DejaVuSans-65" x="231.347656"/>
     <use xlink:href="#DejaVuSans-20" x="292.871094"/>
     <use xlink:href="#DejaVuSans-b7" x="324.658203"/>
     <use xlink:href="#DejaVuSans-20" x="356.445312"/>
     <use xlink:href="#DejaVuSans-72" x="388.232422"/>
     <use xlink:href="#DejaVuSans-65" x="427.095703"/>
     <use xlink:href="#DejaVuSans-6e" x="488.619141"/>
     <use xlink:href="#DejaVuSans-61" x="551.998047"/>
     <use xlink:href="#DejaVuSans-6d" x="613.277344"/>
     <use xlink:href="#DejaVuSans-65" x="710.689453"/>
     <use xlink:href="#DejaVuSans-20" x="772.212891"/>
     <use xlink:href="#DejaVuSans-b7" x="804"/>
     <use xlink:href="#DejaVuSans-20" x="835.787109"/>
     <use xlink:href="#DejaVuSans-72" x="867.574219"/>
     <use xlink:href="#DejaVuSans-65" x="906.4375"/>
     <use xlink:href="#DejaVuSans-73" x="967.960938"/>
     <use xlink:href="#DejaVuSans-63" x="1020.060547"/>
     <use xlink:href="#DejaVuSans-61" x="1075.041016"/>
     <use xlink:href="#DejaVuSans-6c" x="1136.320312"/>
     <use xlink:href="#DejaVuSans-65" x="1164.103516"/>
    </g>
    <!-- root · shuffle · subtree -->
    <g transform="translate(166.463789 176.86305) scale(0.075 -0.075)">
     <use xlink:href="#DejaVuSans-72"/>
     <use xlink:href="#DejaVuSans-6f" x="38.863281"/>
     <use xlink:href="#DejaVuSans-6f" x="100.044922"/>
     <use xlink:href="#DejaVuSans-74" x="161.226562"/>
     <use xlink:href="#DejaVuSans-20" x="200.435547"/>
     <use xlink:href="#DejaVuSans-b7" x="232.222656"/>
     <use xlink:href="#DejaVuSans-20" x="264.009766"/>
     <use xlink:href="#DejaVuSans-73" x="295.796875"/>
     <use xlink:href="#DejaVuSans-68" x="347.896484"/>
     <use xlink:href="#DejaVuSans-75" x="411.275391"/>
     <use xlink:href="#DejaVuSans-66" x="474.654297"/>
     <use xlink:href="#DejaVuSans-66" x="509.859375"/>
     <use xlink:href="#DejaVuSans-6c" x="545.064453"/>
     <use xlink:href="#DejaVuSans-65" x="572.847656"/>
     <use xlink:href="#DejaVuSans-20" x="634.371094"/>
     <use xlink:href="#DejaVuSans-b7" x="666.158203"/>
     <use xlink:href="#DejaVuSans-20" x="697.945312"/>
     <use xlink:href="#DejaVuSans-73" x="729.732422"/>
     <use xlink:href="#DejaVuSans-75" x="781.832031"/>
     <use xlink:href="#DejaVuSans-62" x="845.210938"/>
     <use xlink:href="#DejaVuSans-74" x="908.6875"/>
     <use xlink:href="#DejaVuSans-72" x="947.896484"/>
     <use xlink:href="#DejaVuSans-65" x="986.759766"/>
     <use xlink:href="#DejaVuSans-65" x="1048.283203"/>
    </g>
    <!-- transfer -->
    <g transform="translate(193.271016 185.261409) scale(0.075 -0.075)">
     <use xlink:href="#DejaVuSans-74"/>
     <use xlink:href="#DejaVuSans-72" x="39.208984"/>
     <use xlink:href="#DejaVuSans-61" x="80.322266"/>
     <use xlink:href="#DejaVuSans-6e" x="141.601562"/>
     <use xlink:href="#DejaVuSans-73" x="204.980469"/>
     <use xlink:href="#DejaVuSans-66" x="257.080078"/>
     <use xlink:href="#DejaVuSans-65" x="292.285156"/>
     <use xlink:href="#DejaVuSans-72" x="353.808594"/>
    </g>
   </g>
   <g id="text_6">
    <!-- Compare &amp; summarize  (4) -->
    <g transform="translate(279.811331 147.468792) scale(0.075 -0.075)">
     <defs>
      <path id="DejaVuSans-43" d="M 4122 4306 
L 4122 3641 
Q 3803 3938 3442 4084 
Q 3081 4231 2675 4231 
Q 1875 4231 1450 3742 
Q 1025 3253 1025 2328 
Q 1025 1406 1450 917 
Q 1875 428 2675 428 
Q 3081 428 3442 575 
Q 3803 722 4122 1019 
L 4122 359 
Q 3791 134 3420 21 
Q 3050 -91 2638 -91 
Q 1578 -91 968 557 
Q 359 1206 359 2328 
Q 359 3453 968 4101 
Q 1578 4750 2638 4750 
Q 3056 4750 3426 4639 
Q 3797 4528 4122 4306 
z
" transform="scale(0.015625)"/>
      <path id="DejaVuSans-34" d="M 2419 4116 
L 825 1625 
L 2419 1625 
L 2419 4116 
z
M 2253 4666 
L 3047 4666 
L 3047 1625 
L 3713 1625 
L 3713 1100 
L 3047 1100 
L 3047 0 
L 2419 0 
L 2419 1100 
L 313 1100 
L 313 1709 
L 2253 4666 
z
" transform="scale(0.015625)"/>
     </defs>
     <use xlink:href="#DejaVuSans-43"/>
     <use xlink:href="#DejaVuSans-6f" x="69.824219"/>
     <use xlink:href="#DejaVuSans-6d" x="131.005859"/>
     <use xlink:href="#DejaVuSans-70" x="228.417969"/>
     <use xlink:href="#DejaVuSans-61" x="291.894531"/>
     <use xlink:href="#DejaVuSans-72" x="353.173828"/>
     <use xlink:href="#DejaVuSans-65" x="392.037109"/>
     <use xlink:href="#DejaVuSans-20" x="453.560547"/>
     <use xlink:href="#DejaVuSans-26" x="485.347656"/>
     <use xlink:href="#DejaVuSans-20" x="563.326172"/>
     <use xlink:href="#DejaVuSans-73" x="595.113281"/>
     <use xlink:href="#DejaVuSans-75" x="647.212891"/>
     <use xlink:href="#DejaVuSans-6d" x="710.591797"/>
     <use xlink:href="#DejaVuSans-6d" x="808.003906"/>
     <use xlink:href="#DejaVuSans-61" x="905.416016"/>
     <use xlink:href="#DejaVuSans-72" x="966.695312"/>
     <use xlink:href="#DejaVuSans-69" x="1007.808594"/>
     <use xlink:href="#DejaVuSans-7a" x="1035.591797"/>
     <use xlink:href="#DejaVuSans-65" x="1088.082031"/>
     <use xlink:href="#DejaVuSans-20" x="1149.605469"/>
     <use xlink:href="#DejaVuSans-20" x="1181.392578"/>
     <use xlink:href="#DejaVuSans-28" x="1213.179688"/>
     <use xlink:href="#DejaVuSans-34" x="1252.193359"/>
     <use xlink:href="#DejaVuSans-29" x="1315.816406"/>
    </g>
    <!--  -->
    <g transform="translate(330.6168 155.867152) scale(0.075 -0.075)"/>
    <!-- diff · dist -->
    <g transform="translate(314.13262 164.265511) scale(0.075 -0.075)">
     <use xlink:href="#DejaVuSans-64"/>
     <use xlink:href="#DejaVuSans-69" x="63.476562"/>
     <use xlink:href="#DejaVuSans-66" x="91.259766"/>
     <use xlink:href="#DejaVuSans-66" x="126.464844"/>
     <use xlink:href="#DejaVuSans-20" x="161.669922"/>
     <use xlink:href="#DejaVuSans-b7" x="193.457031"/>
     <use xlink:href="#DejaVuSans-20" x="225.244141"/>
     <use xlink:href="#DejaVuSans-64" x="257.03125"/>
     <use xlink:href="#DejaVuSans-69" x="320.507812"/>
     <use xlink:href="#DejaVuSans-73" x="348.291016"/>
     <use xlink:href="#DejaVuSans-74" x="400.390625"/>
    </g>
    <!-- cladefreq · consensus -->
    <g transform="translate(289.832034 172.66387) scale(0.075 -0.075)">
     <use xlink:href="#DejaVuSans-63"/>
     <use xlink:href="#DejaVuSans-6c" x="54.980469"/>
     <use xlink:href="#DejaVuSans-61" x="82.763672"/>
     <use xlink:href="#DejaVuSans-64" x="144.042969"/>
     <use xlink:href="#DejaVuSans-65" x="207.519531"/>
     <use xlink:href="#DejaVuSans-66" x="269.042969"/>
     <use xlink:href="#DejaVuSans-72" x="304.248047"/>
     <use xlink:href="#DejaVuSans-65" x="343.111328"/>
     <use xlink:href="#DejaVuSans-71" x="404.634766"/>
     <use xlink:href="#DejaVuSans-20" x="468.111328"/>
     <use xlink:href="#DejaVuSans-b7" x="499.898438"/>
     <use xlink:href="#DejaVuSans-20" x="531.685547"/>
     <use xlink:href="#DejaVuSans-63" x="563.472656"/>
     <use xlink:href="#DejaVuSans-6f" x="618.453125"/>
     <use xlink:href="#DejaVuSans-6e" x="679.634766"/>
     <use xlink:href="#DejaVuSans-73" x="743.013672"/>
     <use xlink:href="#DejaVuSans-65" x="795.113281"/>
     <use xlink:href="#DejaVuSans-6e" x="856.636719"/>
     <use xlink:href="#DejaVuSans-73" x="920.015625"/>
     <use xlink:href="#DejaVuSans-75" x="972.115234"/>
     <use xlink:href="#DejaVuSans-73" x="1035.494141"/>
    </g>
   </g>
   <g id="text_7">
    <!-- Use taxonomy &amp; traits  (5) -->
    <g transform="translate(94.11383 232.624632) scale(0.075 -0.075)">
     <defs>
      <path id="DejaVuSans-55" d="M 556 4666 
L 1191 4666 
L 1191 1831 
Q 1191 1081 1462 751 
Q 1734 422 2344 422 
Q 2950 422 3222 751 
Q 3494 1081 3494 1831 
L 3494 4666 
L 4128 4666 
L 4128 1753 
Q 4128 841 3676 375 
Q 3225 -91 2344 -91 
Q 1459 -91 1007 375 
Q 556 841 556 1753 
L 556 4666 
z
" transform="scale(0.015625)"/>
      <path id="DejaVuSans-79" d="M 2059 -325 
Q 1816 -950 1584 -1140 
Q 1353 -1331 966 -1331 
L 506 -1331 
L 506 -850 
L 844 -850 
Q 1081 -850 1212 -737 
Q 1344 -625 1503 -206 
L 1606 56 
L 191 3500 
L 800 3500 
L 1894 763 
L 2988 3500 
L 3597 3500 
L 2059 -325 
z
" transform="scale(0.015625)"/>
      <path id="DejaVuSans-35" d="M 691 4666 
L 3169 4666 
L 3169 4134 
L 1269 4134 
L 1269 2991 
Q 1406 3038 1543 3061 
Q 1681 3084 1819 3084 
Q 2600 3084 3056 2656 
Q 3513 2228 3513 1497 
Q 3513 744 3044 326 
Q 2575 -91 1722 -91 
Q 1428 -91 1123 -41 
Q 819 9 494 109 
L 494 744 
Q 775 591 1075 516 
Q 1375 441 1709 441 
Q 2250 441 2565 725 
Q 2881 1009 2881 1497 
Q 2881 1984 2565 2268 
Q 2250 2553 1709 2553 
Q 1456 2553 1204 2497 
Q 953 2441 691 2322 
L 691 4666 
z
" transform="scale(0.015625)"/>
     </defs>
     <use xlink:href="#DejaVuSans-55"/>
     <use xlink:href="#DejaVuSans-73" x="73.193359"/>
     <use xlink:href="#DejaVuSans-65" x="125.292969"/>
     <use xlink:href="#DejaVuSans-20" x="186.816406"/>
     <use xlink:href="#DejaVuSans-74" x="218.603516"/>
     <use xlink:href="#DejaVuSans-61" x="257.8125"/>
     <use xlink:href="#DejaVuSans-78" x="319.091797"/>
     <use xlink:href="#DejaVuSans-6f" x="375.146484"/>
     <use xlink:href="#DejaVuSans-6e" x="436.328125"/>
     <use xlink:href="#DejaVuSans-6f" x="499.707031"/>
     <use xlink:href="#DejaVuSans-6d" x="560.888672"/>
     <use xlink:href="#DejaVuSans-79" x="658.300781"/>
     <use xlink:href="#DejaVuSans-20" x="717.480469"/>
     <use xlink:href="#DejaVuSans-26" x="749.267578"/>
     <use xlink:href="#DejaVuSans-20" x="827.246094"/>
     <use xlink:href="#DejaVuSans-74" x="859.033203"/>
     <use xlink:href="#DejaVuSans-72" x="898.242188"/>
     <use xlink:href="#DejaVuSans-61" x="939.355469"/>
     <use xlink:href="#DejaVuSans-69" x="1000.634766"/>
     <use xlink:href="#DejaVuSans-74" x="1028.417969"/>
     <use xlink:href="#DejaVuSans-73" x="1067.626953"/>
     <use xlink:href="#DejaVuSans-20" x="1119.726562"/>
     <use xlink:href="#DejaVuSans-20" x="1151.513672"/>
     <use xlink:href="#DejaVuSans-28" x="1183.300781"/>
     <use xlink:href="#DejaVuSans-35" x="1222.314453"/>
     <use xlink:href="#DejaVuSans-29" x="1285.9375"/>
    </g>
    <!--  -->
    <g transform="translate(143.7984 241.022992) scale(0.075 -0.075)"/>
    <!-- annotate · constrain · monophyly -->
    <g transform="translate(81.485119 249.421351) scale(0.075 -0.075)">
     <use xlink:href="#DejaVuSans-61"/>
     <use xlink:href="#DejaVuSans-6e" x="61.279297"/>
     <use xlink:href="#DejaVuSans-6e" x="124.658203"/>
     <use xlink:href="#DejaVuSans-6f" x="188.037109"/>
     <use xlink:href="#DejaVuSans-74" x="249.21875"/>
     <use xlink:href="#DejaVuSans-61" x="288.427734"/>
     <use xlink:href="#DejaVuSans-74" x="349.707031"/>
     <use xlink:href="#DejaVuSans-65" x="388.916016"/>
     <use xlink:href="#DejaVuSans-20" x="450.439453"/>
     <use xlink:href="#DejaVuSans-b7" x="482.226562"/>
     <use xlink:href="#DejaVuSans-20" x="514.013672"/>
     <use xlink:href="#DejaVuSans-63" x="545.800781"/>
     <use xlink:href="#DejaVuSans-6f" x="600.78125"/>
     <use xlink:href="#DejaVuSans-6e" x="661.962891"/>
     <use xlink:href="#DejaVuSans-73" x="725.341797"/>
     <use xlink:href="#DejaVuSans-74" x="777.441406"/>
     <use xlink:href="#DejaVuSans-72" x="816.650391"/>
     <use xlink:href="#DejaVuSans-61" x="857.763672"/>
     <use xlink:href="#DejaVuSans-69" x="919.042969"/>
     <use xlink:href="#DejaVuSans-6e" x="946.826172"/>
     <use xlink:href="#DejaVuSans-20" x="1010.205078"/>
     <use xlink:href="#DejaVuSans-b7" x="1041.992188"/>
     <use xlink:href="#DejaVuSans-20" x="1073.779297"/>
     <use xlink:href="#DejaVuSans-6d" x="1105.566406"/>
     <use xlink:href="#DejaVuSans-6f" x="1202.978516"/>
     <use xlink:href="#DejaVuSans-6e" x="1264.160156"/>
     <use xlink:href="#DejaVuSans-6f" x="1327.539062"/>
     <use xlink:href="#DejaVuSans-70" x="1388.720703"/>
     <use xlink:href="#DejaVuSans-68" x="1452.197266"/>
     <use xlink:href="#DejaVuSans-79" x="1515.576172"/>
     <use xlink:href="#DejaVuSans-6c" x="1574.755859"/>
     <use xlink:href="#DejaVuSans-79" x="1602.539062"/>
    </g>
    <!-- sample · skim -->
    <g transform="translate(117.769298 257.81971) scale(0.075 -0.075)">
     <use xlink:href="#DejaVuSans-73"/>
     <use xlink:href="#DejaVuSans-61" x="52.099609"/>
     <use xlink:href="#DejaVuSans-6d" x="113.378906"/>
     <use xlink:href="#DejaVuSans-70" x="210.791016"/>
     <use xlink:href="#DejaVuSans-6c" x="274.267578"/>
     <use xlink:href="#DejaVuSans-65" x="302.050781"/>
     <use xlink:href="#DejaVuSans-20" x="363.574219"/>
     <use xlink:href="#DejaVuSans-b7" x="395.361328"/>
     <use xlink:href="#DejaVuSans-20" x="427.148438"/>
     <use xlink:href="#DejaVuSans-73" x="458.935547"/>
     <use xlink:href="#DejaVuSans-6b" x="511.035156"/>
     <use xlink:href="#DejaVuSans-69" x="568.945312"/>
     <use xlink:href="#DejaVuSans-6d" x="596.728516"/>
    </g>
   </g>
   <g id="text_8">
    <!-- Analyze &amp; present  (4) -->
    <g transform="translate(230.328202 232.624632) scale(0.075 -0.075)">
     <defs>
      <path id="DejaVuSans-41" d="M 2188 4044 
L 1331 1722 
L 3047 1722 
L 2188 4044 
z
M 1831 4666 
L 2547 4666 
L 4325 0 
L 3669 0 
L 3244 1197 
L 1141 1197 
L 716 0 
L 50 0 
L 1831 4666 
z
" transform="scale(0.015625)"/>
     </defs>
     <use xlink:href="#DejaVuSans-41"/>
     <use xlink:href="#DejaVuSans-6e" x="68.408203"/>
     <use xlink:href="#DejaVuSans-61" x="131.787109"/>
     <use xlink:href="#DejaVuSans-6c" x="193.066406"/>
     <use xlink:href="#DejaVuSans-79" x="220.849609"/>
     <use xlink:href="#DejaVuSans-7a" x="280.029297"/>
     <use xlink:href="#DejaVuSans-65" x="332.519531"/>
     <use xlink:href="#DejaVuSans-20" x="394.042969"/>
     <use xlink:href="#DejaVuSans-26" x="425.830078"/>
     <use xlink:href="#DejaVuSans-20" x="503.808594"/>
     <use xlink:href="#DejaVuSans-70" x="535.595703"/>
     <use xlink:href="#DejaVuSans-72" x="599.072266"/>
     <use xlink:href="#DejaVuSans-65" x="637.935547"/>
     <use xlink:href="#DejaVuSans-73" x="699.458984"/>
     <use xlink:href="#DejaVuSans-65" x="751.558594"/>
     <use xlink:href="#DejaVuSans-6e" x="813.082031"/>
     <use xlink:href="#DejaVuSans-74" x="876.460938"/>
     <use xlink:href="#DejaVuSans-20" x="915.669922"/>
     <use xlink:href="#DejaVuSans-20" x="947.457031"/>
     <use xlink:href="#DejaVuSans-28" x="979.244141"/>
     <use xlink:href="#DejaVuSans-34" x="1018.257812"/>
     <use xlink:href="#DejaVuSans-29" x="1081.880859"/>
    </g>
    <!--  -->
    <g transform="translate(272.3616 241.022992) scale(0.075 -0.075)"/>
    <!-- asr · mcmctree -->
    <g transform="translate(244.021561 249.421351) scale(0.075 -0.075)">
     <use xlink:href="#DejaVuSans-61"/>
     <use xlink:href="#DejaVuSans-73" x="61.279297"/>
     <use xlink:href="#DejaVuSans-72" x="113.378906"/>
     <use xlink:href="#DejaVuSans-20" x="154.492188"/>
     <use xlink:href="#DejaVuSans-b7" x="186.279297"/>
     <use xlink:href="#DejaVuSans-20" x="218.066406"/>
     <use xlink:href="#DejaVuSans-6d" x="249.853516"/>
     <use xlink:href="#DejaVuSans-63" x="347.265625"/>
     <use xlink:href="#DejaVuSans-6d" x="402.246094"/>
     <use xlink:href="#DejaVuSans-63" x="499.658203"/>
     <use xlink:href="#DejaVuSans-74" x="554.638672"/>
     <use xlink:href="#DejaVuSans-72" x="593.847656"/>
     <use xlink:href="#DejaVuSans-65" x="632.710938"/>
     <use xlink:href="#DejaVuSans-65" x="694.234375"/>
    </g>
    <!-- draw · image -->
    <g transform="translate(247.818436 257.81971) scale(0.075 -0.075)">
     <defs>
      <path id="DejaVuSans-67" d="M 2906 1791 
Q 2906 2416 2648 2759 
Q 2391 3103 1925 3103 
Q 1463 3103 1205 2759 
Q 947 2416 947 1791 
Q 947 1169 1205 825 
Q 1463 481 1925 481 
Q 2391 481 2648 825 
Q 2906 1169 2906 1791 
z
M 3481 434 
Q 3481 -459 3084 -895 
Q 2688 -1331 1869 -1331 
Q 1566 -1331 1297 -1286 
Q 1028 -1241 775 -1147 
L 775 -588 
Q 1028 -725 1275 -790 
Q 1522 -856 1778 -856 
Q 2344 -856 2625 -561 
Q 2906 -266 2906 331 
L 2906 616 
Q 2728 306 2450 153 
Q 2172 0 1784 0 
Q 1141 0 747 490 
Q 353 981 353 1791 
Q 353 2603 747 3093 
Q 1141 3584 1784 3584 
Q 2172 3584 2450 3431 
Q 2728 3278 2906 2969 
L 2906 3500 
L 3481 3500 
L 3481 434 
z
" transform="scale(0.015625)"/>
     </defs>
     <use xlink:href="#DejaVuSans-64"/>
     <use xlink:href="#DejaVuSans-72" x="63.476562"/>
     <use xlink:href="#DejaVuSans-61" x="104.589844"/>
     <use xlink:href="#DejaVuSans-77" x="165.869141"/>
     <use xlink:href="#DejaVuSans-20" x="247.65625"/>
     <use xlink:href="#DejaVuSans-b7" x="279.443359"/>
     <use xlink:href="#DejaVuSans-20" x="311.230469"/>
     <use xlink:href="#DejaVuSans-69" x="343.017578"/>
     <use xlink:href="#DejaVuSans-6d" x="370.800781"/>
     <use xlink:href="#DejaVuSans-61" x="468.212891"/>
     <use xlink:href="#DejaVuSans-67" x="529.492188"/>
     <use xlink:href="#DejaVuSans-65" x="592.96875"/>
    </g>
   </g>
   <g id="text_9">
    <!-- Shared outputs: stdout or path · documented tables · seeds · JSONL provenance audit -->
    <g transform="translate(42.678586 310.031279) scale(0.077 -0.077)">
     <defs>
      <path id="DejaVuSans-4a" d="M 628 4666 
L 1259 4666 
L 1259 325 
Q 1259 -519 939 -900 
Q 619 -1281 -91 -1281 
L -331 -1281 
L -331 -750 
L -134 -750 
Q 284 -750 456 -515 
Q 628 -281 628 325 
L 628 4666 
z
" transform="scale(0.015625)"/>
      <path id="DejaVuSans-4f" d="M 2522 4238 
Q 1834 4238 1429 3725 
Q 1025 3213 1025 2328 
Q 1025 1447 1429 934 
Q 1834 422 2522 422 
Q 3209 422 3611 934 
Q 4013 1447 4013 2328 
Q 4013 3213 3611 3725 
Q 3209 4238 2522 4238 
z
M 2522 4750 
Q 3503 4750 4090 4092 
Q 4678 3434 4678 2328 
Q 4678 1225 4090 567 
Q 3503 -91 2522 -91 
Q 1538 -91 948 565 
Q 359 1222 359 2328 
Q 359 3434 948 4092 
Q 1538 4750 2522 4750 
z
" transform="scale(0.015625)"/>
      <path id="DejaVuSans-4c" d="M 628 4666 
L 1259 4666 
L 1259 531 
L 3531 531 
L 3531 0 
L 628 0 
L 628 4666 
z
" transform="scale(0.015625)"/>
     </defs>
     <use xlink:href="#DejaVuSans-53"/>
     <use xlink:href="#DejaVuSans-68" x="63.476562"/>
     <use xlink:href="#DejaVuSans-61" x="126.855469"/>
     <use xlink:href="#DejaVuSans-72" x="188.134766"/>
     <use xlink:href="#DejaVuSans-65" x="226.998047"/>
     <use xlink:href="#DejaVuSans-64" x="288.521484"/>
     <use xlink:href="#DejaVuSans-20" x="351.998047"/>
     <use xlink:href="#DejaVuSans-6f" x="383.785156"/>
     <use xlink:href="#DejaVuSans-75" x="444.966797"/>
     <use xlink:href="#DejaVuSans-74" x="508.345703"/>
     <use xlink:href="#DejaVuSans-70" x="547.554688"/>
     <use xlink:href="#DejaVuSans-75" x="611.03125"/>
     <use xlink:href="#DejaVuSans-74" x="674.410156"/>
     <use xlink:href="#DejaVuSans-73" x="713.619141"/>
     <use xlink:href="#DejaVuSans-3a" x="765.71875"/>
     <use xlink:href="#DejaVuSans-20" x="799.410156"/>
     <use xlink:href="#DejaVuSans-73" x="831.197266"/>
     <use xlink:href="#DejaVuSans-74" x="883.296875"/>
     <use xlink:href="#DejaVuSans-64" x="922.505859"/>
     <use xlink:href="#DejaVuSans-6f" x="985.982422"/>
     <use xlink:href="#DejaVuSans-75" x="1047.164062"/>
     <use xlink:href="#DejaVuSans-74" x="1110.542969"/>
     <use xlink:href="#DejaVuSans-20" x="1149.751953"/>
     <use xlink:href="#DejaVuSans-6f" x="1181.539062"/>
     <use xlink:href="#DejaVuSans-72" x="1242.720703"/>
     <use xlink:href="#DejaVuSans-20" x="1283.833984"/>
     <use xlink:href="#DejaVuSans-70" x="1315.621094"/>
     <use xlink:href="#DejaVuSans-61" x="1379.097656"/>
     <use xlink:href="#DejaVuSans-74" x="1440.376953"/>
     <use xlink:href="#DejaVuSans-68" x="1479.585938"/>
     <use xlink:href="#DejaVuSans-20" x="1542.964844"/>
     <use xlink:href="#DejaVuSans-b7" x="1574.751953"/>
     <use xlink:href="#DejaVuSans-20" x="1606.539062"/>
     <use xlink:href="#DejaVuSans-64" x="1638.326172"/>
     <use xlink:href="#DejaVuSans-6f" x="1701.802734"/>
     <use xlink:href="#DejaVuSans-63" x="1762.984375"/>
     <use xlink:href="#DejaVuSans-75" x="1817.964844"/>
     <use xlink:href="#DejaVuSans-6d" x="1881.34375"/>
     <use xlink:href="#DejaVuSans-65" x="1978.755859"/>
     <use xlink:href="#DejaVuSans-6e" x="2040.279297"/>
     <use xlink:href="#DejaVuSans-74" x="2103.658203"/>
     <use xlink:href="#DejaVuSans-65" x="2142.867188"/>
     <use xlink:href="#DejaVuSans-64" x="2204.390625"/>
     <use xlink:href="#DejaVuSans-20" x="2267.867188"/>
     <use xlink:href="#DejaVuSans-74" x="2299.654297"/>
     <use xlink:href="#DejaVuSans-61" x="2338.863281"/>
     <use xlink:href="#DejaVuSans-62" x="2400.142578"/>
     <use xlink:href="#DejaVuSans-6c" x="2463.619141"/>
     <use xlink:href="#DejaVuSans-65" x="2491.402344"/>
     <use xlink:href="#DejaVuSans-73" x="2552.925781"/>
     <use xlink:href="#DejaVuSans-20" x="2605.025391"/>
     <use xlink:href="#DejaVuSans-b7" x="2636.8125"/>
     <use xlink:href="#DejaVuSans-20" x="2668.599609"/>
     <use xlink:href="#DejaVuSans-73" x="2700.386719"/>
     <use xlink:href="#DejaVuSans-65" x="2752.486328"/>
     <use xlink:href="#DejaVuSans-65" x="2814.009766"/>
     <use xlink:href="#DejaVuSans-64" x="2875.533203"/>
     <use xlink:href="#DejaVuSans-73" x="2939.009766"/>
     <use xlink:href="#DejaVuSans-20" x="2991.109375"/>
     <use xlink:href="#DejaVuSans-b7" x="3022.896484"/>
     <use xlink:href="#DejaVuSans-20" x="3054.683594"/>
     <use xlink:href="#DejaVuSans-4a" x="3086.470703"/>
     <use xlink:href="#DejaVuSans-53" x="3115.962891"/>
     <use xlink:href="#DejaVuSans-4f" x="3179.439453"/>
     <use xlink:href="#DejaVuSans-4e" x="3258.150391"/>
     <use xlink:href="#DejaVuSans-4c" x="3332.955078"/>
     <use xlink:href="#DejaVuSans-20" x="3388.667969"/>
     <use xlink:href="#DejaVuSans-70" x="3420.455078"/>
     <use xlink:href="#DejaVuSans-72" x="3483.931641"/>
     <use xlink:href="#DejaVuSans-6f" x="3522.794922"/>
     <use xlink:href="#DejaVuSans-76" x="3583.976562"/>
     <use xlink:href="#DejaVuSans-65" x="3643.15625"/>
     <use xlink:href="#DejaVuSans-6e" x="3704.679688"/>
     <use xlink:href="#DejaVuSans-61" x="3768.058594"/>
     <use xlink:href="#DejaVuSans-6e" x="3829.337891"/>
     <use xlink:href="#DejaVuSans-63" x="3892.716797"/>
     <use xlink:href="#DejaVuSans-65" x="3947.697266"/>
     <use xlink:href="#DejaVuSans-20" x="4009.220703"/>
     <use xlink:href="#DejaVuSans-61" x="4041.007812"/>
     <use xlink:href="#DejaVuSans-75" x="4102.287109"/>
     <use xlink:href="#DejaVuSans-64" x="4165.666016"/>
     <use xlink:href="#DejaVuSans-69" x="4229.142578"/>
     <use xlink:href="#DejaVuSans-74" x="4256.925781"/>
    </g>
   </g>
   <g id="text_10">
    <!-- Newick · TSV · annotated trees · audit records · figures · image manifests -->
    <g transform="translate(61.625 345.59566) scale(0.08 -0.08)">
     <defs>
      <path id="DejaVuSans-56" d="M 1831 0 
L 50 4666 
L 709 4666 
L 2188 738 
L 3669 4666 
L 4325 4666 
L 2547 0 
L 1831 0 
z
" transform="scale(0.015625)"/>
     </defs>
     <use xlink:href="#DejaVuSans-4e"/>
     <use xlink:href="#DejaVuSans-65" x="74.804688"/>
     <use xlink:href="#DejaVuSans-77" x="136.328125"/>
     <use xlink:href="#DejaVuSans-69" x="218.115234"/>
     <use xlink:href="#DejaVuSans-63" x="245.898438"/>
     <use xlink:href="#DejaVuSans-6b" x="300.878906"/>
     <use xlink:href="#DejaVuSans-20" x="358.789062"/>
     <use xlink:href="#DejaVuSans-b7" x="390.576172"/>
     <use xlink:href="#DejaVuSans-20" x="422.363281"/>
     <use xlink:href="#DejaVuSans-54" x="454.150391"/>
     <use xlink:href="#DejaVuSans-53" x="515.234375"/>
     <use xlink:href="#DejaVuSans-56" x="578.710938"/>
     <use xlink:href="#DejaVuSans-20" x="647.119141"/>
     <use xlink:href="#DejaVuSans-b7" x="678.90625"/>
     <use xlink:href="#DejaVuSans-20" x="710.693359"/>
     <use xlink:href="#DejaVuSans-61" x="742.480469"/>
     <use xlink:href="#DejaVuSans-6e" x="803.759766"/>
     <use xlink:href="#DejaVuSans-6e" x="867.138672"/>
     <use xlink:href="#DejaVuSans-6f" x="930.517578"/>
     <use xlink:href="#DejaVuSans-74" x="991.699219"/>
     <use xlink:href="#DejaVuSans-61" x="1030.908203"/>
     <use xlink:href="#DejaVuSans-74" x="1092.1875"/>
     <use xlink:href="#DejaVuSans-65" x="1131.396484"/>
     <use xlink:href="#DejaVuSans-64" x="1192.919922"/>
     <use xlink:href="#DejaVuSans-20" x="1256.396484"/>
     <use xlink:href="#DejaVuSans-74" x="1288.183594"/>
     <use xlink:href="#DejaVuSans-72" x="1327.392578"/>
     <use xlink:href="#DejaVuSans-65" x="1366.255859"/>
     <use xlink:href="#DejaVuSans-65" x="1427.779297"/>
     <use xlink:href="#DejaVuSans-73" x="1489.302734"/>
     <use xlink:href="#DejaVuSans-20" x="1541.402344"/>
     <use xlink:href="#DejaVuSans-b7" x="1573.189453"/>
     <use xlink:href="#DejaVuSans-20" x="1604.976562"/>
     <use xlink:href="#DejaVuSans-61" x="1636.763672"/>
     <use xlink:href="#DejaVuSans-75" x="1698.042969"/>
     <use xlink:href="#DejaVuSans-64" x="1761.421875"/>
     <use xlink:href="#DejaVuSans-69" x="1824.898438"/>
     <use xlink:href="#DejaVuSans-74" x="1852.681641"/>
     <use xlink:href="#DejaVuSans-20" x="1891.890625"/>
     <use xlink:href="#DejaVuSans-72" x="1923.677734"/>
     <use xlink:href="#DejaVuSans-65" x="1962.541016"/>
     <use xlink:href="#DejaVuSans-63" x="2024.064453"/>
     <use xlink:href="#DejaVuSans-6f" x="2079.044922"/>
     <use xlink:href="#DejaVuSans-72" x="2140.226562"/>
     <use xlink:href="#DejaVuSans-64" x="2179.589844"/>
     <use xlink:href="#DejaVuSans-73" x="2243.066406"/>
     <use xlink:href="#DejaVuSans-20" x="2295.166016"/>
     <use xlink:href="#DejaVuSans-b7" x="2326.953125"/>
     <use xlink:href="#DejaVuSans-20" x="2358.740234"/>
     <use xlink:href="#DejaVuSans-66" x="2390.527344"/>
     <use xlink:href="#DejaVuSans-69" x="2425.732422"/>
     <use xlink:href="#DejaVuSans-67" x="2453.515625"/>
     <use xlink:href="#DejaVuSans-75" x="2516.992188"/>
     <use xlink:href="#DejaVuSans-72" x="2580.371094"/>
     <use xlink:href="#DejaVuSans-65" x="2619.234375"/>
     <use xlink:href="#DejaVuSans-73" x="2680.757812"/>
     <use xlink:href="#DejaVuSans-20" x="2732.857422"/>
     <use xlink:href="#DejaVuSans-b7" x="2764.644531"/>
     <use xlink:href="#DejaVuSans-20" x="2796.431641"/>
     <use xlink:href="#DejaVuSans-69" x="2828.21875"/>
     <use xlink:href="#DejaVuSans-6d" x="2856.001953"/>
     <use xlink:href="#DejaVuSans-61" x="2953.414062"/>
     <use xlink:href="#DejaVuSans-67" x="3014.693359"/>
     <use xlink:href="#DejaVuSans-65" x="3078.169922"/>
     <use xlink:href="#DejaVuSans-20" x="3139.693359"/>
     <use xlink:href="#DejaVuSans-6d" x="3171.480469"/>
     <use xlink:href="#DejaVuSans-61" x="3268.892578"/>
     <use xlink:href="#DejaVuSans-6e" x="3330.171875"/>
     <use xlink:href="#DejaVuSans-69" x="3393.550781"/>
     <use xlink:href="#DejaVuSans-66" x="3421.333984"/>
     <use xlink:href="#DejaVuSans-65" x="3456.539062"/>
     <use xlink:href="#DejaVuSans-73" x="3518.0625"/>
     <use xlink:href="#DejaVuSans-74" x="3570.162109"/>
     <use xlink:href="#DejaVuSans-73" x="3609.371094"/>
    </g>
   </g>
  </g>
 </g>
 <defs>
  <clipPath id="pe3f9fcf8c7">
   <rect x="7.2" y="7.2" width="401.76" height="354.816"/>
  </clipPath>
 </defs>
</svg>
