<?xml version="1.0" encoding="utf-8" standalone="no"?>
<!DOCTYPE svg PUBLIC "-//W3C//DTD SVG 1.1//EN"
  "http://www.w3.org/Graphics/SVG/1.1/DTD/svg11.dtd">
<svg xmlns:xlink="http://www.w3.org/1999/xlink" width="416.16pt" height="369.216pt" viewBox="0 0 416.16 369.216" xmlns="http://www.w3.org/2000/svg" version="1.1">
 <metadata>
  <rdf:RDF xmlns:dc="http://purl.org/dc/elements/1.1/" xmlns:cc="http://creativecommons.org/ns#" xmlns:rdf="http://www.w3.org/1999/02/22-rdf-syntax-ns#">
   <cc:Work>
    <dc:type rdf:resource="http://purl.org/dc/dcmitype/StillImage"/>
    <dc:date>2026-07-17T14:48:09.545541</dc:date>
    <dc:format>image/svg+xml</dc:format>
    <dc:creator>
     <cc:Agent>
      <dc:title>Matplotlib v3.10.9, https://matplotlib.org/</dc:title>
     </cc:Agent>
    </dc:creator>
   </cc:Work>
  </rdf:RDF>
 </metadata>
 <defs>
  <style type="text/css">*{stroke-linejoin: round; stroke-linecap: butt}</style>
 </defs>
 <g id="figure_1">
  <g id="patch_1">
   <path d="M 0 369.216 
L 416.16 369.216 
L 416.16 0 
L 0 0 
z
" style="fill: #ffffff"/>
  </g>
  <g id="axes_1">
   <g id="patch_2">
    <path d="M 81.92736 78.872832 
L 334.23264 78.872832 
Q 341.46432 78.872832 341.46432 72.486144 
L 341.46432 53.680896 
Q 341.46432 47.294208 334.23264 47.294208 
L 81.92736 47.294208 
Q 74.69568 47.294208 74.69568 53.680896 
L 74.69568 72.486144 
Q 74.69568 78.872832 81.92736 78.872832 
z
" clip-path="url(#p458e01d62e)" style="fill: #dceaf3"/>
   </g>
   <g id="patch_3">
    <path d="M 208.08 76.613046 
Q 208.08 80.822227 208.08 83.913375 
" clip-path="url(#p458e01d62e)" style="fill: none; stroke: #666666; stroke-linecap: round"/>
    <path d="M 210.48 79.113375 
L 208.08 83.913375 
L 205.68 79.113375 
z
" clip-path="url(#p458e01d62e)" style="fill: #666666; stroke: #666666; stroke-linecap: round"/>
   </g>
   <g id="patch_4">
    <path d="M 37.73376 114.354432 
L 378.42624 114.354432 
Q 385.65792 114.354432 385.65792 107.967744 
L 385.65792 89.162496 
Q 385.65792 82.775808 378.42624 82.775808 
L 37.73376 82.775808 
Q 30.50208 82.775808 30.50208 89.162496 
L 30.50208 107.967744 
Q 30.50208 114.354432 37.73376 114.354432 
z
" clip-path="url(#p458e01d62e)" style="fill: #f2f2f2; stroke: #c8c8c8; stroke-width: 0.8; stroke-linejoin: miter"/>
   </g>
   <g id="patch_5">
    <path d="M 33.71616 195.962112 
L 137.37024 195.962112 
Q 144.60192 195.962112 144.60192 189.575424 
L 144.60192 126.418176 
Q 144.60192 120.031488 137.37024 120.031488 
L 33.71616 120.031488 
Q 26.48448 120.031488 26.48448 126.418176 
L 26.48448 189.575424 
Q 26.48448 195.962112 33.71616 195.962112 
z
" clip-path="url(#p458e01d62e)" style="fill: #e1f3ee; stroke: #b8b8b8; stroke-width: 0.8; stroke-linejoin: miter"/>
   </g>
   <g id="patch_6">
    <path d="M 156.25296 195.962112 
L 259.90704 195.962112 
Q 267.13872 195.962112 267.13872 189.575424 
L 267.13872 126.418176 
Q 267.13872 120.031488 259.90704 120.031488 
L 156.25296 120.031488 
Q 149.02128 120.031488 149.02128 126.418176 
L 149.02128 189.575424 
Q 149.02128 195.962112 156.25296 195.962112 
z
" clip-path="url(#p458e01d62e)" style="fill: #fff0db; stroke: #b8b8b8; stroke-width: 0.8; stroke-linejoin: miter"/>
   </g>
   <g id="patch_7">
    <path d="M 278.78976 195.962112 
L 382.44384 195.962112 
Q 389.67552 195.962112 389.67552 189.575424 
L 389.67552 126.418176 
Q 389.67552 120.031488 382.44384 120.031488 
L 278.78976 120.031488 
Q 271.55808 120.031488 271.55808 126.418176 
L 271.55808 189.575424 
Q 271.55808 195.962112 278.78976 195.962112 
z
" clip-path="url(#p458e01d62e)" style="fill: #e8e2f3; stroke: #b8b8b8; stroke-width: 0.8; stroke-linejoin: miter"/>
   </g>
   <g id="patch_8">
    <path d="M 91.97136 277.569792 
L 195.62544 277.569792 
Q 202.85712 277.569792 202.85712 271.183104 
L 202.85712 215.122176 
Q 202.85712 208.735488 195.62544 208.735488 
L 91.97136 208.735488 
Q 84.73968 208.735488 84.73968 215.122176 
L 84.73968 271.183104 
Q 84.73968 277.569792 91.97136 277.569792 
z
" clip-path="url(#p458e01d62e)" style="fill: #f8e1e3; stroke: #b8b8b8; stroke-width: 0.8; stroke-linejoin: miter"/>
   </g>
   <g id="patch_9">
    <path d="M 220.53456 277.569792 
L 324.18864 277.569792 
Q 331.42032 277.569792 331.42032 271.183104 
L 331.42032 215.122176 
Q 331.42032 208.735488 324.18864 208.735488 
L 220.53456 208.735488 
Q 213.30288 208.735488 213.30288 215.122176 
L 213.30288 271.183104 
Q 213.30288 277.569792 220.53456 277.569792 
z
" clip-path="url(#p458e01d62e)" style="fill: #e5edf8; stroke: #b8b8b8; stroke-width: 0.8; stroke-linejoin: miter"/>
   </g>
   <g id="patch_10">
    <path d="M 208.08 112.094646 
Q 208.08 116.303827 208.08 119.730385 
" clip-path="url(#p458e01d62e)" style="fill: none; stroke: #999999; stroke-width: 0.7; stroke-linecap: round"/>
    <path d="M 209.88 116.130385 
L 208.08 119.730385 
L 206.28 116.130385 
z
" clip-path="url(#p458e01d62e)" style="fill: #999999; stroke: #999999; stroke-width: 0.7; stroke-linecap: round"/>
   </g>
   <g id="patch_11">
    <path d="M 37.73376 323.695872 
L 378.42624 323.695872 
Q 385.65792 323.695872 385.65792 317.309184 
L 385.65792 298.503936 
Q 385.65792 292.117248 378.42624 292.117248 
L 37.73376 292.117248 
Q 30.50208 292.117248 30.50208 298.503936 
L 30.50208 317.309184 
Q 30.50208 323.695872 37.73376 323.695872 
z
" clip-path="url(#p458e01d62e)" style="fill: #f2f2f2; stroke: #c8c8c8; stroke-width: 0.8; stroke-linejoin: miter"/>
   </g>
   <g id="patch_12">
    <path d="M 208.08 275.313687 
Q 208.08 284.845543 208.08 293.594776 
" clip-path="url(#p458e01d62e)" style="fill: none; stroke: #999999; stroke-width: 0.7; stroke-linecap: round"/>
    <path d="M 209.88 289.994776 
L 208.08 293.594776 
L 206.28 289.994776 
z
" clip-path="url(#p458e01d62e)" style="fill: #999999; stroke: #999999; stroke-width: 0.7; stroke-linecap: round"/>
   </g>
   <g id="patch_13">
    <path d="M 53.80416 357.403392 
L 362.35584 357.403392 
Q 369.58752 357.403392 369.58752 351.016704 
L 369.58752 335.759616 
Q 369.58752 329.372928 362.35584 329.372928 
L 53.80416 329.372928 
Q 46.57248 329.372928 46.57248 335.759616 
L 46.57248 351.016704 
Q 46.57248 357.403392 53.80416 357.403392 
z
" clip-path="url(#p458e01d62e)" style="fill: #dceaf3"/>
   </g>
   <g id="patch_14">
    <path d="M 208.08 321.437385 
Q 208.08 326.535306 208.08 330.515194 
" clip-path="url(#p458e01d62e)" style="fill: none; stroke: #666666; stroke-linecap: round"/>
    <path d="M 210.08 326.515194 
L 208.08 330.515194 
L 206.08 326.515194 
z
" clip-path="url(#p458e01d62e)" style="fill: #666666; stroke: #666666; stroke-linecap: round"/>
   </g>
   <g id="text_1">
    <!-- Newick tree(s)  +  taxon/trait tables  +  reference trees -->
    <g transform="translate(83.582578 65.566957) scale(0.09 -0.09)">
     <defs>
      <path id="DejaVuSans-4e" d="M 628 4666 
L 1478 4666 
L 3547 763 
L 3547 4666 
L 4159 4666 
L 4159 0 
L 3309 0 
L 1241 3903 
L 1241 0 
L 628 0 
L 628 4666 
z
" transform="scale(0.015625)"/>
      <path id="DejaVuSans-65" d="M 3597 1894 
L 3597 1613 
L 953 1613 
Q 991 1019 1311 708 
Q 1631 397 2203 397 
Q 2534 397 2845 478 
Q 3156 559 3463 722 
L 3463 178 
Q 3153 47 2828 -22 
Q 2503 -91 2169 -91 
Q 1331 -91 842 396 
Q 353 884 353 1716 
Q 353 2575 817 3079 
Q 1281 3584 2069 3584 
Q 2775 3584 3186 3129 
Q 3597 2675 3597 1894 
z
M 3022 2063 
Q 3016 2534 2758 2815 
Q 2500 3097 2075 3097 
Q 1594 3097 1305 2825 
Q 1016 2553 972 2059 
L 3022 2063 
z
" transform="scale(0.015625)"/>
      <path id="DejaVuSans-77" d="M 269 3500 
L 844 3500 
L 1563 769 
L 2278 3500 
L 2956 3500 
L 3675 769 
L 4391 3500 
L 4966 3500 
L 4050 0 
L 3372 0 
L 2619 2869 
L 1863 0 
L 1184 0 
L 269 3500 
z
" transform="scale(0.015625)"/>
      <path id="DejaVuSans-69" d="M 603 3500 
L 1178 3500 
L 1178 0 
L 603 0 
L 603 3500 
z
M 603 4863 
L 1178 4863 
L 1178 4134 
L 603 4134 
L 603 4863 
z
" transform="scale(0.015625)"/>
      <path id="DejaVuSans-63" d="M 3122 3366 
L 3122 2828 
Q 2878 2963 2633 3030 
Q 2388 3097 2138 3097 
Q 1578 3097 1268 2742 
Q 959 2388 959 1747 
Q 959 1106 1268 751 
Q 1578 397 2138 397 
Q 2388 397 2633 464 
Q 2878 531 3122 666 
L 3122 134 
Q 2881 22 2623 -34 
Q 2366 -91 2075 -91 
Q 1284 -91 818 406 
Q 353 903 353 1747 
Q 353 2603 823 3093 
Q 1294 3584 2113 3584 
Q 2378 3584 2631 3529 
Q 2884 3475 3122 3366 
z
" transform="scale(0.015625)"/>
      <path id="DejaVuSans-6b" d="M 581 4863 
L 1159 4863 
L 1159 1991 
L 2875 3500 
L 3609 3500 
L 1753 1863 
L 3688 0 
L 2938 0 
L 1159 1709 
L 1159 0 
L 581 0 
L 581 4863 
z
" transform="scale(0.015625)"/>
      <path id="DejaVuSans-20" transform="scale(0.015625)"/>
      <path id="DejaVuSans-74" d="M 1172 4494 
L 1172 3500 
L 2356 3500 
L 2356 3053 
L 1172 3053 
L 1172 1153 
Q 1172 725 1289 603 
Q 1406 481 1766 481 
L 2356 481 
L 2356 0 
L 1766 0 
Q 1100 0 847 248 
Q 594 497 594 1153 
L 594 3053 
L 172 3053 
L 172 3500 
L 594 3500 
L 594 4494 
L 1172 4494 
z
" transform="scale(0.015625)"/>
      <path id="DejaVuSans-72" d="M 2631 2963 
Q 2534 3019 2420 3045 
Q 2306 3072 2169 3072 
Q 1681 3072 1420 2755 
Q 1159 2438 1159 1844 
L 1159 0 
L 581 0 
L 581 3500 
L 1159 3500 
L 1159 2956 
Q 1341 3275 1631 3429 
Q 1922 3584 2338 3584 
Q 2397 3584 2469 3576 
Q 2541 3569 2628 3553 
L 2631 2963 
z
" transform="scale(0.015625)"/>
      <path id="DejaVuSans-28" d="M 1984 4856 
Q 1566 4138 1362 3434 
Q 1159 2731 1159 2009 
Q 1159 1288 1364 580 
Q 1569 -128 1984 -844 
L 1484 -844 
Q 1016 -109 783 600 
Q 550 1309 550 2009 
Q 550 2706 781 3412 
Q 1013 4119 1484 4856 
L 1984 4856 
z
" transform="scale(0.015625)"/>
      <path id="DejaVuSans-73" d="M 2834 3397 
L 2834 2853 
Q 2591 2978 2328 3040 
Q 2066 3103 1784 3103 
Q 1356 3103 1142 2972 
Q 928 2841 928 2578 
Q 928 2378 1081 2264 
Q 1234 2150 1697 2047 
L 1894 2003 
Q 2506 1872 2764 1633 
Q 3022 1394 3022 966 
Q 3022 478 2636 193 
Q 2250 -91 1575 -91 
Q 1294 -91 989 -36 
Q 684 19 347 128 
L 347 722 
Q 666 556 975 473 
Q 1284 391 1588 391 
Q 1994 391 2212 530 
Q 2431 669 2431 922 
Q 2431 1156 2273 1281 
Q 2116 1406 1581 1522 
L 1381 1569 
Q 847 1681 609 1914 
Q 372 2147 372 2553 
Q 372 3047 722 3315 
Q 1072 3584 1716 3584 
Q 2034 3584 2315 3537 
Q 2597 3491 2834 3397 
z
" transform="scale(0.015625)"/>
      <path id="DejaVuSans-29" d="M 513 4856 
L 1013 4856 
Q 1481 4119 1714 3412 
Q 1947 2706 1947 2009 
Q 1947 1309 1714 600 
Q 1481 -109 1013 -844 
L 513 -844 
Q 928 -128 1133 580 
Q 1338 1288 1338 2009 
Q 1338 2731 1133 3434 
Q 928 4138 513 4856 
z
" transform="scale(0.015625)"/>
      <path id="DejaVuSans-2b" d="M 2944 4013 
L 2944 2272 
L 4684 2272 
L 4684 1741 
L 2944 1741 
L 2944 0 
L 2419 0 
L 2419 1741 
L 678 1741 
L 678 2272 
L 2419 2272 
L 2419 4013 
L 2944 4013 
z
" transform="scale(0.015625)"/>
      <path id="DejaVuSans-61" d="M 2194 1759 
Q 1497 1759 1228 1600 
Q 959 1441 959 1056 
Q 959 750 1161 570 
Q 1363 391 1709 391 
Q 2188 391 2477 730 
Q 2766 1069 2766 1631 
L 2766 1759 
L 2194 1759 
z
M 3341 1997 
L 3341 0 
L 2766 0 
L 2766 531 
Q 2569 213 2275 61 
Q 1981 -91 1556 -91 
Q 1019 -91 701 211 
Q 384 513 384 1019 
Q 384 1609 779 1909 
Q 1175 2209 1959 2209 
L 2766 2209 
L 2766 2266 
Q 2766 2663 2505 2880 
Q 2244 3097 1772 3097 
Q 1472 3097 1187 3025 
Q 903 2953 641 2809 
L 641 3341 
Q 956 3463 1253 3523 
Q 1550 3584 1831 3584 
Q 2591 3584 2966 3190 
Q 3341 2797 3341 1997 
z
" transform="scale(0.015625)"/>
      <path id="DejaVuSans-78" d="M 3513 3500 
L 2247 1797 
L 3578 0 
L 2900 0 
L 1881 1375 
L 863 0 
L 184 0 
L 1544 1831 
L 300 3500 
L 978 3500 
L 1906 2253 
L 2834 3500 
L 3513 3500 
z
" transform="scale(0.015625)"/>
      <path id="DejaVuSans-6f" d="M 1959 3097 
Q 1497 3097 1228 2736 
Q 959 2375 959 1747 
Q 959 1119 1226 758 
Q 1494 397 1959 397 
Q 2419 397 2687 759 
Q 2956 1122 2956 1747 
Q 2956 2369 2687 2733 
Q 2419 3097 1959 3097 
z
M 1959 3584 
Q 2709 3584 3137 3096 
Q 3566 2609 3566 1747 
Q 3566 888 3137 398 
Q 2709 -91 1959 -91 
Q 1206 -91 779 398 
Q 353 888 353 1747 
Q 353 2609 779 3096 
Q 1206 3584 1959 3584 
z
" transform="scale(0.015625)"/>
      <path id="DejaVuSans-6e" d="M 3513 2113 
L 3513 0 
L 2938 0 
L 2938 2094 
Q 2938 2591 2744 2837 
Q 2550 3084 2163 3084 
Q 1697 3084 1428 2787 
Q 1159 2491 1159 1978 
L 1159 0 
L 581 0 
L 581 3500 
L 1159 3500 
L 1159 2956 
Q 1366 3272 1645 3428 
Q 1925 3584 2291 3584 
Q 2894 3584 3203 3211 
Q 3513 2838 3513 2113 
z
" transform="scale(0.015625)"/>
      <path id="DejaVuSans-2f" d="M 1625 4666 
L 2156 4666 
L 531 -594 
L 0 -594 
L 1625 4666 
z
" transform="scale(0.015625)"/>
      <path id="DejaVuSans-62" d="M 3116 1747 
Q 3116 2381 2855 2742 
Q 2594 3103 2138 3103 
Q 1681 3103 1420 2742 
Q 1159 2381 1159 1747 
Q 1159 1113 1420 752 
Q 1681 391 2138 391 
Q 2594 391 2855 752 
Q 3116 1113 3116 1747 
z
M 1159 2969 
Q 1341 3281 1617 3432 
Q 1894 3584 2278 3584 
Q 2916 3584 3314 3078 
Q 3713 2572 3713 1747 
Q 3713 922 3314 415 
Q 2916 -91 2278 -91 
Q 1894 -91 1617 61 
Q 1341 213 1159 525 
L 1159 0 
L 581 0 
L 581 4863 
L 1159 4863 
L 1159 2969 
z
" transform="scale(0.015625)"/>
      <path id="DejaVuSans-6c" d="M 603 4863 
L 1178 4863 
L 1178 0 
L 603 0 
L 603 4863 
z
" transform="scale(0.015625)"/>
      <path id="DejaVuSans-66" d="M 2375 4863 
L 2375 4384 
L 1825 4384 
Q 1516 4384 1395 4259 
Q 1275 4134 1275 3809 
L 1275 3500 
L 2222 3500 
L 2222 3053 
L 1275 3053 
L 1275 0 
L 697 0 
L 697 3053 
L 147 3053 
L 147 3500 
L 697 3500 
L 697 3744 
Q 697 4328 969 4595 
Q 1241 4863 1831 4863 
L 2375 4863 
z
" transform="scale(0.015625)"/>
     </defs>
     <use xlink:href="#DejaVuSans-4e"/>
     <use xlink:href="#DejaVuSans-65" transform="translate(74.804688 0)"/>
     <use xlink:href="#DejaVuSans-77" transform="translate(136.328125 0)"/>
     <use xlink:href="#DejaVuSans-69" transform="translate(218.115234 0)"/>
     <use xlink:href="#DejaVuSans-63" transform="translate(245.898438 0)"/>
     <use xlink:href="#DejaVuSans-6b" transform="translate(300.878906 0)"/>
     <use xlink:href="#DejaVuSans-20" transform="translate(358.789062 0)"/>
     <use xlink:href="#DejaVuSans-74" transform="translate(390.576172 0)"/>
     <use xlink:href="#DejaVuSans-72" transform="translate(429.785156 0)"/>
     <use xlink:href="#DejaVuSans-65" transform="translate(468.648438 0)"/>
     <use xlink:href="#DejaVuSans-65" transform="translate(530.171875 0)"/>
     <use xlink:href="#DejaVuSans-28" transform="translate(591.695312 0)"/>
     <use xlink:href="#DejaVuSans-73" transform="translate(630.708984 0)"/>
     <use xlink:href="#DejaVuSans-29" transform="translate(682.808594 0)"/>
     <use xlink:href="#DejaVuSans-20" transform="translate(721.822266 0)"/>
     <use xlink:href="#DejaVuSans-20" transform="translate(753.609375 0)"/>
     <use xlink:href="#DejaVuSans-2b" transform="translate(785.396484 0)"/>
     <use xlink:href="#DejaVuSans-20" transform="translate(869.185547 0)"/>
     <use xlink:href="#DejaVuSans-20" transform="translate(900.972656 0)"/>
     <use xlink:href="#DejaVuSans-74" transform="translate(932.759766 0)"/>
     <use xlink:href="#DejaVuSans-61" transform="translate(971.96875 0)"/>
     <use xlink:href="#DejaVuSans-78" transform="translate(1033.248047 0)"/>
     <use xlink:href="#DejaVuSans-6f" transform="translate(1089.302734 0)"/>
     <use xlink:href="#DejaVuSans-6e" transform="translate(1150.484375 0)"/>
     <use xlink:href="#DejaVuSans-2f" transform="translate(1213.863281 0)"/>
     <use xlink:href="#DejaVuSans-74" transform="translate(1247.554688 0)"/>
     <use xlink:href="#DejaVuSans-72" transform="translate(1286.763672 0)"/>
     <use xlink:href="#DejaVuSans-61" transform="translate(1327.876953 0)"/>
     <use xlink:href="#DejaVuSans-69" transform="translate(1389.15625 0)"/>
     <use xlink:href="#DejaVuSans-74" transform="translate(1416.939453 0)"/>
     <use xlink:href="#DejaVuSans-20" transform="translate(1456.148438 0)"/>
     <use xlink:href="#DejaVuSans-74" transform="translate(1487.935547 0)"/>
     <use xlink:href="#DejaVuSans-61" transform="translate(1527.144531 0)"/>
     <use xlink:href="#DejaVuSans-62" transform="translate(1588.423828 0)"/>
     <use xlink:href="#DejaVuSans-6c" transform="translate(1651.900391 0)"/>
     <use xlink:href="#DejaVuSans-65" transform="translate(1679.683594 0)"/>
     <use xlink:href="#DejaVuSans-73" transform="translate(1741.207031 0)"/>
     <use xlink:href="#DejaVuSans-20" transform="translate(1793.306641 0)"/>
     <use xlink:href="#DejaVuSans-20" transform="translate(1825.09375 0)"/>
     <use xlink:href="#DejaVuSans-2b" transform="translate(1856.880859 0)"/>
     <use xlink:href="#DejaVuSans-20" transform="translate(1940.669922 0)"/>
     <use xlink:href="#DejaVuSans-20" transform="translate(1972.457031 0)"/>
     <use xlink:href="#DejaVuSans-72" transform="translate(2004.244141 0)"/>
     <use xlink:href="#DejaVuSans-65" transform="translate(2043.107422 0)"/>
     <use xlink:href="#DejaVuSans-66" transform="translate(2104.630859 0)"/>
     <use xlink:href="#DejaVuSans-65" transform="translate(2139.835938 0)"/>
     <use xlink:href="#DejaVuSans-72" transform="translate(2201.359375 0)"/>
     <use xlink:href="#DejaVuSans-65" transform="translate(2240.222656 0)"/>
     <use xlink:href="#DejaVuSans-6e" transform="translate(2301.746094 0)"/>
     <use xlink:href="#DejaVuSans-63" transform="translate(2365.125 0)"/>
     <use xlink:href="#DejaVuSans-65" transform="translate(2420.105469 0)"/>
     <use xlink:href="#DejaVuSans-20" transform="translate(2481.628906 0)"/>
     <use xlink:href="#DejaVuSans-74" transform="translate(2513.416016 0)"/>
     <use xlink:href="#DejaVuSans-72" transform="translate(2552.625 0)"/>
     <use xlink:href="#DejaVuSans-65" transform="translate(2591.488281 0)"/>
     <use xlink:href="#DejaVuSans-65" transform="translate(2653.011719 0)"/>
     <use xlink:href="#DejaVuSans-73" transform="translate(2714.535156 0)"/>
    </g>
   </g>
   <g id="text_2">
    <!-- 33 stdin defaults  ·  31 stdout defaults  ·  612 tests -->
    <g style="fill: #666666" transform="translate(112.882148 41.202971) scale(0.075 -0.075)">
     <defs>
      <path id="DejaVuSans-33" d="M 2597 2516 
Q 3050 2419 3304 2112 
Q 3559 1806 3559 1356 
Q 3559 666 3084 287 
Q 2609 -91 1734 -91 
Q 1441 -91 1130 -33 
Q 819 25 488 141 
L 488 750 
Q 750 597 1062 519 
Q 1375 441 1716 441 
Q 2309 441 2620 675 
Q 2931 909 2931 1356 
Q 2931 1769 2642 2001 
Q 2353 2234 1838 2234 
L 1294 2234 
L 1294 2753 
L 1863 2753 
Q 2328 2753 2575 2939 
Q 2822 3125 2822 3475 
Q 2822 3834 2567 4026 
Q 2313 4219 1838 4219 
Q 1578 4219 1281 4162 
Q 984 4106 628 3988 
L 628 4550 
Q 988 4650 1302 4700 
Q 1616 4750 1894 4750 
Q 2613 4750 3031 4423 
Q 3450 4097 3450 3541 
Q 3450 3153 3228 2886 
Q 3006 2619 2597 2516 
z
" transform="scale(0.015625)"/>
      <path id="DejaVuSans-64" d="M 2906 2969 
L 2906 4863 
L 3481 4863 
L 3481 0 
L 2906 0 
L 2906 525 
Q 2725 213 2448 61 
Q 2172 -91 1784 -91 
Q 1150 -91 751 415 
Q 353 922 353 1747 
Q 353 2572 751 3078 
Q 1150 3584 1784 3584 
Q 2172 3584 2448 3432 
Q 2725 3281 2906 2969 
z
M 947 1747 
Q 947 1113 1208 752 
Q 1469 391 1925 391 
Q 2381 391 2643 752 
Q 2906 1113 2906 1747 
Q 2906 2381 2643 2742 
Q 2381 3103 1925 3103 
Q 1469 3103 1208 2742 
Q 947 2381 947 1747 
z
" transform="scale(0.015625)"/>
      <path id="DejaVuSans-75" d="M 544 1381 
L 544 3500 
L 1119 3500 
L 1119 1403 
Q 1119 906 1312 657 
Q 1506 409 1894 409 
Q 2359 409 2629 706 
Q 2900 1003 2900 1516 
L 2900 3500 
L 3475 3500 
L 3475 0 
L 2900 0 
L 2900 538 
Q 2691 219 2414 64 
Q 2138 -91 1772 -91 
Q 1169 -91 856 284 
Q 544 659 544 1381 
z
M 1991 3584 
L 1991 3584 
z
" transform="scale(0.015625)"/>
      <path id="DejaVuSans-b7" d="M 684 2619 
L 1344 2619 
L 1344 1825 
L 684 1825 
L 684 2619 
z
" transform="scale(0.015625)"/>
      <path id="DejaVuSans-31" d="M 794 531 
L 1825 531 
L 1825 4091 
L 703 3866 
L 703 4441 
L 1819 4666 
L 2450 4666 
L 2450 531 
L 3481 531 
L 3481 0 
L 794 0 
L 794 531 
z
" transform="scale(0.015625)"/>
      <path id="DejaVuSans-36" d="M 2113 2584 
Q 1688 2584 1439 2293 
Q 1191 2003 1191 1497 
Q 1191 994 1439 701 
Q 1688 409 2113 409 
Q 2538 409 2786 701 
Q 3034 994 3034 1497 
Q 3034 2003 2786 2293 
Q 2538 2584 2113 2584 
z
M 3366 4563 
L 3366 3988 
Q 3128 4100 2886 4159 
Q 2644 4219 2406 4219 
Q 1781 4219 1451 3797 
Q 1122 3375 1075 2522 
Q 1259 2794 1537 2939 
Q 1816 3084 2150 3084 
Q 2853 3084 3261 2657 
Q 3669 2231 3669 1497 
Q 3669 778 3244 343 
Q 2819 -91 2113 -91 
Q 1303 -91 875 529 
Q 447 1150 447 2328 
Q 447 3434 972 4092 
Q 1497 4750 2381 4750 
Q 2619 4750 2861 4703 
Q 3103 4656 3366 4563 
z
" transform="scale(0.015625)"/>
      <path id="DejaVuSans-32" d="M 1228 531 
L 3431 531 
L 3431 0 
L 469 0 
L 469 531 
Q 828 903 1448 1529 
Q 2069 2156 2228 2338 
Q 2531 2678 2651 2914 
Q 2772 3150 2772 3378 
Q 2772 3750 2511 3984 
Q 2250 4219 1831 4219 
Q 1534 4219 1204 4116 
Q 875 4013 500 3803 
L 500 4441 
Q 881 4594 1212 4672 
Q 1544 4750 1819 4750 
Q 2544 4750 2975 4387 
Q 3406 4025 3406 3419 
Q 3406 3131 3298 2873 
Q 3191 2616 2906 2266 
Q 2828 2175 2409 1742 
Q 1991 1309 1228 531 
z
" transform="scale(0.015625)"/>
     </defs>
     <use xlink:href="#DejaVuSans-33"/>
     <use xlink:href="#DejaVuSans-33" transform="translate(63.623047 0)"/>
     <use xlink:href="#DejaVuSans-20" transform="translate(127.246094 0)"/>
     <use xlink:href="#DejaVuSans-73" transform="translate(159.033203 0)"/>
     <use xlink:href="#DejaVuSans-74" transform="translate(211.132812 0)"/>
     <use xlink:href="#DejaVuSans-64" transform="translate(250.341797 0)"/>
     <use xlink:href="#DejaVuSans-69" transform="translate(313.818359 0)"/>
     <use xlink:href="#DejaVuSans-6e" transform="translate(341.601562 0)"/>
     <use xlink:href="#DejaVuSans-20" transform="translate(404.980469 0)"/>
     <use xlink:href="#DejaVuSans-64" transform="translate(436.767578 0)"/>
     <use xlink:href="#DejaVuSans-65" transform="translate(500.244141 0)"/>
     <use xlink:href="#DejaVuSans-66" transform="translate(561.767578 0)"/>
     <use xlink:href="#DejaVuSans-61" transform="translate(596.972656 0)"/>
     <use xlink:href="#DejaVuSans-75" transform="translate(658.251953 0)"/>
     <use xlink:href="#DejaVuSans-6c" transform="translate(721.630859 0)"/>
     <use xlink:href="#DejaVuSans-74" transform="translate(749.414062 0)"/>
     <use xlink:href="#DejaVuSans-73" transform="translate(788.623047 0)"/>
     <use xlink:href="#DejaVuSans-20" transform="translate(840.722656 0)"/>
     <use xlink:href="#DejaVuSans-20" transform="translate(872.509766 0)"/>
     <use xlink:href="#DejaVuSans-b7" transform="translate(904.296875 0)"/>
     <use xlink:href="#DejaVuSans-20" transform="translate(936.083984 0)"/>
     <use xlink:href="#DejaVuSans-20" transform="translate(967.871094 0)"/>
     <use xlink:href="#DejaVuSans-33" transform="translate(999.658203 0)"/>
     <use xlink:href="#DejaVuSans-31" transform="translate(1063.28125 0)"/>
     <use xlink:href="#DejaVuSans-20" transform="translate(1126.904297 0)"/>
     <use xlink:href="#DejaVuSans-73" transform="translate(1158.691406 0)"/>
     <use xlink:href="#DejaVuSans-74" transform="translate(1210.791016 0)"/>
     <use xlink:href="#DejaVuSans-64" transform="translate(1250 0)"/>
     <use xlink:href="#DejaVuSans-6f" transform="translate(1313.476562 0)"/>
     <use xlink:href="#DejaVuSans-75" transform="translate(1374.658203 0)"/>
     <use xlink:href="#DejaVuSans-74" transform="translate(1438.037109 0)"/>
     <use xlink:href="#DejaVuSans-20" transform="translate(1477.246094 0)"/>
     <use xlink:href="#DejaVuSans-64" transform="translate(1509.033203 0)"/>
     <use xlink:href="#DejaVuSans-65" transform="translate(1572.509766 0)"/>
     <use xlink:href="#DejaVuSans-66" transform="translate(1634.033203 0)"/>
     <use xlink:href="#DejaVuSans-61" transform="translate(1669.238281 0)"/>
     <use xlink:href="#DejaVuSans-75" transform="translate(1730.517578 0)"/>
     <use xlink:href="#DejaVuSans-6c" transform="translate(1793.896484 0)"/>
     <use xlink:href="#DejaVuSans-74" transform="translate(1821.679688 0)"/>
     <use xlink:href="#DejaVuSans-73" transform="translate(1860.888672 0)"/>
     <use xlink:href="#DejaVuSans-20" transform="translate(1912.988281 0)"/>
     <use xlink:href="#DejaVuSans-20" transform="translate(1944.775391 0)"/>
     <use xlink:href="#DejaVuSans-b7" transform="translate(1976.5625 0)"/>
     <use xlink:href="#DejaVuSans-20" transform="translate(2008.349609 0)"/>
     <use xlink:href="#DejaVuSans-20" transform="translate(2040.136719 0)"/>
     <use xlink:href="#DejaVuSans-36" transform="translate(2071.923828 0)"/>
     <use xlink:href="#DejaVuSans-31" transform="translate(2135.546875 0)"/>
     <use xlink:href="#DejaVuSans-32" transform="translate(2199.169922 0)"/>
     <use xlink:href="#DejaVuSans-20" transform="translate(2262.792969 0)"/>
     <use xlink:href="#DejaVuSans-74" transform="translate(2294.580078 0)"/>
     <use xlink:href="#DejaVuSans-65" transform="translate(2333.789062 0)"/>
     <use xlink:href="#DejaVuSans-73" transform="translate(2395.3125 0)"/>
     <use xlink:href="#DejaVuSans-74" transform="translate(2447.412109 0)"/>
     <use xlink:href="#DejaVuSans-73" transform="translate(2486.621094 0)"/>
    </g>
   </g>
   <g id="text_3">
    <!-- Shared inputs: stdin or path · explicit/automatic Newick formats · quoted-name control -->
    <g transform="translate(34.233125 100.77262) scale(0.08 -0.08)">
     <defs>
      <path id="DejaVuSans-53" d="M 3425 4513 
L 3425 3897 
Q 3066 4069 2747 4153 
Q 2428 4238 2131 4238 
Q 1616 4238 1336 4038 
Q 1056 3838 1056 3469 
Q 1056 3159 1242 3001 
Q 1428 2844 1947 2747 
L 2328 2669 
Q 3034 2534 3370 2195 
Q 3706 1856 3706 1288 
Q 3706 609 3251 259 
Q 2797 -91 1919 -91 
Q 1588 -91 1214 -16 
Q 841 59 441 206 
L 441 856 
Q 825 641 1194 531 
Q 1563 422 1919 422 
Q 2459 422 2753 634 
Q 3047 847 3047 1241 
Q 3047 1584 2836 1778 
Q 2625 1972 2144 2069 
L 1759 2144 
Q 1053 2284 737 2584 
Q 422 2884 422 3419 
Q 422 4038 858 4394 
Q 1294 4750 2059 4750 
Q 2388 4750 2728 4690 
Q 3069 4631 3425 4513 
z
" transform="scale(0.015625)"/>
      <path id="DejaVuSans-68" d="M 3513 2113 
L 3513 0 
L 2938 0 
L 2938 2094 
Q 2938 2591 2744 2837 
Q 2550 3084 2163 3084 
Q 1697 3084 1428 2787 
Q 1159 2491 1159 1978 
L 1159 0 
L 581 0 
L 581 4863 
L 1159 4863 
L 1159 2956 
Q 1366 3272 1645 3428 
Q 1925 3584 2291 3584 
Q 2894 3584 3203 3211 
Q 3513 2838 3513 2113 
z
" transform="scale(0.015625)"/>
      <path id="DejaVuSans-70" d="M 1159 525 
L 1159 -1331 
L 581 -1331 
L 581 3500 
L 1159 3500 
L 1159 2969 
Q 1341 3281 1617 3432 
Q 1894 3584 2278 3584 
Q 2916 3584 3314 3078 
Q 3713 2572 3713 1747 
Q 3713 922 3314 415 
Q 2916 -91 2278 -91 
Q 1894 -91 1617 61 
Q 1341 213 1159 525 
z
M 3116 1747 
Q 3116 2381 2855 2742 
Q 2594 3103 2138 3103 
Q 1681 3103 1420 2742 
Q 1159 2381 1159 1747 
Q 1159 1113 1420 752 
Q 1681 391 2138 391 
Q 2594 391 2855 752 
Q 3116 1113 3116 1747 
z
" transform="scale(0.015625)"/>
      <path id="DejaVuSans-3a" d="M 750 794 
L 1409 794 
L 1409 0 
L 750 0 
L 750 794 
z
M 750 3309 
L 1409 3309 
L 1409 2516 
L 750 2516 
L 750 3309 
z
" transform="scale(0.015625)"/>
      <path id="DejaVuSans-6d" d="M 3328 2828 
Q 3544 3216 3844 3400 
Q 4144 3584 4550 3584 
Q 5097 3584 5394 3201 
Q 5691 2819 5691 2113 
L 5691 0 
L 5113 0 
L 5113 2094 
Q 5113 2597 4934 2840 
Q 4756 3084 4391 3084 
Q 3944 3084 3684 2787 
Q 3425 2491 3425 1978 
L 3425 0 
L 2847 0 
L 2847 2094 
Q 2847 2600 2669 2842 
Q 2491 3084 2119 3084 
Q 1678 3084 1418 2786 
Q 1159 2488 1159 1978 
L 1159 0 
L 581 0 
L 581 3500 
L 1159 3500 
L 1159 2956 
Q 1356 3278 1631 3431 
Q 1906 3584 2284 3584 
Q 2666 3584 2933 3390 
Q 3200 3197 3328 2828 
z
" transform="scale(0.015625)"/>
      <path id="DejaVuSans-71" d="M 947 1747 
Q 947 1113 1208 752 
Q 1469 391 1925 391 
Q 2381 391 2643 752 
Q 2906 1113 2906 1747 
Q 2906 2381 2643 2742 
Q 2381 3103 1925 3103 
Q 1469 3103 1208 2742 
Q 947 2381 947 1747 
z
M 2906 525 
Q 2725 213 2448 61 
Q 2172 -91 1784 -91 
Q 1150 -91 751 415 
Q 353 922 353 1747 
Q 353 2572 751 3078 
Q 1150 3584 1784 3584 
Q 2172 3584 2448 3432 
Q 2725 3281 2906 2969 
L 2906 3500 
L 3481 3500 
L 3481 -1331 
L 2906 -1331 
L 2906 525 
z
" transform="scale(0.015625)"/>
      <path id="DejaVuSans-2d" d="M 313 2009 
L 1997 2009 
L 1997 1497 
L 313 1497 
L 313 2009 
z
" transform="scale(0.015625)"/>
     </defs>
     <use xlink:href="#DejaVuSans-53"/>
     <use xlink:href="#DejaVuSans-68" transform="translate(63.476562 0)"/>
     <use xlink:href="#DejaVuSans-61" transform="translate(126.855469 0)"/>
     <use xlink:href="#DejaVuSans-72" transform="translate(188.134766 0)"/>
     <use xlink:href="#DejaVuSans-65" transform="translate(226.998047 0)"/>
     <use xlink:href="#DejaVuSans-64" transform="translate(288.521484 0)"/>
     <use xlink:href="#DejaVuSans-20" transform="translate(351.998047 0)"/>
     <use xlink:href="#DejaVuSans-69" transform="translate(383.785156 0)"/>
     <use xlink:href="#DejaVuSans-6e" transform="translate(411.568359 0)"/>
     <use xlink:href="#DejaVuSans-70" transform="translate(474.947266 0)"/>
     <use xlink:href="#DejaVuSans-75" transform="translate(538.423828 0)"/>
     <use xlink:href="#DejaVuSans-74" transform="translate(601.802734 0)"/>
     <use xlink:href="#DejaVuSans-73" transform="translate(641.011719 0)"/>
     <use xlink:href="#DejaVuSans-3a" transform="translate(693.111328 0)"/>
     <use xlink:href="#DejaVuSans-20" transform="translate(726.802734 0)"/>
     <use xlink:href="#DejaVuSans-73" transform="translate(758.589844 0)"/>
     <use xlink:href="#DejaVuSans-74" transform="translate(810.689453 0)"/>
     <use xlink:href="#DejaVuSans-64" transform="translate(849.898438 0)"/>
     <use xlink:href="#DejaVuSans-69" transform="translate(913.375 0)"/>
     <use xlink:href="#DejaVuSans-6e" transform="translate(941.158203 0)"/>
     <use xlink:href="#DejaVuSans-20" transform="translate(1004.537109 0)"/>
     <use xlink:href="#DejaVuSans-6f" transform="translate(1036.324219 0)"/>
     <use xlink:href="#DejaVuSans-72" transform="translate(1097.505859 0)"/>
     <use xlink:href="#DejaVuSans-20" transform="translate(1138.619141 0)"/>
     <use xlink:href="#DejaVuSans-70" transform="translate(1170.40625 0)"/>
     <use xlink:href="#DejaVuSans-61" transform="translate(1233.882812 0)"/>
     <use xlink:href="#DejaVuSans-74" transform="translate(1295.162109 0)"/>
     <use xlink:href="#DejaVuSans-68" transform="translate(1334.371094 0)"/>
     <use xlink:href="#DejaVuSans-20" transform="translate(1397.75 0)"/>
     <use xlink:href="#DejaVuSans-b7" transform="translate(1429.537109 0)"/>
     <use xlink:href="#DejaVuSans-20" transform="translate(1461.324219 0)"/>
     <use xlink:href="#DejaVuSans-65" transform="translate(1493.111328 0)"/>
     <use xlink:href="#DejaVuSans-78" transform="translate(1552.884766 0)"/>
     <use xlink:href="#DejaVuSans-70" transform="translate(1612.064453 0)"/>
     <use xlink:href="#DejaVuSans-6c" transform="translate(1675.541016 0)"/>
     <use xlink:href="#DejaVuSans-69" transform="translate(1703.324219 0)"/>
     <use xlink:href="#DejaVuSans-63" transform="translate(1731.107422 0)"/>
     <use xlink:href="#DejaVuSans-69" transform="translate(1786.087891 0)"/>
     <use xlink:href="#DejaVuSans-74" transform="translate(1813.871094 0)"/>
     <use xlink:href="#DejaVuSans-2f" transform="translate(1853.080078 0)"/>
     <use xlink:href="#DejaVuSans-61" transform="translate(1886.771484 0)"/>
     <use xlink:href="#DejaVuSans-75" transform="translate(1948.050781 0)"/>
     <use xlink:href="#DejaVuSans-74" transform="translate(2011.429688 0)"/>
     <use xlink:href="#DejaVuSans-6f" transform="translate(2050.638672 0)"/>
     <use xlink:href="#DejaVuSans-6d" transform="translate(2111.820312 0)"/>
     <use xlink:href="#DejaVuSans-61" transform="translate(2209.232422 0)"/>
     <use xlink:href="#DejaVuSans-74" transform="translate(2270.511719 0)"/>
     <use xlink:href="#DejaVuSans-69" transform="translate(2309.720703 0)"/>
     <use xlink:href="#DejaVuSans-63" transform="translate(2337.503906 0)"/>
     <use xlink:href="#DejaVuSans-20" transform="translate(2392.484375 0)"/>
     <use xlink:href="#DejaVuSans-4e" transform="translate(2424.271484 0)"/>
     <use xlink:href="#DejaVuSans-65" transform="translate(2499.076172 0)"/>
     <use xlink:href="#DejaVuSans-77" transform="translate(2560.599609 0)"/>
     <use xlink:href="#DejaVuSans-69" transform="translate(2642.386719 0)"/>
     <use xlink:href="#DejaVuSans-63" transform="translate(2670.169922 0)"/>
     <use xlink:href="#DejaVuSans-6b" transform="translate(2725.150391 0)"/>
     <use xlink:href="#DejaVuSans-20" transform="translate(2783.060547 0)"/>
     <use xlink:href="#DejaVuSans-66" transform="translate(2814.847656 0)"/>
     <use xlink:href="#DejaVuSans-6f" transform="translate(2850.052734 0)"/>
     <use xlink:href="#DejaVuSans-72" transform="translate(2911.234375 0)"/>
     <use xlink:href="#DejaVuSans-6d" transform="translate(2950.597656 0)"/>
     <use xlink:href="#DejaVuSans-61" transform="translate(3048.009766 0)"/>
     <use xlink:href="#DejaVuSans-74" transform="translate(3109.289062 0)"/>
     <use xlink:href="#DejaVuSans-73" transform="translate(3148.498047 0)"/>
     <use xlink:href="#DejaVuSans-20" transform="translate(3200.597656 0)"/>
     <use xlink:href="#DejaVuSans-b7" transform="translate(3232.384766 0)"/>
     <use xlink:href="#DejaVuSans-20" transform="translate(3264.171875 0)"/>
     <use xlink:href="#DejaVuSans-71" transform="translate(3295.958984 0)"/>
     <use xlink:href="#DejaVuSans-75" transform="translate(3359.435547 0)"/>
     <use xlink:href="#DejaVuSans-6f" transform="translate(3422.814453 0)"/>
     <use xlink:href="#DejaVuSans-74" transform="translate(3483.996094 0)"/>
     <use xlink:href="#DejaVuSans-65" transform="translate(3523.205078 0)"/>
     <use xlink:href="#DejaVuSans-64" transform="translate(3584.728516 0)"/>
     <use xlink:href="#DejaVuSans-2d" transform="translate(3648.205078 0)"/>
     <use xlink:href="#DejaVuSans-6e" transform="translate(3684.289062 0)"/>
     <use xlink:href="#DejaVuSans-61" transform="translate(3747.667969 0)"/>
     <use xlink:href="#DejaVuSans-6d" transform="translate(3808.947266 0)"/>
     <use xlink:href="#DejaVuSans-65" transform="translate(3906.359375 0)"/>
     <use xlink:href="#DejaVuSans-20" transform="translate(3967.882812 0)"/>
     <use xlink:href="#DejaVuSans-63" transform="translate(3999.669922 0)"/>
     <use xlink:href="#DejaVuSans-6f" transform="translate(4054.650391 0)"/>
     <use xlink:href="#DejaVuSans-6e" transform="translate(4115.832031 0)"/>
     <use xlink:href="#DejaVuSans-74" transform="translate(4179.210938 0)"/>
     <use xlink:href="#DejaVuSans-72" transform="translate(4218.419922 0)"/>
     <use xlink:href="#DejaVuSans-6f" transform="translate(4257.283203 0)"/>
     <use xlink:href="#DejaVuSans-6c" transform="translate(4318.464844 0)"/>
    </g>
   </g>
   <g id="text_4">
    <!-- Inspect &amp; normalize  (7) -->
    <g transform="translate(40.426013 143.269612) scale(0.075 -0.075)">
     <defs>
      <path id="DejaVuSans-49" d="M 628 4666 
L 1259 4666 
L 1259 0 
L 628 0 
L 628 4666 
z
" transform="scale(0.015625)"/>
      <path id="DejaVuSans-26" d="M 1556 2509 
Q 1272 2256 1139 2004 
Q 1006 1753 1006 1478 
Q 1006 1022 1337 719 
Q 1669 416 2169 416 
Q 2466 416 2725 514 
Q 2984 613 3213 813 
L 1556 2509 
z
M 1997 2859 
L 3584 1234 
Q 3769 1513 3872 1830 
Q 3975 2147 3994 2503 
L 4575 2503 
Q 4538 2091 4375 1687 
Q 4213 1284 3922 891 
L 4794 0 
L 4006 0 
L 3559 459 
Q 3234 181 2878 45 
Q 2522 -91 2113 -91 
Q 1359 -91 881 339 
Q 403 769 403 1441 
Q 403 1841 612 2192 
Q 822 2544 1241 2853 
Q 1091 3050 1012 3245 
Q 934 3441 934 3628 
Q 934 4134 1281 4442 
Q 1628 4750 2203 4750 
Q 2463 4750 2720 4694 
Q 2978 4638 3244 4525 
L 3244 3956 
Q 2972 4103 2725 4179 
Q 2478 4256 2266 4256 
Q 1938 4256 1733 4082 
Q 1528 3909 1528 3634 
Q 1528 3475 1620 3314 
Q 1713 3153 1997 2859 
z
" transform="scale(0.015625)"/>
      <path id="DejaVuSans-7a" d="M 353 3500 
L 3084 3500 
L 3084 2975 
L 922 459 
L 3084 459 
L 3084 0 
L 275 0 
L 275 525 
L 2438 3041 
L 353 3041 
L 353 3500 
z
" transform="scale(0.015625)"/>
      <path id="DejaVuSans-37" d="M 525 4666 
L 3525 4666 
L 3525 4397 
L 1831 0 
L 1172 0 
L 2766 4134 
L 525 4134 
L 525 4666 
z
" transform="scale(0.015625)"/>
     </defs>
     <use xlink:href="#DejaVuSans-49"/>
     <use xlink:href="#DejaVuSans-6e" transform="translate(29.492188 0)"/>
     <use xlink:href="#DejaVuSans-73" transform="translate(92.871094 0)"/>
     <use xlink:href="#DejaVuSans-70" transform="translate(144.970703 0)"/>
     <use xlink:href="#DejaVuSans-65" transform="translate(208.447266 0)"/>
     <use xlink:href="#DejaVuSans-63" transform="translate(269.970703 0)"/>
     <use xlink:href="#DejaVuSans-74" transform="translate(324.951172 0)"/>
     <use xlink:href="#DejaVuSans-20" transform="translate(364.160156 0)"/>
     <use xlink:href="#DejaVuSans-26" transform="translate(395.947266 0)"/>
     <use xlink:href="#DejaVuSans-20" transform="translate(473.925781 0)"/>
     <use xlink:href="#DejaVuSans-6e" transform="translate(505.712891 0)"/>
     <use xlink:href="#DejaVuSans-6f" transform="translate(569.091797 0)"/>
     <use xlink:href="#DejaVuSans-72" transform="translate(630.273438 0)"/>
     <use xlink:href="#DejaVuSans-6d" transform="translate(669.636719 0)"/>
     <use xlink:href="#DejaVuSans-61" transform="translate(767.048828 0)"/>
     <use xlink:href="#DejaVuSans-6c" transform="translate(828.328125 0)"/>
     <use xlink:href="#DejaVuSans-69" transform="translate(856.111328 0)"/>
     <use xlink:href="#DejaVuSans-7a" transform="translate(883.894531 0)"/>
     <use xlink:href="#DejaVuSans-65" transform="translate(936.384766 0)"/>
     <use xlink:href="#DejaVuSans-20" transform="translate(997.908203 0)"/>
     <use xlink:href="#DejaVuSans-20" transform="translate(1029.695312 0)"/>
     <use xlink:href="#DejaVuSans-28" transform="translate(1061.482422 0)"/>
     <use xlink:href="#DejaVuSans-37" transform="translate(1100.496094 0)"/>
     <use xlink:href="#DejaVuSans-29" transform="translate(1164.119141 0)"/>
    </g>
    <!--  -->
    <g transform="translate(85.5432 151.667972) scale(0.075 -0.075)"/>
    <!-- validate · info · sanitize -->
    <g transform="translate(41.844567 160.066331) scale(0.075 -0.075)">
     <defs>
      <path id="DejaVuSans-76" d="M 191 3500 
L 800 3500 
L 1894 563 
L 2988 3500 
L 3597 3500 
L 2284 0 
L 1503 0 
L 191 3500 
z
" transform="scale(0.015625)"/>
     </defs>
     <use xlink:href="#DejaVuSans-76"/>
     <use xlink:href="#DejaVuSans-61" transform="translate(59.179688 0)"/>
     <use xlink:href="#DejaVuSans-6c" transform="translate(120.458984 0)"/>
     <use xlink:href="#DejaVuSans-69" transform="translate(148.242188 0)"/>
     <use xlink:href="#DejaVuSans-64" transform="translate(176.025391 0)"/>
     <use xlink:href="#DejaVuSans-61" transform="translate(239.501953 0)"/>
     <use xlink:href="#DejaVuSans-74" transform="translate(300.78125 0)"/>
     <use xlink:href="#DejaVuSans-65" transform="translate(339.990234 0)"/>
     <use xlink:href="#DejaVuSans-20" transform="translate(401.513672 0)"/>
     <use xlink:href="#DejaVuSans-b7" transform="translate(433.300781 0)"/>
     <use xlink:href="#DejaVuSans-20" transform="translate(465.087891 0)"/>
     <use xlink:href="#DejaVuSans-69" transform="translate(496.875 0)"/>
     <use xlink:href="#DejaVuSans-6e" transform="translate(524.658203 0)"/>
     <use xlink:href="#DejaVuSans-66" transform="translate(588.037109 0)"/>
     <use xlink:href="#DejaVuSans-6f" transform="translate(623.242188 0)"/>
     <use xlink:href="#DejaVuSans-20" transform="translate(684.423828 0)"/>
     <use xlink:href="#DejaVuSans-b7" transform="translate(716.210938 0)"/>
     <use xlink:href="#DejaVuSans-20" transform="translate(747.998047 0)"/>
     <use xlink:href="#DejaVuSans-73" transform="translate(779.785156 0)"/>
     <use xlink:href="#DejaVuSans-61" transform="translate(831.884766 0)"/>
     <use xlink:href="#DejaVuSans-6e" transform="translate(893.164062 0)"/>
     <use xlink:href="#DejaVuSans-69" transform="translate(956.542969 0)"/>
     <use xlink:href="#DejaVuSans-74" transform="translate(984.326172 0)"/>
     <use xlink:href="#DejaVuSans-69" transform="translate(1023.535156 0)"/>
     <use xlink:href="#DejaVuSans-7a" transform="translate(1051.318359 0)"/>
     <use xlink:href="#DejaVuSans-65" transform="translate(1103.808594 0)"/>
    </g>
    <!-- nwk2table · table2nwk -->
    <g transform="translate(42.970153 168.464691) scale(0.075 -0.075)">
     <use xlink:href="#DejaVuSans-6e"/>
     <use xlink:href="#DejaVuSans-77" transform="translate(63.378906 0)"/>
     <use xlink:href="#DejaVuSans-6b" transform="translate(145.166016 0)"/>
     <use xlink:href="#DejaVuSans-32" transform="translate(203.076172 0)"/>
     <use xlink:href="#DejaVuSans-74" transform="translate(266.699219 0)"/>
     <use xlink:href="#DejaVuSans-61" transform="translate(305.908203 0)"/>
     <use xlink:href="#DejaVuSans-62" transform="translate(367.1875 0)"/>
     <use xlink:href="#DejaVuSans-6c" transform="translate(430.664062 0)"/>
     <use xlink:href="#DejaVuSans-65" transform="translate(458.447266 0)"/>
     <use xlink:href="#DejaVuSans-20" transform="translate(519.970703 0)"/>
     <use xlink:href="#DejaVuSans-b7" transform="translate(551.757812 0)"/>
     <use xlink:href="#DejaVuSans-20" transform="translate(583.544922 0)"/>
     <use xlink:href="#DejaVuSans-74" transform="translate(615.332031 0)"/>
     <use xlink:href="#DejaVuSans-61" transform="translate(654.541016 0)"/>
     <use xlink:href="#DejaVuSans-62" transform="translate(715.820312 0)"/>
     <use xlink:href="#DejaVuSans-6c" transform="translate(779.296875 0)"/>
     <use xlink:href="#DejaVuSans-65" transform="translate(807.080078 0)"/>
     <use xlink:href="#DejaVuSans-32" transform="translate(868.603516 0)"/>
     <use xlink:href="#DejaVuSans-6e" transform="translate(932.226562 0)"/>
     <use xlink:href="#DejaVuSans-77" transform="translate(995.605469 0)"/>
     <use xlink:href="#DejaVuSans-6b" transform="translate(1077.392578 0)"/>
    </g>
    <!-- nhx2nwk · printlabel -->
    <g transform="translate(47.113903 176.86305) scale(0.075 -0.075)">
     <use xlink:href="#DejaVuSans-6e"/>
     <use xlink:href="#DejaVuSans-68" transform="translate(63.378906 0)"/>
     <use xlink:href="#DejaVuSans-78" transform="translate(126.757812 0)"/>
     <use xlink:href="#DejaVuSans-32" transform="translate(185.9375 0)"/>
     <use xlink:href="#DejaVuSans-6e" transform="translate(249.560547 0)"/>
     <use xlink:href="#DejaVuSans-77" transform="translate(312.939453 0)"/>
     <use xlink:href="#DejaVuSans-6b" transform="translate(394.726562 0)"/>
     <use xlink:href="#DejaVuSans-20" transform="translate(452.636719 0)"/>
     <use xlink:href="#DejaVuSans-b7" transform="translate(484.423828 0)"/>
     <use xlink:href="#DejaVuSans-20" transform="translate(516.210938 0)"/>
     <use xlink:href="#DejaVuSans-70" transform="translate(547.998047 0)"/>
     <use xlink:href="#DejaVuSans-72" transform="translate(611.474609 0)"/>
     <use xlink:href="#DejaVuSans-69" transform="translate(652.587891 0)"/>
     <use xlink:href="#DejaVuSans-6e" transform="translate(680.371094 0)"/>
     <use xlink:href="#DejaVuSans-74" transform="translate(743.75 0)"/>
     <use xlink:href="#DejaVuSans-6c" transform="translate(782.958984 0)"/>
     <use xlink:href="#DejaVuSans-61" transform="translate(810.742188 0)"/>
     <use xlink:href="#DejaVuSans-62" transform="translate(872.021484 0)"/>
     <use xlink:href="#DejaVuSans-65" transform="translate(935.498047 0)"/>
     <use xlink:href="#DejaVuSans-6c" transform="translate(997.021484 0)"/>
    </g>
   </g>
   <g id="text_5">
    <!-- Transform  (13) -->
    <g transform="translate(179.347969 134.871253) scale(0.075 -0.075)">
     <defs>
      <path id="DejaVuSans-54" d="M -19 4666 
L 3928 4666 
L 3928 4134 
L 2272 4134 
L 2272 0 
L 1638 0 
L 1638 4134 
L -19 4134 
L -19 4666 
z
" transform="scale(0.015625)"/>
     </defs>
     <use xlink:href="#DejaVuSans-54"/>
     <use xlink:href="#DejaVuSans-72" transform="translate(46.333984 0)"/>
     <use xlink:href="#DejaVuSans-61" transform="translate(87.447266 0)"/>
     <use xlink:href="#DejaVuSans-6e" transform="translate(148.726562 0)"/>
     <use xlink:href="#DejaVuSans-73" transform="translate(212.105469 0)"/>
     <use xlink:href="#DejaVuSans-66" transform="translate(264.205078 0)"/>
     <use xlink:href="#DejaVuSans-6f" transform="translate(299.410156 0)"/>
     <use xlink:href="#DejaVuSans-72" transform="translate(360.591797 0)"/>
     <use xlink:href="#DejaVuSans-6d" transform="translate(399.955078 0)"/>
     <use xlink:href="#DejaVuSans-20" transform="translate(497.367188 0)"/>
     <use xlink:href="#DejaVuSans-20" transform="translate(529.154297 0)"/>
     <use xlink:href="#DejaVuSans-28" transform="translate(560.941406 0)"/>
     <use xlink:href="#DejaVuSans-31" transform="translate(599.955078 0)"/>
     <use xlink:href="#DejaVuSans-33" transform="translate(663.578125 0)"/>
     <use xlink:href="#DejaVuSans-29" transform="translate(727.201172 0)"/>
    </g>
    <!--  -->
    <g transform="translate(208.08 143.269612) scale(0.075 -0.075)"/>
    <!-- collapse · compose · drop -->
    <g transform="translate(160.091133 151.667972) scale(0.075 -0.075)">
     <use xlink:href="#DejaVuSans-63"/>
     <use xlink:href="#DejaVuSans-6f" transform="translate(54.980469 0)"/>
     <use xlink:href="#DejaVuSans-6c" transform="translate(116.162109 0)"/>
     <use xlink:href="#DejaVuSans-6c" transform="translate(143.945312 0)"/>
     <use xlink:href="#DejaVuSans-61" transform="translate(171.728516 0)"/>
     <use xlink:href="#DejaVuSans-70" transform="translate(233.007812 0)"/>
     <use xlink:href="#DejaVuSans-73" transform="translate(296.484375 0)"/>
     <use xlink:href="#DejaVuSans-65" transform="translate(348.583984 0)"/>
     <use xlink:href="#DejaVuSans-20" transform="translate(410.107422 0)"/>
     <use xlink:href="#DejaVuSans-b7" transform="translate(441.894531 0)"/>
     <use xlink:href="#DejaVuSans-20" transform="translate(473.681641 0)"/>
     <use xlink:href="#DejaVuSans-63" transform="translate(505.46875 0)"/>
     <use xlink:href="#DejaVuSans-6f" transform="translate(560.449219 0)"/>
     <use xlink:href="#DejaVuSans-6d" transform="translate(621.630859 0)"/>
     <use xlink:href="#DejaVuSans-70" transform="translate(719.042969 0)"/>
     <use xlink:href="#DejaVuSans-6f" transform="translate(782.519531 0)"/>
     <use xlink:href="#DejaVuSans-73" transform="translate(843.701172 0)"/>
     <use xlink:href="#DejaVuSans-65" transform="translate(895.800781 0)"/>
     <use xlink:href="#DejaVuSans-20" transform="translate(957.324219 0)"/>
     <use xlink:href="#DejaVuSans-b7" transform="translate(989.111328 0)"/>
     <use xlink:href="#DejaVuSans-20" transform="translate(1020.898438 0)"/>
     <use xlink:href="#DejaVuSans-64" transform="translate(1052.685547 0)"/>
     <use xlink:href="#DejaVuSans-72" transform="translate(1116.162109 0)"/>
     <use xlink:href="#DejaVuSans-6f" transform="translate(1155.025391 0)"/>
     <use xlink:href="#DejaVuSans-70" transform="translate(1216.207031 0)"/>
    </g>
    <!-- intersection · label · mark -->
    <g transform="translate(159.952266 160.066331) scale(0.075 -0.075)">
     <use xlink:href="#DejaVuSans-69"/>
     <use xlink:href="#DejaVuSans-6e" transform="translate(27.783203 0)"/>
     <use xlink:href="#DejaVuSans-74" transform="translate(91.162109 0)"/>
     <use xlink:href="#DejaVuSans-65" transform="translate(130.371094 0)"/>
     <use xlink:href="#DejaVuSans-72" transform="translate(191.894531 0)"/>
     <use xlink:href="#DejaVuSans-73" transform="translate(233.007812 0)"/>
     <use xlink:href="#DejaVuSans-65" transform="translate(285.107422 0)"/>
     <use xlink:href="#DejaVuSans-63" transform="translate(346.630859 0)"/>
     <use xlink:href="#DejaVuSans-74" transform="translate(401.611328 0)"/>
     <use xlink:href="#DejaVuSans-69" transform="translate(440.820312 0)"/>
     <use xlink:href="#DejaVuSans-6f" transform="translate(468.603516 0)"/>
     <use xlink:href="#DejaVuSans-6e" transform="translate(529.785156 0)"/>
     <use xlink:href="#DejaVuSans-20" transform="translate(593.164062 0)"/>
     <use xlink:href="#DejaVuSans-b7" transform="translate(624.951172 0)"/>
     <use xlink:href="#DejaVuSans-20" transform="translate(656.738281 0)"/>
     <use xlink:href="#DejaVuSans-6c" transform="translate(688.525391 0)"/>
     <use xlink:href="#DejaVuSans-61" transform="translate(716.308594 0)"/>
     <use xlink:href="#DejaVuSans-62" transform="translate(777.587891 0)"/>
     <use xlink:href="#DejaVuSans-65" transform="translate(841.064453 0)"/>
     <use xlink:href="#DejaVuSans-6c" transform="translate(902.587891 0)"/>
     <use xlink:href="#DejaVuSans-20" transform="translate(930.371094 0)"/>
     <use xlink:href="#DejaVuSans-b7" transform="translate(962.158203 0)"/>
     <use xlink:href="#DejaVuSans-20" transform="translate(993.945312 0)"/>
     <use xlink:href="#DejaVuSans-6d" transform="translate(1025.732422 0)"/>
     <use xlink:href="#DejaVuSans-61" transform="translate(1123.144531 0)"/>
     <use xlink:href="#DejaVuSans-72" transform="translate(1184.423828 0)"/>
     <use xlink:href="#DejaVuSans-6b" transform="translate(1225.537109 0)"/>
    </g>
    <!-- prune · rename · rescale -->
    <g transform="translate(162.119648 168.464691) scale(0.075 -0.075)">
     <use xlink:href="#DejaVuSans-70"/>
     <use xlink:href="#DejaVuSans-72" transform="translate(63.476562 0)"/>
     <use xlink:href="#DejaVuSans-75" transform="translate(104.589844 0)"/>
     <use xlink:href="#DejaVuSans-6e" transform="translate(167.96875 0)"/>
     <use xlink:href="#DejaVuSans-65" transform="translate(231.347656 0)"/>
     <use xlink:href="#DejaVuSans-20" transform="translate(292.871094 0)"/>
     <use xlink:href="#DejaVuSans-b7" transform="translate(324.658203 0)"/>
     <use xlink:href="#DejaVuSans-20" transform="translate(356.445312 0)"/>
     <use xlink:href="#DejaVuSans-72" transform="translate(388.232422 0)"/>
     <use xlink:href="#DejaVuSans-65" transform="translate(427.095703 0)"/>
     <use xlink:href="#DejaVuSans-6e" transform="translate(488.619141 0)"/>
     <use xlink:href="#DejaVuSans-61" transform="translate(551.998047 0)"/>
     <use xlink:href="#DejaVuSans-6d" transform="translate(613.277344 0)"/>
     <use xlink:href="#DejaVuSans-65" transform="translate(710.689453 0)"/>
     <use xlink:href="#DejaVuSans-20" transform="translate(772.212891 0)"/>
     <use xlink:href="#DejaVuSans-b7" transform="translate(804 0)"/>
     <use xlink:href="#DejaVuSans-20" transform="translate(835.787109 0)"/>
     <use xlink:href="#DejaVuSans-72" transform="translate(867.574219 0)"/>
     <use xlink:href="#DejaVuSans-65" transform="translate(906.4375 0)"/>
     <use xlink:href="#DejaVuSans-73" transform="translate(967.960938 0)"/>
     <use xlink:href="#DejaVuSans-63" transform="translate(1020.060547 0)"/>
     <use xlink:href="#DejaVuSans-61" transform="translate(1075.041016 0)"/>
     <use xlink:href="#DejaVuSans-6c" transform="translate(1136.320312 0)"/>
     <use xlink:href="#DejaVuSans-65" transform="translate(1164.103516 0)"/>
    </g>
    <!-- root · shuffle · subtree -->
    <g transform="translate(166.463789 176.86305) scale(0.075 -0.075)">
     <use xlink:href="#DejaVuSans-72"/>
     <use xlink:href="#DejaVuSans-6f" transform="translate(38.863281 0)"/>
     <use xlink:href="#DejaVuSans-6f" transform="translate(100.044922 0)"/>
     <use xlink:href="#DejaVuSans-74" transform="translate(161.226562 0)"/>
     <use xlink:href="#DejaVuSans-20" transform="translate(200.435547 0)"/>
     <use xlink:href="#DejaVuSans-b7" transform="translate(232.222656 0)"/>
     <use xlink:href="#DejaVuSans-20" transform="translate(264.009766 0)"/>
     <use xlink:href="#DejaVuSans-73" transform="translate(295.796875 0)"/>
     <use xlink:href="#DejaVuSans-68" transform="translate(347.896484 0)"/>
     <use xlink:href="#DejaVuSans-75" transform="translate(411.275391 0)"/>
     <use xlink:href="#DejaVuSans-66" transform="translate(474.654297 0)"/>
     <use xlink:href="#DejaVuSans-66" transform="translate(509.859375 0)"/>
     <use xlink:href="#DejaVuSans-6c" transform="translate(545.064453 0)"/>
     <use xlink:href="#DejaVuSans-65" transform="translate(572.847656 0)"/>
     <use xlink:href="#DejaVuSans-20" transform="translate(634.371094 0)"/>
     <use xlink:href="#DejaVuSans-b7" transform="translate(666.158203 0)"/>
     <use xlink:href="#DejaVuSans-20" transform="translate(697.945312 0)"/>
     <use xlink:href="#DejaVuSans-73" transform="translate(729.732422 0)"/>
     <use xlink:href="#DejaVuSans-75" transform="translate(781.832031 0)"/>
     <use xlink:href="#DejaVuSans-62" transform="translate(845.210938 0)"/>
     <use xlink:href="#DejaVuSans-74" transform="translate(908.6875 0)"/>
     <use xlink:href="#DejaVuSans-72" transform="translate(947.896484 0)"/>
     <use xlink:href="#DejaVuSans-65" transform="translate(986.759766 0)"/>
     <use xlink:href="#DejaVuSans-65" transform="translate(1048.283203 0)"/>
    </g>
    <!-- transfer -->
    <g transform="translate(193.271016 185.261409) scale(0.075 -0.075)">
     <use xlink:href="#DejaVuSans-74"/>
     <use xlink:href="#DejaVuSans-72" transform="translate(39.208984 0)"/>
     <use xlink:href="#DejaVuSans-61" transform="translate(80.322266 0)"/>
     <use xlink:href="#DejaVuSans-6e" transform="translate(141.601562 0)"/>
     <use xlink:href="#DejaVuSans-73" transform="translate(204.980469 0)"/>
     <use xlink:href="#DejaVuSans-66" transform="translate(257.080078 0)"/>
     <use xlink:href="#DejaVuSans-65" transform="translate(292.285156 0)"/>
     <use xlink:href="#DejaVuSans-72" transform="translate(353.808594 0)"/>
    </g>
   </g>
   <g id="text_6">
    <!-- Compare &amp; summarize  (4) -->
    <g transform="translate(279.811331 147.468792) scale(0.075 -0.075)">
     <defs>
      <path id="DejaVuSans-43" d="M 4122 4306 
L 4122 3641 
Q 3803 3938 3442 4084 
Q 3081 4231 2675 4231 
Q 1875 4231 1450 3742 
Q 1025 3253 1025 2328 
Q 1025 1406 1450 917 
Q 1875 428 2675 428 
Q 3081 428 3442 575 
Q 3803 722 4122 1019 
L 4122 359 
Q 3791 134 3420 21 
Q 3050 -91 2638 -91 
Q 1578 -91 968 557 
Q 359 1206 359 2328 
Q 359 3453 968 4101 
Q 1578 4750 2638 4750 
Q 3056 4750 3426 4639 
Q 3797 4528 4122 4306 
z
" transform="scale(0.015625)"/>
      <path id="DejaVuSans-34" d="M 2419 4116 
L 825 1625 
L 2419 1625 
L 2419 4116 
z
M 2253 4666 
L 3047 4666 
L 3047 1625 
L 3713 1625 
L 3713 1100 
L 3047 1100 
L 3047 0 
L 2419 0 
L 2419 1100 
L 313 1100 
L 313 1709 
L 2253 4666 
z
" transform="scale(0.015625)"/>
     </defs>
     <use xlink:href="#DejaVuSans-43"/>
     <use xlink:href="#DejaVuSans-6f" transform="translate(69.824219 0)"/>
     <use xlink:href="#DejaVuSans-6d" transform="translate(131.005859 0)"/>
     <use xlink:href="#DejaVuSans-70" transform="translate(228.417969 0)"/>
     <use xlink:href="#DejaVuSans-61" transform="translate(291.894531 0)"/>
     <use xlink:href="#DejaVuSans-72" transform="translate(353.173828 0)"/>
     <use xlink:href="#DejaVuSans-65" transform="translate(392.037109 0)"/>
     <use xlink:href="#DejaVuSans-20" transform="translate(453.560547 0)"/>
     <use xlink:href="#DejaVuSans-26" transform="translate(485.347656 0)"/>
     <use xlink:href="#DejaVuSans-20" transform="translate(563.326172 0)"/>
     <use xlink:href="#DejaVuSans-73" transform="translate(595.113281 0)"/>
     <use xlink:href="#DejaVuSans-75" transform="translate(647.212891 0)"/>
     <use xlink:href="#DejaVuSans-6d" transform="translate(710.591797 0)"/>
     <use xlink:href="#DejaVuSans-6d" transform="translate(808.003906 0)"/>
     <use xlink:href="#DejaVuSans-61" transform="translate(905.416016 0)"/>
     <use xlink:href="#DejaVuSans-72" transform="translate(966.695312 0)"/>
     <use xlink:href="#DejaVuSans-69" transform="translate(1007.808594 0)"/>
     <use xlink:href="#DejaVuSans-7a" transform="translate(1035.591797 0)"/>
     <use xlink:href="#DejaVuSans-65" transform="translate(1088.082031 0)"/>
     <use xlink:href="#DejaVuSans-20" transform="translate(1149.605469 0)"/>
     <use xlink:href="#DejaVuSans-20" transform="translate(1181.392578 0)"/>
     <use xlink:href="#DejaVuSans-28" transform="translate(1213.179688 0)"/>
     <use xlink:href="#DejaVuSans-34" transform="translate(1252.193359 0)"/>
     <use xlink:href="#DejaVuSans-29" transform="translate(1315.816406 0)"/>
    </g>
    <!--  -->
    <g transform="translate(330.6168 155.867152) scale(0.075 -0.075)"/>
    <!-- diff · dist -->
    <g transform="translate(314.13262 164.265511) scale(0.075 -0.075)">
     <use xlink:href="#DejaVuSans-64"/>
     <use xlink:href="#DejaVuSans-69" transform="translate(63.476562 0)"/>
     <use xlink:href="#DejaVuSans-66" transform="translate(91.259766 0)"/>
     <use xlink:href="#DejaVuSans-66" transform="translate(126.464844 0)"/>
     <use xlink:href="#DejaVuSans-20" transform="translate(161.669922 0)"/>
     <use xlink:href="#DejaVuSans-b7" transform="translate(193.457031 0)"/>
     <use xlink:href="#DejaVuSans-20" transform="translate(225.244141 0)"/>
     <use xlink:href="#DejaVuSans-64" transform="translate(257.03125 0)"/>
     <use xlink:href="#DejaVuSans-69" transform="translate(320.507812 0)"/>
     <use xlink:href="#DejaVuSans-73" transform="translate(348.291016 0)"/>
     <use xlink:href="#DejaVuSans-74" transform="translate(400.390625 0)"/>
    </g>
    <!-- cladefreq · consensus -->
    <g transform="translate(289.832034 172.66387) scale(0.075 -0.075)">
     <use xlink:href="#DejaVuSans-63"/>
     <use xlink:href="#DejaVuSans-6c" transform="translate(54.980469 0)"/>
     <use xlink:href="#DejaVuSans-61" transform="translate(82.763672 0)"/>
     <use xlink:href="#DejaVuSans-64" transform="translate(144.042969 0)"/>
     <use xlink:href="#DejaVuSans-65" transform="translate(207.519531 0)"/>
     <use xlink:href="#DejaVuSans-66" transform="translate(269.042969 0)"/>
     <use xlink:href="#DejaVuSans-72" transform="translate(304.248047 0)"/>
     <use xlink:href="#DejaVuSans-65" transform="translate(343.111328 0)"/>
     <use xlink:href="#DejaVuSans-71" transform="translate(404.634766 0)"/>
     <use xlink:href="#DejaVuSans-20" transform="translate(468.111328 0)"/>
     <use xlink:href="#DejaVuSans-b7" transform="translate(499.898438 0)"/>
     <use xlink:href="#DejaVuSans-20" transform="translate(531.685547 0)"/>
     <use xlink:href="#DejaVuSans-63" transform="translate(563.472656 0)"/>
     <use xlink:href="#DejaVuSans-6f" transform="translate(618.453125 0)"/>
     <use xlink:href="#DejaVuSans-6e" transform="translate(679.634766 0)"/>
     <use xlink:href="#DejaVuSans-73" transform="translate(743.013672 0)"/>
     <use xlink:href="#DejaVuSans-65" transform="translate(795.113281 0)"/>
     <use xlink:href="#DejaVuSans-6e" transform="translate(856.636719 0)"/>
     <use xlink:href="#DejaVuSans-73" transform="translate(920.015625 0)"/>
     <use xlink:href="#DejaVuSans-75" transform="translate(972.115234 0)"/>
     <use xlink:href="#DejaVuSans-73" transform="translate(1035.494141 0)"/>
    </g>
   </g>
   <g id="text_7">
    <!-- Use taxonomy &amp; traits  (5) -->
    <g transform="translate(94.11383 232.624632) scale(0.075 -0.075)">
     <defs>
      <path id="DejaVuSans-55" d="M 556 4666 
L 1191 4666 
L 1191 1831 
Q 1191 1081 1462 751 
Q 1734 422 2344 422 
Q 2950 422 3222 751 
Q 3494 1081 3494 1831 
L 3494 4666 
L 4128 4666 
L 4128 1753 
Q 4128 841 3676 375 
Q 3225 -91 2344 -91 
Q 1459 -91 1007 375 
Q 556 841 556 1753 
L 556 4666 
z
" transform="scale(0.015625)"/>
      <path id="DejaVuSans-79" d="M 2059 -325 
Q 1816 -950 1584 -1140 
Q 1353 -1331 966 -1331 
L 506 -1331 
L 506 -850 
L 844 -850 
Q 1081 -850 1212 -737 
Q 1344 -625 1503 -206 
L 1606 56 
L 191 3500 
L 800 3500 
L 1894 763 
L 2988 3500 
L 3597 3500 
L 2059 -325 
z
" transform="scale(0.015625)"/>
      <path id="DejaVuSans-35" d="M 691 4666 
L 3169 4666 
L 3169 4134 
L 1269 4134 
L 1269 2991 
Q 1406 3038 1543 3061 
Q 1681 3084 1819 3084 
Q 2600 3084 3056 2656 
Q 3513 2228 3513 1497 
Q 3513 744 3044 326 
Q 2575 -91 1722 -91 
Q 1428 -91 1123 -41 
Q 819 9 494 109 
L 494 744 
Q 775 591 1075 516 
Q 1375 441 1709 441 
Q 2250 441 2565 725 
Q 2881 1009 2881 1497 
Q 2881 1984 2565 2268 
Q 2250 2553 1709 2553 
Q 1456 2553 1204 2497 
Q 953 2441 691 2322 
L 691 4666 
z
" transform="scale(0.015625)"/>
     </defs>
     <use xlink:href="#DejaVuSans-55"/>
     <use xlink:href="#DejaVuSans-73" transform="translate(73.193359 0)"/>
     <use xlink:href="#DejaVuSans-65" transform="translate(125.292969 0)"/>
     <use xlink:href="#DejaVuSans-20" transform="translate(186.816406 0)"/>
     <use xlink:href="#DejaVuSans-74" transform="translate(218.603516 0)"/>
     <use xlink:href="#DejaVuSans-61" transform="translate(257.8125 0)"/>
     <use xlink:href="#DejaVuSans-78" transform="translate(319.091797 0)"/>
     <use xlink:href="#DejaVuSans-6f" transform="translate(375.146484 0)"/>
     <use xlink:href="#DejaVuSans-6e" transform="translate(436.328125 0)"/>
     <use xlink:href="#DejaVuSans-6f" transform="translate(499.707031 0)"/>
     <use xlink:href="#DejaVuSans-6d" transform="translate(560.888672 0)"/>
     <use xlink:href="#DejaVuSans-79" transform="translate(658.300781 0)"/>
     <use xlink:href="#DejaVuSans-20" transform="translate(717.480469 0)"/>
     <use xlink:href="#DejaVuSans-26" transform="translate(749.267578 0)"/>
     <use xlink:href="#DejaVuSans-20" transform="translate(827.246094 0)"/>
     <use xlink:href="#DejaVuSans-74" transform="translate(859.033203 0)"/>
     <use xlink:href="#DejaVuSans-72" transform="translate(898.242188 0)"/>
     <use xlink:href="#DejaVuSans-61" transform="translate(939.355469 0)"/>
     <use xlink:href="#DejaVuSans-69" transform="translate(1000.634766 0)"/>
     <use xlink:href="#DejaVuSans-74" transform="translate(1028.417969 0)"/>
     <use xlink:href="#DejaVuSans-73" transform="translate(1067.626953 0)"/>
     <use xlink:href="#DejaVuSans-20" transform="translate(1119.726562 0)"/>
     <use xlink:href="#DejaVuSans-20" transform="translate(1151.513672 0)"/>
     <use xlink:href="#DejaVuSans-28" transform="translate(1183.300781 0)"/>
     <use xlink:href="#DejaVuSans-35" transform="translate(1222.314453 0)"/>
     <use xlink:href="#DejaVuSans-29" transform="translate(1285.9375 0)"/>
    </g>
    <!--  -->
    <g transform="translate(143.7984 241.022992) scale(0.075 -0.075)"/>
    <!-- annotate · constrain · monophyly -->
    <g transform="translate(81.485119 249.421351) scale(0.075 -0.075)">
     <use xlink:href="#DejaVuSans-61"/>
     <use xlink:href="#DejaVuSans-6e" transform="translate(61.279297 0)"/>
     <use xlink:href="#DejaVuSans-6e" transform="translate(124.658203 0)"/>
     <use xlink:href="#DejaVuSans-6f" transform="translate(188.037109 0)"/>
     <use xlink:href="#DejaVuSans-74" transform="translate(249.21875 0)"/>
     <use xlink:href="#DejaVuSans-61" transform="translate(288.427734 0)"/>
     <use xlink:href="#DejaVuSans-74" transform="translate(349.707031 0)"/>
     <use xlink:href="#DejaVuSans-65" transform="translate(388.916016 0)"/>
     <use xlink:href="#DejaVuSans-20" transform="translate(450.439453 0)"/>
     <use xlink:href="#DejaVuSans-b7" transform="translate(482.226562 0)"/>
     <use xlink:href="#DejaVuSans-20" transform="translate(514.013672 0)"/>
     <use xlink:href="#DejaVuSans-63" transform="translate(545.800781 0)"/>
     <use xlink:href="#DejaVuSans-6f" transform="translate(600.78125 0)"/>
     <use xlink:href="#DejaVuSans-6e" transform="translate(661.962891 0)"/>
     <use xlink:href="#DejaVuSans-73" transform="translate(725.341797 0)"/>
     <use xlink:href="#DejaVuSans-74" transform="translate(777.441406 0)"/>
     <use xlink:href="#DejaVuSans-72" transform="translate(816.650391 0)"/>
     <use xlink:href="#DejaVuSans-61" transform="translate(857.763672 0)"/>
     <use xlink:href="#DejaVuSans-69" transform="translate(919.042969 0)"/>
     <use xlink:href="#DejaVuSans-6e" transform="translate(946.826172 0)"/>
     <use xlink:href="#DejaVuSans-20" transform="translate(1010.205078 0)"/>
     <use xlink:href="#DejaVuSans-b7" transform="translate(1041.992188 0)"/>
     <use xlink:href="#DejaVuSans-20" transform="translate(1073.779297 0)"/>
     <use xlink:href="#DejaVuSans-6d" transform="translate(1105.566406 0)"/>
     <use xlink:href="#DejaVuSans-6f" transform="translate(1202.978516 0)"/>
     <use xlink:href="#DejaVuSans-6e" transform="translate(1264.160156 0)"/>
     <use xlink:href="#DejaVuSans-6f" transform="translate(1327.539062 0)"/>
     <use xlink:href="#DejaVuSans-70" transform="translate(1388.720703 0)"/>
     <use xlink:href="#DejaVuSans-68" transform="translate(1452.197266 0)"/>
     <use xlink:href="#DejaVuSans-79" transform="translate(1515.576172 0)"/>
     <use xlink:href="#DejaVuSans-6c" transform="translate(1574.755859 0)"/>
     <use xlink:href="#DejaVuSans-79" transform="translate(1602.539062 0)"/>
    </g>
    <!-- sample · skim -->
    <g transform="translate(117.769298 257.81971) scale(0.075 -0.075)">
     <use xlink:href="#DejaVuSans-73"/>
     <use xlink:href="#DejaVuSans-61" transform="translate(52.099609 0)"/>
     <use xlink:href="#DejaVuSans-6d" transform="translate(113.378906 0)"/>
     <use xlink:href="#DejaVuSans-70" transform="translate(210.791016 0)"/>
     <use xlink:href="#DejaVuSans-6c" transform="translate(274.267578 0)"/>
     <use xlink:href="#DejaVuSans-65" transform="translate(302.050781 0)"/>
     <use xlink:href="#DejaVuSans-20" transform="translate(363.574219 0)"/>
     <use xlink:href="#DejaVuSans-b7" transform="translate(395.361328 0)"/>
     <use xlink:href="#DejaVuSans-20" transform="translate(427.148438 0)"/>
     <use xlink:href="#DejaVuSans-73" transform="translate(458.935547 0)"/>
     <use xlink:href="#DejaVuSans-6b" transform="translate(511.035156 0)"/>
     <use xlink:href="#DejaVuSans-69" transform="translate(568.945312 0)"/>
     <use xlink:href="#DejaVuSans-6d" transform="translate(596.728516 0)"/>
    </g>
   </g>
   <g id="text_8">
    <!-- Analyze &amp; present  (4) -->
    <g transform="translate(230.328202 232.624632) scale(0.075 -0.075)">
     <defs>
      <path id="DejaVuSans-41" d="M 2188 4044 
L 1331 1722 
L 3047 1722 
L 2188 4044 
z
M 1831 4666 
L 2547 4666 
L 4325 0 
L 3669 0 
L 3244 1197 
L 1141 1197 
L 716 0 
L 50 0 
L 1831 4666 
z
" transform="scale(0.015625)"/>
     </defs>
     <use xlink:href="#DejaVuSans-41"/>
     <use xlink:href="#DejaVuSans-6e" transform="translate(68.408203 0)"/>
     <use xlink:href="#DejaVuSans-61" transform="translate(131.787109 0)"/>
     <use xlink:href="#DejaVuSans-6c" transform="translate(193.066406 0)"/>
     <use xlink:href="#DejaVuSans-79" transform="translate(220.849609 0)"/>
     <use xlink:href="#DejaVuSans-7a" transform="translate(280.029297 0)"/>
     <use xlink:href="#DejaVuSans-65" transform="translate(332.519531 0)"/>
     <use xlink:href="#DejaVuSans-20" transform="translate(394.042969 0)"/>
     <use xlink:href="#DejaVuSans-26" transform="translate(425.830078 0)"/>
     <use xlink:href="#DejaVuSans-20" transform="translate(503.808594 0)"/>
     <use xlink:href="#DejaVuSans-70" transform="translate(535.595703 0)"/>
     <use xlink:href="#DejaVuSans-72" transform="translate(599.072266 0)"/>
     <use xlink:href="#DejaVuSans-65" transform="translate(637.935547 0)"/>
     <use xlink:href="#DejaVuSans-73" transform="translate(699.458984 0)"/>
     <use xlink:href="#DejaVuSans-65" transform="translate(751.558594 0)"/>
     <use xlink:href="#DejaVuSans-6e" transform="translate(813.082031 0)"/>
     <use xlink:href="#DejaVuSans-74" transform="translate(876.460938 0)"/>
     <use xlink:href="#DejaVuSans-20" transform="translate(915.669922 0)"/>
     <use xlink:href="#DejaVuSans-20" transform="translate(947.457031 0)"/>
     <use xlink:href="#DejaVuSans-28" transform="translate(979.244141 0)"/>
     <use xlink:href="#DejaVuSans-34" transform="translate(1018.257812 0)"/>
     <use xlink:href="#DejaVuSans-29" transform="translate(1081.880859 0)"/>
    </g>
    <!--  -->
    <g transform="translate(272.3616 241.022992) scale(0.075 -0.075)"/>
    <!-- asr · mcmctree -->
    <g transform="translate(244.021561 249.421351) scale(0.075 -0.075)">
     <use xlink:href="#DejaVuSans-61"/>
     <use xlink:href="#DejaVuSans-73" transform="translate(61.279297 0)"/>
     <use xlink:href="#DejaVuSans-72" transform="translate(113.378906 0)"/>
     <use xlink:href="#DejaVuSans-20" transform="translate(154.492188 0)"/>
     <use xlink:href="#DejaVuSans-b7" transform="translate(186.279297 0)"/>
     <use xlink:href="#DejaVuSans-20" transform="translate(218.066406 0)"/>
     <use xlink:href="#DejaVuSans-6d" transform="translate(249.853516 0)"/>
     <use xlink:href="#DejaVuSans-63" transform="translate(347.265625 0)"/>
     <use xlink:href="#DejaVuSans-6d" transform="translate(402.246094 0)"/>
     <use xlink:href="#DejaVuSans-63" transform="translate(499.658203 0)"/>
     <use xlink:href="#DejaVuSans-74" transform="translate(554.638672 0)"/>
     <use xlink:href="#DejaVuSans-72" transform="translate(593.847656 0)"/>
     <use xlink:href="#DejaVuSans-65" transform="translate(632.710938 0)"/>
     <use xlink:href="#DejaVuSans-65" transform="translate(694.234375 0)"/>
    </g>
    <!-- draw · image -->
    <g transform="translate(247.818436 257.81971) scale(0.075 -0.075)">
     <defs>
      <path id="DejaVuSans-67" d="M 2906 1791 
Q 2906 2416 2648 2759 
Q 2391 3103 1925 3103 
Q 1463 3103 1205 2759 
Q 947 2416 947 1791 
Q 947 1169 1205 825 
Q 1463 481 1925 481 
Q 2391 481 2648 825 
Q 2906 1169 2906 1791 
z
M 3481 434 
Q 3481 -459 3084 -895 
Q 2688 -1331 1869 -1331 
Q 1566 -1331 1297 -1286 
Q 1028 -1241 775 -1147 
L 775 -588 
Q 1028 -725 1275 -790 
Q 1522 -856 1778 -856 
Q 2344 -856 2625 -561 
Q 2906 -266 2906 331 
L 2906 616 
Q 2728 306 2450 153 
Q 2172 0 1784 0 
Q 1141 0 747 490 
Q 353 981 353 1791 
Q 353 2603 747 3093 
Q 1141 3584 1784 3584 
Q 2172 3584 2450 3431 
Q 2728 3278 2906 2969 
L 2906 3500 
L 3481 3500 
L 3481 434 
z
" transform="scale(0.015625)"/>
     </defs>
     <use xlink:href="#DejaVuSans-64"/>
     <use xlink:href="#DejaVuSans-72" transform="translate(63.476562 0)"/>
     <use xlink:href="#DejaVuSans-61" transform="translate(104.589844 0)"/>
     <use xlink:href="#DejaVuSans-77" transform="translate(165.869141 0)"/>
     <use xlink:href="#DejaVuSans-20" transform="translate(247.65625 0)"/>
     <use xlink:href="#DejaVuSans-b7" transform="translate(279.443359 0)"/>
     <use xlink:href="#DejaVuSans-20" transform="translate(311.230469 0)"/>
     <use xlink:href="#DejaVuSans-69" transform="translate(343.017578 0)"/>
     <use xlink:href="#DejaVuSans-6d" transform="translate(370.800781 0)"/>
     <use xlink:href="#DejaVuSans-61" transform="translate(468.212891 0)"/>
     <use xlink:href="#DejaVuSans-67" transform="translate(529.492188 0)"/>
     <use xlink:href="#DejaVuSans-65" transform="translate(592.96875 0)"/>
    </g>
   </g>
   <g id="text_9">
    <!-- Shared outputs: stdout or path · documented tables · seeds · JSONL provenance audit -->
    <g transform="translate(42.678586 310.031279) scale(0.077 -0.077)">
     <defs>
      <path id="DejaVuSans-4a" d="M 628 4666 
L 1259 4666 
L 1259 325 
Q 1259 -519 939 -900 
Q 619 -1281 -91 -1281 
L -331 -1281 
L -331 -750 
L -134 -750 
Q 284 -750 456 -515 
Q 628 -281 628 325 
L 628 4666 
z
" transform="scale(0.015625)"/>
      <path id="DejaVuSans-4f" d="M 2522 4238 
Q 1834 4238 1429 3725 
Q 1025 3213 1025 2328 
Q 1025 1447 1429 934 
Q 1834 422 2522 422 
Q 3209 422 3611 934 
Q 4013 1447 4013 2328 
Q 4013 3213 3611 3725 
Q 3209 4238 2522 4238 
z
M 2522 4750 
Q 3503 4750 4090 4092 
Q 4678 3434 4678 2328 
Q 4678 1225 4090 567 
Q 3503 -91 2522 -91 
Q 1538 -91 948 565 
Q 359 1222 359 2328 
Q 359 3434 948 4092 
Q 1538 4750 2522 4750 
z
" transform="scale(0.015625)"/>
      <path id="DejaVuSans-4c" d="M 628 4666 
L 1259 4666 
L 1259 531 
L 3531 531 
L 3531 0 
L 628 0 
L 628 4666 
z
" transform="scale(0.015625)"/>
     </defs>
     <use xlink:href="#DejaVuSans-53"/>
     <use xlink:href="#DejaVuSans-68" transform="translate(63.476562 0)"/>
     <use xlink:href="#DejaVuSans-61" transform="translate(126.855469 0)"/>
     <use xlink:href="#DejaVuSans-72" transform="translate(188.134766 0)"/>
     <use xlink:href="#DejaVuSans-65" transform="translate(226.998047 0)"/>
     <use xlink:href="#DejaVuSans-64" transform="translate(288.521484 0)"/>
     <use xlink:href="#DejaVuSans-20" transform="translate(351.998047 0)"/>
     <use xlink:href="#DejaVuSans-6f" transform="translate(383.785156 0)"/>
     <use xlink:href="#DejaVuSans-75" transform="translate(444.966797 0)"/>
     <use xlink:href="#DejaVuSans-74" transform="translate(508.345703 0)"/>
     <use xlink:href="#DejaVuSans-70" transform="translate(547.554688 0)"/>
     <use xlink:href="#DejaVuSans-75" transform="translate(611.03125 0)"/>
     <use xlink:href="#DejaVuSans-74" transform="translate(674.410156 0)"/>
     <use xlink:href="#DejaVuSans-73" transform="translate(713.619141 0)"/>
     <use xlink:href="#DejaVuSans-3a" transform="translate(765.71875 0)"/>
     <use xlink:href="#DejaVuSans-20" transform="translate(799.410156 0)"/>
     <use xlink:href="#DejaVuSans-73" transform="translate(831.197266 0)"/>
     <use xlink:href="#DejaVuSans-74" transform="translate(883.296875 0)"/>
     <use xlink:href="#DejaVuSans-64" transform="translate(922.505859 0)"/>
     <use xlink:href="#DejaVuSans-6f" transform="translate(985.982422 0)"/>
     <use xlink:href="#DejaVuSans-75" transform="translate(1047.164062 0)"/>
     <use xlink:href="#DejaVuSans-74" transform="translate(1110.542969 0)"/>
     <use xlink:href="#DejaVuSans-20" transform="translate(1149.751953 0)"/>
     <use xlink:href="#DejaVuSans-6f" transform="translate(1181.539062 0)"/>
     <use xlink:href="#DejaVuSans-72" transform="translate(1242.720703 0)"/>
     <use xlink:href="#DejaVuSans-20" transform="translate(1283.833984 0)"/>
     <use xlink:href="#DejaVuSans-70" transform="translate(1315.621094 0)"/>
     <use xlink:href="#DejaVuSans-61" transform="translate(1379.097656 0)"/>
     <use xlink:href="#DejaVuSans-74" transform="translate(1440.376953 0)"/>
     <use xlink:href="#DejaVuSans-68" transform="translate(1479.585938 0)"/>
     <use xlink:href="#DejaVuSans-20" transform="translate(1542.964844 0)"/>
     <use xlink:href="#DejaVuSans-b7" transform="translate(1574.751953 0)"/>
     <use xlink:href="#DejaVuSans-20" transform="translate(1606.539062 0)"/>
     <use xlink:href="#DejaVuSans-64" transform="translate(1638.326172 0)"/>
     <use xlink:href="#DejaVuSans-6f" transform="translate(1701.802734 0)"/>
     <use xlink:href="#DejaVuSans-63" transform="translate(1762.984375 0)"/>
     <use xlink:href="#DejaVuSans-75" transform="translate(1817.964844 0)"/>
     <use xlink:href="#DejaVuSans-6d" transform="translate(1881.34375 0)"/>
     <use xlink:href="#DejaVuSans-65" transform="translate(1978.755859 0)"/>
     <use xlink:href="#DejaVuSans-6e" transform="translate(2040.279297 0)"/>
     <use xlink:href="#DejaVuSans-74" transform="translate(2103.658203 0)"/>
     <use xlink:href="#DejaVuSans-65" transform="translate(2142.867188 0)"/>
     <use xlink:href="#DejaVuSans-64" transform="translate(2204.390625 0)"/>
     <use xlink:href="#DejaVuSans-20" transform="translate(2267.867188 0)"/>
     <use xlink:href="#DejaVuSans-74" transform="translate(2299.654297 0)"/>
     <use xlink:href="#DejaVuSans-61" transform="translate(2338.863281 0)"/>
     <use xlink:href="#DejaVuSans-62" transform="translate(2400.142578 0)"/>
     <use xlink:href="#DejaVuSans-6c" transform="translate(2463.619141 0)"/>
     <use xlink:href="#DejaVuSans-65" transform="translate(2491.402344 0)"/>
     <use xlink:href="#DejaVuSans-73" transform="translate(2552.925781 0)"/>
     <use xlink:href="#DejaVuSans-20" transform="translate(2605.025391 0)"/>
     <use xlink:href="#DejaVuSans-b7" transform="translate(2636.8125 0)"/>
     <use xlink:href="#DejaVuSans-20" transform="translate(2668.599609 0)"/>
     <use xlink:href="#DejaVuSans-73" transform="translate(2700.386719 0)"/>
     <use xlink:href="#DejaVuSans-65" transform="translate(2752.486328 0)"/>
     <use xlink:href="#DejaVuSans-65" transform="translate(2814.009766 0)"/>
     <use xlink:href="#DejaVuSans-64" transform="translate(2875.533203 0)"/>
     <use xlink:href="#DejaVuSans-73" transform="translate(2939.009766 0)"/>
     <use xlink:href="#DejaVuSans-20" transform="translate(2991.109375 0)"/>
     <use xlink:href="#DejaVuSans-b7" transform="translate(3022.896484 0)"/>
     <use xlink:href="#DejaVuSans-20" transform="translate(3054.683594 0)"/>
     <use xlink:href="#DejaVuSans-4a" transform="translate(3086.470703 0)"/>
     <use xlink:href="#DejaVuSans-53" transform="translate(3115.962891 0)"/>
     <use xlink:href="#DejaVuSans-4f" transform="translate(3179.439453 0)"/>
     <use xlink:href="#DejaVuSans-4e" transform="translate(3258.150391 0)"/>
     <use xlink:href="#DejaVuSans-4c" transform="translate(3332.955078 0)"/>
     <use xlink:href="#DejaVuSans-20" transform="translate(3388.667969 0)"/>
     <use xlink:href="#DejaVuSans-70" transform="translate(3420.455078 0)"/>
     <use xlink:href="#DejaVuSans-72" transform="translate(3483.931641 0)"/>
     <use xlink:href="#DejaVuSans-6f" transform="translate(3522.794922 0)"/>
     <use xlink:href="#DejaVuSans-76" transform="translate(3583.976562 0)"/>
     <use xlink:href="#DejaVuSans-65" transform="translate(3643.15625 0)"/>
     <use xlink:href="#DejaVuSans-6e" transform="translate(3704.679688 0)"/>
     <use xlink:href="#DejaVuSans-61" transform="translate(3768.058594 0)"/>
     <use xlink:href="#DejaVuSans-6e" transform="translate(3829.337891 0)"/>
     <use xlink:href="#DejaVuSans-63" transform="translate(3892.716797 0)"/>
     <use xlink:href="#DejaVuSans-65" transform="translate(3947.697266 0)"/>
     <use xlink:href="#DejaVuSans-20" transform="translate(4009.220703 0)"/>
     <use xlink:href="#DejaVuSans-61" transform="translate(4041.007812 0)"/>
     <use xlink:href="#DejaVuSans-75" transform="translate(4102.287109 0)"/>
     <use xlink:href="#DejaVuSans-64" transform="translate(4165.666016 0)"/>
     <use xlink:href="#DejaVuSans-69" transform="translate(4229.142578 0)"/>
     <use xlink:href="#DejaVuSans-74" transform="translate(4256.925781 0)"/>
    </g>
   </g>
   <g id="text_10">
    <!-- Newick · TSV · annotated trees · audit records · figures · image manifests -->
    <g transform="translate(61.625 345.59566) scale(0.08 -0.08)">
     <defs>
      <path id="DejaVuSans-56" d="M 1831 0 
L 50 4666 
L 709 4666 
L 2188 738 
L 3669 4666 
L 4325 4666 
L 2547 0 
L 1831 0 
z
" transform="scale(0.015625)"/>
     </defs>
     <use xlink:href="#DejaVuSans-4e"/>
     <use xlink:href="#DejaVuSans-65" transform="translate(74.804688 0)"/>
     <use xlink:href="#DejaVuSans-77" transform="translate(136.328125 0)"/>
     <use xlink:href="#DejaVuSans-69" transform="translate(218.115234 0)"/>
     <use xlink:href="#DejaVuSans-63" transform="translate(245.898438 0)"/>
     <use xlink:href="#DejaVuSans-6b" transform="translate(300.878906 0)"/>
     <use xlink:href="#DejaVuSans-20" transform="translate(358.789062 0)"/>
     <use xlink:href="#DejaVuSans-b7" transform="translate(390.576172 0)"/>
     <use xlink:href="#DejaVuSans-20" transform="translate(422.363281 0)"/>
     <use xlink:href="#DejaVuSans-54" transform="translate(454.150391 0)"/>
     <use xlink:href="#DejaVuSans-53" transform="translate(515.234375 0)"/>
     <use xlink:href="#DejaVuSans-56" transform="translate(578.710938 0)"/>
     <use xlink:href="#DejaVuSans-20" transform="translate(647.119141 0)"/>
     <use xlink:href="#DejaVuSans-b7" transform="translate(678.90625 0)"/>
     <use xlink:href="#DejaVuSans-20" transform="translate(710.693359 0)"/>
     <use xlink:href="#DejaVuSans-61" transform="translate(742.480469 0)"/>
     <use xlink:href="#DejaVuSans-6e" transform="translate(803.759766 0)"/>
     <use xlink:href="#DejaVuSans-6e" transform="translate(867.138672 0)"/>
     <use xlink:href="#DejaVuSans-6f" transform="translate(930.517578 0)"/>
     <use xlink:href="#DejaVuSans-74" transform="translate(991.699219 0)"/>
     <use xlink:href="#DejaVuSans-61" transform="translate(1030.908203 0)"/>
     <use xlink:href="#DejaVuSans-74" transform="translate(1092.1875 0)"/>
     <use xlink:href="#DejaVuSans-65" transform="translate(1131.396484 0)"/>
     <use xlink:href="#DejaVuSans-64" transform="translate(1192.919922 0)"/>
     <use xlink:href="#DejaVuSans-20" transform="translate(1256.396484 0)"/>
     <use xlink:href="#DejaVuSans-74" transform="translate(1288.183594 0)"/>
     <use xlink:href="#DejaVuSans-72" transform="translate(1327.392578 0)"/>
     <use xlink:href="#DejaVuSans-65" transform="translate(1366.255859 0)"/>
     <use xlink:href="#DejaVuSans-65" transform="translate(1427.779297 0)"/>
     <use xlink:href="#DejaVuSans-73" transform="translate(1489.302734 0)"/>
     <use xlink:href="#DejaVuSans-20" transform="translate(1541.402344 0)"/>
     <use xlink:href="#DejaVuSans-b7" transform="translate(1573.189453 0)"/>
     <use xlink:href="#DejaVuSans-20" transform="translate(1604.976562 0)"/>
     <use xlink:href="#DejaVuSans-61" transform="translate(1636.763672 0)"/>
     <use xlink:href="#DejaVuSans-75" transform="translate(1698.042969 0)"/>
     <use xlink:href="#DejaVuSans-64" transform="translate(1761.421875 0)"/>
     <use xlink:href="#DejaVuSans-69" transform="translate(1824.898438 0)"/>
     <use xlink:href="#DejaVuSans-74" transform="translate(1852.681641 0)"/>
     <use xlink:href="#DejaVuSans-20" transform="translate(1891.890625 0)"/>
     <use xlink:href="#DejaVuSans-72" transform="translate(1923.677734 0)"/>
     <use xlink:href="#DejaVuSans-65" transform="translate(1962.541016 0)"/>
     <use xlink:href="#DejaVuSans-63" transform="translate(2024.064453 0)"/>
     <use xlink:href="#DejaVuSans-6f" transform="translate(2079.044922 0)"/>
     <use xlink:href="#DejaVuSans-72" transform="translate(2140.226562 0)"/>
     <use xlink:href="#DejaVuSans-64" transform="translate(2179.589844 0)"/>
     <use xlink:href="#DejaVuSans-73" transform="translate(2243.066406 0)"/>
     <use xlink:href="#DejaVuSans-20" transform="translate(2295.166016 0)"/>
     <use xlink:href="#DejaVuSans-b7" transform="translate(2326.953125 0)"/>
     <use xlink:href="#DejaVuSans-20" transform="translate(2358.740234 0)"/>
     <use xlink:href="#DejaVuSans-66" transform="translate(2390.527344 0)"/>
     <use xlink:href="#DejaVuSans-69" transform="translate(2425.732422 0)"/>
     <use xlink:href="#DejaVuSans-67" transform="translate(2453.515625 0)"/>
     <use xlink:href="#DejaVuSans-75" transform="translate(2516.992188 0)"/>
     <use xlink:href="#DejaVuSans-72" transform="translate(2580.371094 0)"/>
     <use xlink:href="#DejaVuSans-65" transform="translate(2619.234375 0)"/>
     <use xlink:href="#DejaVuSans-73" transform="translate(2680.757812 0)"/>
     <use xlink:href="#DejaVuSans-20" transform="translate(2732.857422 0)"/>
     <use xlink:href="#DejaVuSans-b7" transform="translate(2764.644531 0)"/>
     <use xlink:href="#DejaVuSans-20" transform="translate(2796.431641 0)"/>
     <use xlink:href="#DejaVuSans-69" transform="translate(2828.21875 0)"/>
     <use xlink:href="#DejaVuSans-6d" transform="translate(2856.001953 0)"/>
     <use xlink:href="#DejaVuSans-61" transform="translate(2953.414062 0)"/>
     <use xlink:href="#DejaVuSans-67" transform="translate(3014.693359 0)"/>
     <use xlink:href="#DejaVuSans-65" transform="translate(3078.169922 0)"/>
     <use xlink:href="#DejaVuSans-20" transform="translate(3139.693359 0)"/>
     <use xlink:href="#DejaVuSans-6d" transform="translate(3171.480469 0)"/>
     <use xlink:href="#DejaVuSans-61" transform="translate(3268.892578 0)"/>
     <use xlink:href="#DejaVuSans-6e" transform="translate(3330.171875 0)"/>
     <use xlink:href="#DejaVuSans-69" transform="translate(3393.550781 0)"/>
     <use xlink:href="#DejaVuSans-66" transform="translate(3421.333984 0)"/>
     <use xlink:href="#DejaVuSans-65" transform="translate(3456.539062 0)"/>
     <use xlink:href="#DejaVuSans-73" transform="translate(3518.0625 0)"/>
     <use xlink:href="#DejaVuSans-74" transform="translate(3570.162109 0)"/>
     <use xlink:href="#DejaVuSans-73" transform="translate(3609.371094 0)"/>
    </g>
   </g>
  </g>
 </g>
 <defs>
  <clipPath id="p458e01d62e">
   <rect x="7.2" y="7.2" width="401.76" height="354.816"/>
  </clipPath>
 </defs>
</svg>
