<?xml version="1.0" encoding="utf-8" standalone="no"?>
<!DOCTYPE svg PUBLIC "-//W3C//DTD SVG 1.1//EN"
  "http://www.w3.org/Graphics/SVG/1.1/DTD/svg11.dtd">
<svg xmlns:xlink="http://www.w3.org/1999/xlink" width="259.2pt" height="65pt" viewBox="0 0 259.2 65" xmlns="http://www.w3.org/2000/svg" version="1.1">
 <metadata>
  <rdf:RDF xmlns:dc="http://purl.org/dc/elements/1.1/" xmlns:cc="http://creativecommons.org/ns#" xmlns:rdf="http://www.w3.org/1999/02/22-rdf-syntax-ns#">
   <cc:Work>
    <dc:type rdf:resource="http://purl.org/dc/dcmitype/StillImage"/>
    <dc:date>2026-03-15T21:12:54.004514</dc:date>
    <dc:format>image/svg+xml</dc:format>
    <dc:creator>
     <cc:Agent>
      <dc:title>Matplotlib v3.10.8, https://matplotlib.org/</dc:title>
     </cc:Agent>
    </dc:creator>
   </cc:Work>
  </rdf:RDF>
 </metadata>
 <defs>
  <style type="text/css">*{stroke-linejoin: round; stroke-linecap: butt}</style>
 </defs>
 <g id="figure_1">
  <g id="patch_1">
   <path d="M 0 65 
L 259.2 65 
L 259.2 0 
L 0 0 
z
" style="fill: #ffffff"/>
  </g>
  <g id="axes_1">
   <g id="line2d_1">
    <path d="M 7.987247 45 
L 7.987247 36.5 
" clip-path="url(#pbdcbd7c1a1)" style="fill: none; stroke: #000000; stroke-width: 0.8; stroke-linecap: round"/>
   </g>
   <g id="line2d_2">
    <path d="M 7.987247 45 
L 7.987247 53.5 
" clip-path="url(#pbdcbd7c1a1)" style="fill: none; stroke: #000000; stroke-width: 0.8; stroke-linecap: round"/>
   </g>
   <g id="line2d_3">
    <path d="M 91.143453 36.5 
L 91.143453 32.25 
" clip-path="url(#pbdcbd7c1a1)" style="fill: none; stroke: #000000; stroke-width: 0.8; stroke-linecap: round"/>
   </g>
   <g id="line2d_4">
    <path d="M 91.143453 36.5 
L 91.143453 40.75 
" clip-path="url(#pbdcbd7c1a1)" style="fill: none; stroke: #000000; stroke-width: 0.8; stroke-linecap: round"/>
   </g>
   <g id="line2d_5">
    <path d="M 57.880971 53.5 
L 57.880971 49.25 
" clip-path="url(#pbdcbd7c1a1)" style="fill: none; stroke: #000000; stroke-width: 0.8; stroke-linecap: round"/>
   </g>
   <g id="line2d_6">
    <path d="M 57.880971 53.5 
L 57.880971 57.75 
" clip-path="url(#pbdcbd7c1a1)" style="fill: none; stroke: #000000; stroke-width: 0.8; stroke-linecap: round"/>
   </g>
   <g id="line2d_7">
    <path d="M 7.987247 36.5 
L 91.143453 36.5 
" clip-path="url(#pbdcbd7c1a1)" style="fill: none; stroke: #000000; stroke-width: 0.8; stroke-linecap: round"/>
   </g>
   <g id="line2d_8">
    <path d="M 7.987247 53.5 
L 57.880971 53.5 
" clip-path="url(#pbdcbd7c1a1)" style="fill: none; stroke: #000000; stroke-width: 0.8; stroke-linecap: round"/>
   </g>
   <g id="line2d_9">
    <path d="M 91.143453 32.25 
L 157.668418 32.25 
" clip-path="url(#pbdcbd7c1a1)" style="fill: none; stroke: #000000; stroke-width: 0.8; stroke-linecap: round"/>
   </g>
   <g id="line2d_10">
    <path d="M 91.143453 40.75 
L 157.668418 40.75 
" clip-path="url(#pbdcbd7c1a1)" style="fill: none; stroke: #000000; stroke-width: 0.8; stroke-linecap: round"/>
   </g>
   <g id="line2d_11">
    <path d="M 57.880971 49.25 
L 124.405935 49.25 
" clip-path="url(#pbdcbd7c1a1)" style="fill: none; stroke: #000000; stroke-width: 0.8; stroke-linecap: round"/>
   </g>
   <g id="line2d_12">
    <path d="M 57.880971 57.75 
L 157.668418 57.75 
" clip-path="url(#pbdcbd7c1a1)" style="fill: none; stroke: #000000; stroke-width: 0.8; stroke-linecap: round"/>
   </g>
   <g id="line2d_13">
    <path d="M 2.997874 45 
L 7.987247 45 
" clip-path="url(#pbdcbd7c1a1)" style="fill: none; stroke: #000000; stroke-width: 0.8; stroke-linecap: round"/>
   </g>
   <g id="text_1">
    <text style="font-size: 8px; font-family: 'Helvetica'; text-anchor: middle; fill: #2d2d2d" x="49.56535" y="34.8325" transform="rotate(-0 49.56535 34.8325)">95</text>
   </g>
   <g id="text_2">
    <text style="font-size: 8px; font-family: 'Helvetica'; text-anchor: middle; fill: #2d2d2d" x="32.934109" y="51.8325" transform="rotate(-0 32.934109 51.8325)">88</text>
   </g>
   <g id="text_3">
    <text style="font-size: 8px; font-family: 'Helvetica'; text-anchor: start; fill: #2d2d2d" x="167.647163" y="34.36375" transform="rotate(-0 167.647163 34.36375)">Homo_sapiens_GENE1</text>
   </g>
   <g id="text_4">
    <text style="font-size: 8px; font-family: 'Helvetica'; text-anchor: start; fill: #2d2d2d" x="167.647163" y="42.785625" transform="rotate(-0 167.647163 42.785625)">Mus_musculus_GENE1</text>
   </g>
   <g id="text_5">
    <text style="font-size: 8px; font-family: 'Helvetica'; text-anchor: start; fill: #2d2d2d" x="167.647163" y="51.36375" transform="rotate(-0 167.647163 51.36375)">Homo_sapiens_GENE2</text>
   </g>
   <g id="text_6">
    <text style="font-size: 8px; font-family: 'Helvetica'; text-anchor: start; fill: #2d2d2d" x="167.647163" y="59.785625" transform="rotate(-0 167.647163 59.785625)">Danio_rerio_GENE1</text>
   </g>
   <g id="PathCollection_1">
    <defs>
     <path id="me8e64d3165" d="M 0 1.06066 
C 0.28129 1.06066 0.551098 0.948902 0.75 0.75 
C 0.948902 0.551098 1.06066 0.28129 1.06066 0 
C 1.06066 -0.28129 0.948902 -0.551098 0.75 -0.75 
C 0.551098 -0.948902 0.28129 -1.06066 0 -1.06066 
C -0.28129 -1.06066 -0.551098 -0.948902 -0.75 -0.75 
C -0.948902 -0.551098 -1.06066 -0.28129 -1.06066 0 
C -1.06066 0.28129 -0.948902 0.551098 -0.75 0.75 
C -0.551098 0.948902 -0.28129 1.06066 0 1.06066 
z
" style="stroke: #ffffff; stroke-width: 0.4"/>
    </defs>
    <g clip-path="url(#pbdcbd7c1a1)">
     <use xlink:href="#me8e64d3165" x="7.987247" y="45" style="fill: #ff0000; stroke: #ffffff; stroke-width: 0.4"/>
    </g>
   </g>
   <g id="PathCollection_2">
    <defs>
     <path id="mb6c8c80900" d="M 0 1.06066 
C 0.28129 1.06066 0.551098 0.948902 0.75 0.75 
C 0.948902 0.551098 1.06066 0.28129 1.06066 0 
C 1.06066 -0.28129 0.948902 -0.551098 0.75 -0.75 
C 0.551098 -0.948902 0.28129 -1.06066 0 -1.06066 
C -0.28129 -1.06066 -0.551098 -0.948902 -0.75 -0.75 
C -0.948902 -0.551098 -1.06066 -0.28129 -1.06066 0 
C -1.06066 0.28129 -0.948902 0.551098 -0.75 0.75 
C -0.551098 0.948902 -0.28129 1.06066 0 1.06066 
z
" style="stroke: #ffffff; stroke-width: 0.4"/>
    </defs>
    <g clip-path="url(#pbdcbd7c1a1)">
     <use xlink:href="#mb6c8c80900" x="91.143453" y="36.5" style="fill: #0000ff; stroke: #ffffff; stroke-width: 0.4"/>
    </g>
   </g>
   <g id="PathCollection_3">
    <g clip-path="url(#pbdcbd7c1a1)">
     <use xlink:href="#mb6c8c80900" x="57.880971" y="53.5" style="fill: #0000ff; stroke: #ffffff; stroke-width: 0.4"/>
    </g>
   </g>
   <g id="legend_1">
    <g id="line2d_14">
     <defs>
      <path id="m86e65003a6" d="M 0 1.2 
C 0.318244 1.2 0.623496 1.07356 0.848528 0.848528 
C 1.07356 0.623496 1.2 0.318244 1.2 0 
C 1.2 -0.318244 1.07356 -0.623496 0.848528 -0.848528 
C 0.623496 -1.07356 0.318244 -1.2 0 -1.2 
C -0.318244 -1.2 -0.623496 -1.07356 -0.848528 -0.848528 
C -1.07356 -0.623496 -1.2 -0.318244 -1.2 0 
C -1.2 0.318244 -1.07356 0.623496 -0.848528 0.848528 
C -0.623496 1.07356 -0.318244 1.2 0 1.2 
z
" style="stroke: #ffffff; stroke-width: 0.4"/>
     </defs>
     <g>
      <use xlink:href="#m86e65003a6" x="14" y="10.3375" style="fill: #0000ff; stroke: #ffffff; stroke-width: 0.4"/>
     </g>
    </g>
    <g id="text_7">
     <text style="font-size: 8px; font-family: 'Helvetica'; text-anchor: start" x="24.4" y="13.1375" transform="rotate(-0 24.4 13.1375)">Speciation node</text>
    </g>
    <g id="line2d_15">
     <defs>
      <path id="mf5d944c391" d="M 0 1.2 
C 0.318244 1.2 0.623496 1.07356 0.848528 0.848528 
C 1.07356 0.623496 1.2 0.318244 1.2 0 
C 1.2 -0.318244 1.07356 -0.623496 0.848528 -0.848528 
C 0.623496 -1.07356 0.318244 -1.2 0 -1.2 
C -0.318244 -1.2 -0.623496 -1.07356 -0.848528 -0.848528 
C -1.07356 -0.623496 -1.2 -0.318244 -1.2 0 
C -1.2 0.318244 -1.07356 0.623496 -0.848528 0.848528 
C -0.623496 1.07356 -0.318244 1.2 0 1.2 
z
" style="stroke: #ffffff; stroke-width: 0.4"/>
     </defs>
     <g>
      <use xlink:href="#mf5d944c391" x="14" y="19.3625" style="fill: #ff0000; stroke: #ffffff; stroke-width: 0.4"/>
     </g>
    </g>
    <g id="text_8">
     <text style="font-size: 8px; font-family: 'Helvetica'; text-anchor: start" x="24.4" y="22.1625" transform="rotate(-0 24.4 22.1625)">Duplication node</text>
    </g>
   </g>
  </g>
 </g>
 <defs>
  <clipPath id="pbdcbd7c1a1">
   <rect x="2" y="28" width="255.2" height="34"/>
  </clipPath>
 </defs>
</svg>
